<?xml version="1.0" standalone="no"?>
<!DOCTYPE svg PUBLIC "-//W3C//DTD SVG 20010904//EN"
 "http://www.w3.org/TR/2001/REC-SVG-20010904/DTD/svg10.dtd">
<svg version="1.0" xmlns="http://www.w3.org/2000/svg"
 width="1024.000000pt" height="1024.000000pt" viewBox="0 0 1024.000000 1024.000000"
 preserveAspectRatio="xMidYMid meet">

<g transform="translate(0.000000,1024.000000) scale(0.100000,-0.100000)"
fill="#000000" stroke="none">
<path d="M6580 9331 c-151 -7 -188 -19 -239 -77 -17 -18 -35 -50 -40 -71 -7
-25 -11 -349 -11 -965 l0 -928 1578 -2 c867 -1 1632 -2 1699 -2 l123 -1 0 943
c0 908 -1 944 -19 980 -11 20 -32 49 -48 64 -63 60 28 56 -1504 61 -772 2
-1465 1 -1539 -2z m2811 -342 c42 -15 67 -35 86 -74 13 -24 16 -78 16 -307 1
-264 0 -279 -19 -305 -11 -16 -36 -36 -55 -45 -32 -17 -120 -18 -1419 -18
-1299 0 -1387 1 -1420 18 -19 9 -45 32 -57 51 -22 33 -23 40 -23 303 0 245 2
272 19 306 20 38 46 59 91 73 43 13 2742 11 2781 -2z m-2263 -1024 c10 -4 12
-67 10 -292 l-3 -288 -272 -3 -271 -2 -21 26 c-20 25 -21 39 -21 269 0 229 1
244 20 268 18 23 29 26 88 29 85 4 453 -2 470 -7z m684 -2 c5 -2 8 -129 8
-282 0 -247 -2 -280 -17 -292 -21 -18 -554 -14 -565 5 -4 6 -8 138 -8 293 l0
282 53 4 c66 5 519 -3 529 -10z m1546 9 c13 -1 37 -15 53 -31 l29 -29 0 -227
c0 -194 -2 -231 -17 -255 -32 -55 -35 -55 -427 -53 -326 3 -362 5 -373 20 -15
19 -16 107 -6 385 l6 187 26 3 c31 4 676 4 709 0z m-890 -291 c1 -157 -1 -288
-6 -293 -10 -10 -533 -12 -543 -1 -4 4 -11 54 -14 111 -7 100 -7 102 14 102
16 0 21 -6 21 -28 0 -48 50 -79 117 -73 6 1 49 37 95 81 45 44 88 80 93 80 6
1 24 19 40 40 17 21 36 39 43 40 46 1 3 92 -51 105 -19 5 -27 3 -27 -6 0 -7
-22 -34 -49 -60 -37 -36 -55 -46 -73 -43 -13 2 -17 2 -10 -2 6 -3 12 -10 12
-16 0 -13 -26 -38 -39 -38 -6 0 -11 -4 -11 -10 0 -5 -12 -10 -27 -10 -21 0
-32 8 -43 32 -8 17 -24 36 -35 42 -11 6 -23 16 -27 21 -4 6 -8 0 -8 -11 0 -12
-7 -37 -15 -55 -13 -32 -14 -23 -15 124 l0 157 278 -2 277 -3 3 -284z"/>
<path d="M7962 8663 c2 -173 6 -158 10 35 2 67 0 122 -4 122 -5 0 -7 -71 -6
-157z"/>
<path d="M8105 8810 c3 -5 8 -10 11 -10 2 0 4 5 4 10 0 6 -5 10 -11 10 -5 0
-7 -4 -4 -10z"/>
<path d="M8180 8610 l0 -211 78 3 c77 3 77 3 80 32 2 16 -2 34 -8 40 -9 8 -10
5 -6 -14 10 -41 -5 -51 -70 -48 l-59 3 -3 198 -2 197 65 0 65 0 3 -162 3 -163
2 168 2 167 -75 0 -75 0 0 -210z"/>
<path d="M8420 8816 c-3 -2 -4 -97 -2 -210 l3 -206 74 0 75 0 -1 33 c-2 30 -2
30 -6 5 -4 -27 -6 -28 -69 -28 l-64 0 0 200 0 200 65 0 65 0 3 -165 3 -165 -1
167 0 168 -70 3 c-39 1 -73 1 -75 -2z"/>
<path d="M8103 8600 c0 -25 2 -35 4 -22 2 12 2 32 0 45 -2 12 -4 2 -4 -23z"/>
<path d="M7972 8443 l-2 -43 63 2 62 2 -57 3 -57 4 -4 37 -4 37 -1 -42z"/>
<path d="M6620 7941 c-17 -5 -27 -16 -31 -36 -11 -49 -10 -442 1 -469 l10 -26
261 0 261 0 -4 258 c-2 141 -7 263 -11 270 -6 9 -64 12 -235 11 -125 -1 -238
-4 -252 -8z m297 -113 c33 -31 47 -82 34 -120 -13 -36 -48 -78 -67 -78 -6 0
-17 -7 -24 -15 -7 -8 -18 -15 -24 -15 -6 0 -4 4 4 10 13 8 13 10 0 14 -8 3
-27 10 -42 15 -79 29 -82 165 -5 204 39 20 93 13 124 -15z m-113 -223 l37 -25
43 25 c50 29 73 31 98 8 24 -22 23 -29 -10 -42 -16 -7 -51 -34 -77 -61 l-49
-50 -62 60 c-34 33 -69 60 -78 60 -21 0 -20 26 2 39 28 17 57 13 96 -14z"/>
<path d="M7260 7682 l0 -269 167 -6 c91 -4 210 -7 264 -7 l97 0 7 123 c4 68 5
191 3 273 l-4 149 -267 3 -267 2 0 -268z m223 132 l33 -36 36 36 c39 39 53 39
95 2 31 -27 29 -44 -9 -84 l-33 -33 43 -35 c48 -41 54 -72 20 -104 -27 -25
-26 -25 -61 4 l-29 23 -27 -28 c-30 -29 -67 -30 -78 -3 -7 19 -38 18 -53 -1
-20 -24 -52 -14 -73 22 l-19 33 29 27 c16 16 40 36 52 46 l23 19 -31 32 c-41
42 -40 71 2 96 17 11 35 20 39 20 4 0 22 -16 41 -36z"/>
<path d="M8812 7673 l3 -168 198 0 c108 0 197 3 197 8 0 4 0 79 0 167 l0 160
-200 0 -200 0 2 -167z m294 -70 c-7 -7 -36 16 -36 29 0 6 7 5 15 -2 13 -10 15
-9 16 11 2 20 3 20 6 -4 3 -16 2 -31 -1 -34z"/>
<path d="M7947 7943 c-10 -10 -8 -121 2 -127 5 -3 8 25 7 64 0 38 -1 70 -2 70
0 0 -4 -3 -7 -7z"/>
<path d="M8268 7943 c12 -2 30 -2 40 0 9 3 -1 5 -23 4 -22 0 -30 -2 -17 -4z"/>
<path d="M8429 7942 c11 -8 13 -26 9 -79 -3 -37 -2 -122 2 -188 6 -111 7 -105
6 74 -1 164 -3 195 -16 198 -13 4 -13 3 -1 -5z"/>
<path d="M8350 7820 c11 -20 30 -28 30 -12 0 11 -22 32 -32 32 -5 0 -4 -9 2
-20z"/>
<path d="M8411 7824 c0 -11 3 -14 6 -6 3 7 2 16 -1 19 -3 4 -6 -2 -5 -13z"/>
<path d="M8000 7749 c0 -5 5 -7 10 -4 6 3 10 8 10 11 0 2 -4 4 -10 4 -5 0 -10
-5 -10 -11z"/>
<path d="M7935 7420 c3 -5 8 -10 11 -10 2 0 4 5 4 10 0 6 -5 10 -11 10 -5 0
-7 -4 -4 -10z"/>
<path d="M8148 7413 c18 -2 45 -2 60 0 15 2 0 4 -33 4 -33 0 -45 -2 -27 -4z"/>
<path d="M1215 9200 c-663 -5 -713 -6 -738 -23 -53 -35 -67 -72 -67 -179 l0
-98 2526 0 2527 0 -5 90 c-5 76 -10 96 -32 128 -14 21 -44 49 -66 61 l-40 22
-1698 2 c-933 1 -2017 0 -2407 -3z m3289 -121 c8 -12 12 -29 9 -38 -6 -17 -32
-41 -44 -41 -16 0 -39 32 -39 54 0 46 48 62 74 25z m656 -19 c0 -35 -12 -50
-41 -50 -32 0 -54 29 -44 60 12 36 85 28 85 -10z m141 30 c37 -20 21 -80 -22
-80 -43 0 -63 45 -33 74 18 19 28 20 55 6z m-1061 -35 l0 -35 -104 0 -104 0 0
35 0 35 104 0 104 0 0 -35z m494 2 c3 -11 3 -24 0 -29 -3 -4 -39 -8 -80 -8
-56 0 -75 3 -72 13 3 7 32 14 74 18 l69 5 -72 2 c-84 2 -99 19 -20 24 73 4 94
-1 101 -25z m264 1 c2 -19 -3 -31 -21 -43 -30 -19 -55 -11 -63 21 -10 41 2 56
43 52 33 -3 38 -7 41 -30z"/>
<path d="M4083 9053 c15 -2 39 -2 55 0 15 2 2 4 -28 4 -30 0 -43 -2 -27 -4z"/>
<path d="M4178 9053 c6 -2 18 -2 25 0 6 3 1 5 -13 5 -14 0 -19 -2 -12 -5z"/>
<path d="M700 8677 c-25 -12 -25 -14 -28 -155 l-3 -142 1587 2 1586 3 -1 144
c-1 80 -4 148 -7 153 -3 4 -704 8 -1557 8 -1230 0 -1557 -3 -1577 -13z m730
-162 l0 -45 -340 0 -340 0 0 45 0 45 340 0 340 0 0 -45z"/>
<path d="M670 8190 l0 -150 1584 0 1585 0 3 146 c2 80 1 148 -1 150 -2 2 -717
4 -1588 4 l-1583 0 0 -150z m2114 64 c10 -25 7 -124 -4 -145 -37 -69 -93 60
-58 136 13 28 52 35 62 9z m160 -6 c3 -13 6 -46 6 -75 0 -43 -4 -54 -21 -64
-15 -8 -28 -8 -44 -1 -20 9 -21 16 -17 69 2 32 9 66 14 76 13 25 54 22 62 -5z
m94 -8 c14 -28 9 -105 -9 -126 -19 -23 -49 -16 -60 14 -12 30 -3 110 14 130
15 19 39 11 55 -18z m-188 -140 c0 -23 -4 -30 -20 -30 -23 0 -23 0 -10 34 13
35 30 33 30 -4z"/>
<path d="M2746 8220 c-9 -46 -8 -88 3 -94 12 -8 21 18 21 62 0 52 -15 72 -24
32z"/>
<path d="M2896 8171 c-12 -13 -14 -21 -6 -26 6 -4 12 -5 13 -4 2 2 8 11 15 21
18 23 -2 31 -22 9z"/>
<path d="M2994 8205 c-3 -19 -3 -47 2 -62 l7 -28 7 30 c11 45 11 95 0 95 -5 0
-12 -16 -16 -35z"/>
<path d="M2992 7878 c-13 -13 -16 -106 -4 -125 4 -7 17 -10 30 -7 40 11 43
112 3 133 -12 7 -22 6 -29 -1z m36 -67 c3 -46 1 -52 -15 -49 -13 2 -19 14 -21
42 -4 46 4 69 21 64 7 -3 13 -26 15 -57z"/>
<path d="M2625 7815 c3 -41 1 -65 -5 -65 -5 0 -10 -3 -10 -7 0 -5 11 -8 25 -8
14 0 25 3 25 8 0 4 -4 7 -10 7 -6 0 -10 28 -10 65 0 38 -4 65 -10 65 -7 0 -8
-24 -5 -65z"/>
<path d="M2700 7876 c0 -2 14 -6 30 -8 17 -3 30 -1 30 4 0 4 -13 8 -30 8 -16
0 -30 -2 -30 -4z"/>
<path d="M2796 7871 c-4 -5 3 -7 14 -4 23 6 26 13 6 13 -8 0 -17 -4 -20 -9z"/>
<path d="M2900 7855 c-13 -34 -13 -58 2 -90 13 -28 41 -30 46 -3 2 12 -2 15
-17 11 -19 -5 -21 -1 -21 33 0 58 12 71 39 42 l22 -23 -9 25 c-13 36 -49 39
-62 5z"/>
<path d="M4903 7821 c-78 -22 -185 -99 -227 -162 -30 -45 -42 -52 -125 -75
-16 -4 -21 -3 -17 5 5 8 -41 11 -163 11 l-170 0 -20 -26 c-36 -46 -23 -158 21
-185 7 -5 42 -9 77 -9 52 0 62 3 57 15 -3 9 0 15 9 15 9 0 12 6 8 16 -3 8 -12
13 -19 10 -20 -8 -26 10 -9 24 8 7 28 10 45 8 27 -4 30 -2 31 21 0 24 1 24 10
6 l9 -20 -3 20 c-2 16 -12 21 -52 26 l-50 6 55 2 55 3 -35 12 -35 13 59 0 c46
0 62 4 73 19 9 12 16 15 23 8 7 -7 4 -16 -10 -29 -11 -10 -20 -23 -20 -29 0
-6 11 2 25 18 14 16 28 27 31 24 3 -4 -14 -25 -39 -47 -58 -53 -98 -131 -104
-203 -6 -61 3 -128 17 -128 5 0 5 14 -1 32 -11 40 -11 106 1 133 6 14 9 2 9
-42 1 -34 6 -74 11 -89 9 -21 7 -29 -7 -39 -12 -9 -20 -10 -24 -3 -4 6 -39 13
-79 16 -55 4 -74 2 -81 -9 -14 -23 -12 -24 53 -22 35 1 55 -1 46 -3 -30 -9
-20 -24 16 -24 19 0 41 -3 49 -6 10 -4 15 1 14 13 -1 10 5 18 13 18 8 0 15 -7
15 -15 0 -8 5 -18 10 -22 6 -5 -15 -6 -45 -4 -82 6 -170 -4 -170 -20 0 -11 23
-13 120 -7 96 5 120 3 120 -7 0 -7 3 -10 6 -7 4 3 20 -12 36 -34 16 -22 39
-44 51 -48 18 -7 13 -10 -31 -20 -37 -9 -52 -18 -52 -29 0 -29 21 -95 47 -147
14 -27 26 -68 27 -89 0 -22 6 -41 13 -43 8 -3 10 6 8 28 -4 25 -2 30 7 21 7
-7 21 -12 32 -12 11 0 29 -8 40 -17 15 -14 18 -14 8 -2 -10 13 -7 20 13 39 22
20 25 32 25 87 0 85 13 84 69 -5 42 -66 70 -85 127 -85 74 0 100 39 85 130
l-8 52 124 56 124 56 19 -23 c16 -19 19 -20 20 -6 0 32 47 125 71 142 35 24
61 20 97 -15 35 -35 47 -77 40 -149 -5 -53 -39 -105 -75 -116 -17 -4 -20 -10
-13 -22 4 -10 16 -44 25 -77 33 -114 88 -246 100 -241 8 3 24 -27 44 -81 49
-127 59 -135 246 -197 206 -69 245 -87 295 -132 83 -75 95 -108 225 -609 51
-199 218 -964 235 -1080 14 -92 7 -162 -21 -216 l-19 -39 -149 0 c-81 0 -196
-3 -254 -6 l-106 -7 -3 44 -3 44 -187 95 c-102 52 -193 101 -202 109 -13 11
-51 11 -223 2 -115 -6 -286 -13 -380 -17 -95 -4 -173 -8 -173 -10 0 -16 -32
-243 -36 -256 -5 -17 -33 -18 -413 -18 l-409 0 -11 28 c-6 15 -37 99 -70 187
-69 184 -119 318 -161 425 -16 41 -65 172 -109 290 -106 285 -117 312 -149
335 -26 20 -45 20 -845 23 -450 1 -832 -1 -849 -6 -17 -4 -40 -19 -50 -33 -19
-25 -19 -27 0 -80 11 -30 62 -153 115 -274 52 -121 118 -276 147 -345 29 -69
78 -186 110 -260 32 -74 73 -171 91 -215 50 -124 76 -156 142 -176 20 -7 37
-18 37 -26 0 -11 246 -13 1464 -13 1138 0 1465 -3 1468 -12 3 -8 22 -11 54 -9
55 3 317 -9 311 -15 -8 -9 -552 -12 -1939 -13 -1289 -1 -1458 -3 -1458 -16 0
-15 664 -19 3218 -20 l217 0 1 50 1 50 59 5 c46 4 53 7 34 12 -14 4 -50 8 -79
8 -34 0 -51 4 -45 9 16 16 949 54 1662 68 313 6 332 7 332 25 0 17 -20 18
-450 18 l-450 0 0 70 0 70 53 2 c28 2 76 3 106 3 l53 0 -1 195 c-1 107 -5 197
-7 200 -3 3 -47 6 -97 7 l-92 1 86 -11 c60 -9 85 -16 82 -24 -3 -7 -1 -13 4
-13 4 0 9 -62 9 -138 1 -92 0 -121 -5 -87 l-8 50 -1 -58 c-2 -54 -3 -57 -22
-47 -15 8 -20 8 -20 -2 0 -9 -3 -10 -8 -2 -4 6 -14 14 -22 17 -10 3 -6 6 9 6
23 1 24 3 17 62 -3 34 -6 70 -6 80 0 12 -7 19 -20 19 -16 0 -20 -7 -20 -35 0
-19 -4 -35 -9 -35 -5 0 -8 -12 -5 -26 3 -16 1 -23 -6 -19 -5 3 -10 13 -10 21
0 8 -4 14 -10 14 -5 0 -10 -4 -10 -9 0 -6 5 -13 10 -16 6 -3 10 -17 10 -31 0
-17 -5 -24 -20 -24 -11 0 -20 -6 -20 -14 0 -10 14 -16 43 -19 l42 -4 -42 -1
c-24 -1 -43 -7 -43 -13 0 -8 24 -9 80 -4 44 4 80 3 80 -1 0 -5 -38 -10 -85
-12 l-85 -3 0 54 c0 98 12 177 26 177 10 0 14 13 14 40 0 32 -4 40 -19 40 -15
0 -19 11 -25 67 -4 36 -3 70 1 74 5 5 53 10 108 11 l100 3 -1 40 c-1 22 -2
133 -3 248 l-1 207 -100 0 -100 0 5 -42 c4 -41 4 -42 -4 -8 -5 19 -14 36 -20
38 -10 3 -41 53 -41 67 0 3 60 5 133 5 l133 0 2 255 3 255 -271 0 -270 0 0
-150 c0 -163 3 -156 -60 -144 l-32 7 5 111 c2 61 12 145 21 186 31 131 -6 277
-92 372 -37 41 -39 46 -41 113 -2 89 -18 182 -37 215 -10 16 -13 18 -9 5 16
-48 35 -171 34 -213 l-1 -47 -10 50 c-36 197 -61 261 -128 333 -22 24 -37 49
-33 54 3 6 2 8 -4 5 -13 -8 -55 22 -47 34 3 5 2 8 -3 7 -9 -3 -104 60 -115 76
-19 27 -61 156 -108 326 -99 359 -218 532 -408 590 -70 22 -285 50 -372 49
-30 0 -83 -8 -117 -18z m-700 -261 c-3 -11 -9 -17 -15 -14 -5 3 -4 12 3 20 16
19 18 18 12 -6z m31 -5 c-6 -24 -4 -25 37 -25 l44 -1 -27 -15 c-27 -14 -39
-44 -18 -44 6 0 10 -7 10 -15 0 -23 -15 -18 -30 10 -11 20 -11 27 1 41 13 16
12 17 -9 12 -13 -4 -20 -2 -16 3 3 6 -6 7 -23 4 -25 -5 -26 -4 -5 4 12 6 22
19 22 31 0 11 5 20 10 20 6 0 8 -11 4 -25z m83 -77 c-3 -8 -6 -5 -6 6 -1 11 2
17 5 13 3 -3 4 -12 1 -19z m-87 -7 c0 -6 -4 -13 -10 -16 -5 -3 -10 1 -10 9 0
9 5 16 10 16 6 0 10 -4 10 -9z m0 -71 c0 -5 -7 -7 -15 -4 -8 4 -15 8 -15 10 0
2 7 4 15 4 8 0 15 -4 15 -10z m459 -183 c71 -95 174 -159 318 -198 43 -12 79
-22 81 -24 1 -1 -25 -13 -58 -25 l-61 -23 -22 20 c-40 37 -66 45 -120 38 -61
-8 -93 -26 -102 -56 l-7 -22 -17 22 c-9 12 -35 28 -56 35 -38 13 -41 17 -53
72 -15 71 -11 209 8 244 l13 24 16 -24 c9 -13 36 -51 60 -83z m218 -278 c54
-51 75 -148 38 -175 -32 -23 -68 -17 -102 19 -56 57 -92 167 -60 181 28 12 99
-2 124 -25z m-283 -20 c18 -22 26 -42 26 -70 l0 -40 -47 3 -47 3 -19 55 c-18
52 -18 55 -1 67 29 21 61 15 88 -18z m65 -50 c14 -64 14 -106 0 -114 -16 -11
-18 -4 -25 90 -8 98 6 112 25 24z m-44 -107 c-3 -3 -11 0 -18 7 -9 10 -8 11 6
5 10 -3 15 -9 12 -12z m1496 -177 c29 -62 49 -159 48 -230 0 -49 -7 -35 -38
80 -22 81 -45 133 -115 260 l-38 70 58 -60 c32 -34 69 -85 85 -120z m589 -945
c0 -36 3 -40 25 -40 37 0 35 -38 -2 -42 -23 -2 -29 -8 -31 -35 -5 -47 -32 -44
-32 2 0 32 -2 35 -31 35 -24 0 -30 4 -27 18 2 10 14 18 31 20 24 3 27 7 27 43
0 32 3 39 20 39 17 0 20 -7 20 -40z m107 -422 c-2 -13 -4 -3 -4 22 0 25 2 35
4 23 2 -13 2 -33 0 -45z m-34 -52 c3 -19 2 -48 -3 -63 -7 -25 -8 -24 -7 12 1
22 -2 50 -6 63 -5 12 -4 22 1 22 5 0 12 -16 15 -34z m167 -146 l6 105 2 -122
c1 -67 -2 -124 -6 -127 -16 -10 -28 10 -27 44 1 19 3 73 5 120 l4 85 5 -105 5
-105 6 105z m-173 -42 c-2 -13 -4 -3 -4 22 0 25 2 35 4 23 2 -13 2 -33 0 -45z
m0 -130 c-3 -8 -6 -5 -6 6 -1 11 2 17 5 13 3 -3 4 -12 1 -19z m170 -14 c-3 -3
-12 -4 -19 -1 -8 3 -5 6 6 6 11 1 17 -2 13 -5z m-1982 -714 c4 -12 -2 -35 -16
-60 -28 -50 -37 -46 -10 5 29 54 21 64 -62 68 l-72 3 77 2 c69 2 77 0 83 -18z"/>
<path d="M4885 6890 c3 -5 10 -10 16 -10 5 0 9 5 9 10 0 6 -7 10 -16 10 -8 0
-12 -4 -9 -10z"/>
<path d="M2710 7799 c0 -5 5 -7 10 -4 6 3 10 8 10 11 0 2 -4 4 -10 4 -5 0 -10
-5 -10 -11z"/>
<path d="M2798 7803 c7 -3 16 -2 19 1 4 3 -2 6 -13 5 -11 0 -14 -3 -6 -6z"/>
<path d="M2847 7776 c-5 -15 -6 -31 -3 -34 8 -8 18 25 14 45 -3 13 -6 10 -11
-11z"/>
<path d="M2703 7752 c0 -8 11 -12 30 -10 43 4 46 25 4 24 -21 -1 -34 -6 -34
-14z"/>
<path d="M2798 7743 c7 -3 16 -2 19 1 4 3 -2 6 -13 5 -11 0 -14 -3 -6 -6z"/>
<path d="M2662 7505 c-7 -8 -9 -15 -3 -15 5 0 11 -22 13 -50 2 -38 -1 -50 -12
-54 -8 -2 1 -4 20 -4 19 0 29 2 23 5 -9 3 -13 27 -13 69 0 65 -5 74 -28 49z"/>
<path d="M2752 7507 c-14 -16 -6 -118 10 -128 14 -9 38 7 38 27 0 7 -5 16 -11
20 -8 4 -9 0 -4 -15 5 -15 2 -21 -10 -21 -13 0 -15 10 -13 57 2 37 8 58 17 61
11 4 13 -2 8 -27 -4 -17 -3 -31 2 -31 15 0 21 31 11 51 -12 22 -33 25 -48 6z"/>
<path d="M2898 7508 c-2 -7 -1 -26 3 -43 7 -32 12 -25 9 13 -1 14 4 22 15 22
13 0 15 -9 13 -52 -2 -43 -6 -53 -20 -52 -10 1 -18 -2 -18 -7 0 -14 47 -11 53
4 2 6 2 38 -1 70 -4 51 -7 57 -27 57 -13 0 -25 -6 -27 -12z"/>
<path d="M2992 7508 c-14 -14 -16 -96 -3 -116 16 -27 46 -9 54 33 14 67 -17
117 -51 83z m38 -64 c0 -47 -3 -55 -17 -52 -15 3 -17 12 -14 48 3 49 7 60 22
60 5 0 9 -25 9 -56z"/>
<path d="M4425 7473 l-17 -28 23 22 c12 12 20 25 17 28 -3 3 -13 -7 -23 -22z"/>
<path d="M4397 7426 c-11 -8 -14 -17 -8 -20 5 -4 15 3 21 14 13 23 11 24 -13
6z"/>
<path d="M4350 7390 c0 -5 5 -10 10 -10 6 0 10 5 10 10 0 6 -4 10 -10 10 -5 0
-10 -4 -10 -10z"/>
<path d="M2830 7376 c0 -8 5 -18 10 -21 6 -3 10 3 10 14 0 12 -4 21 -10 21 -5
0 -10 -6 -10 -14z"/>
<path d="M4207 7193 c-41 -11 -64 -127 -32 -169 8 -10 15 -14 15 -7 0 6 -4 15
-10 18 -13 8 -13 92 0 100 6 4 8 10 5 15 -3 4 7 18 22 29 16 11 26 20 23 20
-3 -1 -13 -3 -23 -6z"/>
<path d="M2714 7115 c1 -30 5 -45 14 -45 9 0 12 12 10 42 -4 58 -25 61 -24 3z"/>
<path d="M2780 7144 c0 -13 3 -14 13 -5 8 6 17 8 20 4 4 -3 7 -1 7 5 0 7 -9
12 -20 12 -12 0 -20 -7 -20 -16z"/>
<path d="M2916 7152 c-3 -5 1 -12 9 -16 10 -4 15 -20 15 -53 0 -26 4 -54 9
-62 6 -9 7 9 4 50 -5 62 -24 102 -37 81z"/>
<path d="M2996 7151 c-4 -5 3 -7 14 -4 23 6 26 13 6 13 -8 0 -17 -4 -20 -9z"/>
<path d="M4200 7149 c0 -5 5 -7 10 -4 6 3 10 8 10 11 0 2 -4 4 -10 4 -5 0 -10
-5 -10 -11z"/>
<path d="M4420 7150 c0 -5 5 -10 10 -10 6 0 10 5 10 10 0 6 -4 10 -10 10 -5 0
-10 -4 -10 -10z"/>
<path d="M4222 7134 c-7 -8 -8 -14 -3 -14 10 0 25 19 20 25 -2 1 -10 -3 -17
-11z"/>
<path d="M2890 7080 c-10 -24 -10 -33 0 -45 14 -17 30 -20 30 -4 0 5 -5 7 -12
3 -8 -5 -9 4 -4 34 7 50 3 53 -14 12z"/>
<path d="M2998 7103 c-10 -2 -18 -8 -18 -13 0 -4 9 -6 20 -3 11 3 20 9 20 14
0 5 -1 8 -2 8 -2 -1 -11 -3 -20 -6z"/>
<path d="M4193 7061 c1 -14 9 -26 17 -28 10 -3 11 -2 4 4 -7 4 -14 17 -17 28
-5 16 -5 15 -4 -4z"/>
<path d="M2825 7056 c-3 -9 -7 -22 -9 -30 -3 -9 -13 -12 -25 -9 -12 3 -21 1
-21 -6 0 -6 11 -11 24 -11 17 0 27 9 36 30 7 17 10 33 7 37 -4 3 -9 -2 -12
-11z"/>
<path d="M3027 7063 c-5 -7 -5 -13 -1 -13 3 0 -1 -11 -10 -25 -9 -14 -12 -25
-7 -25 16 0 33 29 29 52 -2 16 -6 19 -11 11z"/>
<path d="M4489 7068 c-7 -25 -5 -36 6 -31 8 2 11 11 8 19 -5 12 -12 18 -14 12z"/>
<path d="M2720 7020 c0 -5 5 -10 10 -10 6 0 10 5 10 10 0 6 -4 10 -10 10 -5 0
-10 -4 -10 -10z"/>
<path d="M4378 7023 c7 -3 16 -2 19 1 4 3 -2 6 -13 5 -11 0 -14 -3 -6 -6z"/>
<path d="M4207 7013 c-20 -19 5 -23 136 -21 l142 2 -138 3 c-86 2 -136 7 -132
13 7 11 2 13 -8 3z"/>
<path d="M9018 6973 c39 -2 105 -2 145 0 39 1 7 3 -73 3 -80 0 -112 -2 -72 -3z"/>
<path d="M8956 6902 c-2 -4 12 -6 32 -4 56 5 62 10 15 11 -23 1 -44 -3 -47 -7z"/>
<path d="M9189 6899 c16 -6 28 -6 35 1 7 7 -1 10 -24 9 -33 0 -34 -1 -11 -10z"/>
<path d="M9020 6850 c-65 -6 -57 -7 62 -8 82 -1 139 2 143 8 7 11 -77 11 -205
0z"/>
<path d="M5348 6820 c-3 -14 -11 -54 -18 -89 -15 -84 -40 -132 -103 -198 -57
-60 -140 -104 -230 -123 -97 -19 -131 -2 -177 90 -13 25 -39 70 -58 100 l-36
55 -22 -90 c-13 -49 -23 -105 -23 -122 -1 -18 -5 -33 -10 -33 -4 0 2 -38 14
-85 12 -47 19 -85 16 -85 -3 0 -1 -4 5 -8 5 -4 23 -24 38 -44 32 -43 29 -43
161 -3 117 36 189 87 200 142 4 21 10 32 12 26 3 -7 9 -13 14 -13 4 0 5 7 2
17 -4 11 -3 14 5 9 7 -4 10 -2 6 7 -3 8 2 20 10 27 9 7 13 16 10 21 -3 5 3 6
12 2 10 -4 15 -2 11 4 -3 5 12 27 34 49 22 21 47 53 55 69 12 25 13 26 8 5 -4
-19 -3 -22 5 -10 6 8 8 23 5 32 -3 10 4 26 16 38 11 11 18 26 14 32 -4 6 -3 8
3 5 12 -8 38 148 31 180 -4 15 -6 13 -10 -7z m-558 -655 c0 -5 -9 1 -20 15
-11 14 -20 30 -20 35 0 6 9 -1 20 -15 11 -14 20 -29 20 -35z"/>
<path d="M9178 6813 c7 -3 16 -2 19 1 4 3 -2 6 -13 5 -11 0 -14 -3 -6 -6z"/>
<path d="M4205 6800 c8 -13 -4 -50 -16 -50 -5 0 -7 12 -4 28 6 26 6 26 -9 8
-9 -11 -16 -34 -16 -52 0 -29 2 -31 28 -26 l27 6 -25 7 c-23 6 -23 7 -3 8 17
1 24 9 29 36 5 29 11 35 31 35 13 0 21 -4 18 -10 -3 -5 -13 -10 -21 -10 -8 0
-14 -6 -14 -14 0 -9 7 -12 20 -9 11 3 20 9 20 13 0 4 11 10 25 12 17 4 25 1
25 -8 0 -8 -9 -14 -21 -14 -11 0 -17 -4 -14 -10 4 -6 -5 -10 -20 -10 -21 0
-25 -4 -20 -19 5 -17 0 -21 -40 -26 -33 -6 -45 -12 -45 -25 0 -12 8 -16 30
-15 17 1 30 -2 30 -7 0 -4 -9 -8 -20 -8 -23 0 -26 -13 -7 -28 7 -6 97 -11 216
-14 113 -1 192 0 175 3 -16 4 -46 7 -66 8 -28 1 -38 5 -38 17 0 14 -10 15 -81
9 l-82 -7 6 23 c5 22 5 22 -7 7 -15 -21 -33 -23 -38 -6 -3 9 -9 8 -22 -5 -21
-21 -24 -21 -22 -1 1 19 60 84 76 84 6 0 8 -4 5 -10 -3 -6 1 -7 9 -4 9 3 16
17 16 29 0 50 8 55 81 55 l69 0 -5 -42 c-2 -24 -1 -37 2 -30 4 10 8 10 19 1 9
-8 14 -8 14 -1 0 6 -4 14 -10 17 -5 3 -10 17 -10 31 0 13 5 24 10 24 6 0 10
-9 10 -21 0 -18 21 -49 33 -49 2 0 -4 18 -15 40 l-20 40 -160 0 c-104 0 -157
-3 -153 -10z m20 -180 c3 -5 2 -10 -4 -10 -5 0 -13 5 -16 10 -3 6 -2 10 4 10
5 0 13 -4 16 -10z m138 -7 c-24 -2 -62 -2 -85 0 -24 2 -5 4 42 4 47 0 66 -2
43 -4z"/>
<path d="M2690 6770 c0 -5 7 -10 16 -10 8 0 12 5 9 10 -3 6 -10 10 -16 10 -5
0 -9 -4 -9 -10z"/>
<path d="M2790 6770 c-8 -5 -11 -12 -7 -16 4 -4 13 -2 19 4 15 15 7 24 -12 12z"/>
<path d="M2910 6760 c-16 -30 -25 -120 -12 -120 5 0 8 9 5 19 -6 22 15 93 30
102 6 4 5 9 -1 13 -6 4 -16 -3 -22 -14z"/>
<path d="M2987 6764 c-15 -16 -6 -23 13 -12 17 11 22 10 31 -2 9 -13 10 -13 6
0 -4 16 -38 25 -50 14z"/>
<path d="M3010 6723 c0 -5 4 -13 9 -18 5 -6 11 -19 14 -30 4 -16 5 -14 6 6 0
15 -6 32 -14 39 -8 7 -15 8 -15 3z"/>
<path d="M2785 6710 c-3 -5 -1 -10 4 -10 6 0 11 5 11 10 0 6 -2 10 -4 10 -3 0
-8 -4 -11 -10z"/>
<path d="M6127 6695 c10 -13 22 -25 27 -25 5 0 -1 11 -14 25 -30 32 -36 32
-13 0z"/>
<path d="M2990 6675 c0 -19 4 -35 8 -35 4 0 6 16 4 35 -2 19 -6 35 -8 35 -2 0
-4 -16 -4 -35z"/>
<path d="M2830 6681 c0 -10 -3 -27 -7 -37 -4 -11 -3 -15 4 -11 14 9 23 56 12
63 -5 3 -9 -4 -9 -15z"/>
<path d="M347 6679 c-26 -15 -49 -67 -41 -92 3 -12 18 -35 32 -50 20 -21 26
-36 23 -62 -1 -19 5 -49 14 -68 12 -26 17 -71 19 -183 2 -156 9 -188 55 -246
l22 -27 -42 -68 c-146 -236 -230 -548 -234 -868 -3 -160 -14 -224 -46 -256
-27 -27 -25 -81 4 -112 24 -27 173 -154 337 -289 58 -48 155 -129 217 -181 62
-51 150 -122 197 -158 59 -45 87 -72 91 -91 4 -15 17 -36 31 -47 23 -18 24
-23 24 -150 l0 -132 286 2 c313 1 304 3 304 -58 0 -32 1 -33 44 -33 l45 0 5
-42 c3 -24 8 -110 11 -193 3 -82 12 -271 20 -420 8 -148 17 -354 21 -457 l7
-188 -636 0 c-349 0 -644 -2 -654 -5 -10 -3 0 3 22 13 26 13 53 17 77 14 20
-2 49 -1 65 4 24 7 18 9 -37 14 -38 3 -77 0 -95 -6 -16 -7 -55 -15 -85 -19
-78 -9 -86 -12 -98 -41 -9 -18 -12 -227 -12 -760 0 -660 2 -740 16 -770 9 -19
26 -41 38 -49 18 -13 3 -15 -147 -15 -142 0 -167 -2 -167 -15 0 -13 546 -15
4855 -15 4309 0 4855 2 4855 15 0 13 -46 15 -355 15 l-355 0 0 23 c0 21 24
237 65 577 8 69 15 132 15 142 0 11 6 15 20 11 19 -5 20 0 20 71 l0 76 -466 0
-465 0 2 -70 2 -70 186 -2 186 -2 -158 -3 c-89 -2 -157 -8 -157 -13 0 -5 7
-58 15 -117 8 -59 22 -189 30 -288 9 -99 20 -209 25 -245 5 -36 10 -71 10 -77
0 -10 -99 -13 -461 -13 l-460 0 6 107 c3 60 10 223 15 363 15 373 39 901 50
1085 5 88 10 174 10 190 0 28 2 27 32 -25 96 -170 128 -221 178 -290 65 -87
145 -169 209 -213 72 -49 145 -81 331 -140 97 -31 196 -70 223 -87 27 -17 45
-24 40 -16 -23 40 -135 154 -217 220 -50 41 -164 136 -251 211 -241 207 -476
380 -503 370 -7 -2 -11 -1 -8 4 3 5 -1 14 -9 21 -20 17 -19 81 5 530 11 201
20 408 20 460 0 64 5 104 15 124 8 15 15 48 15 72 l0 44 240 0 240 0 0 120 0
120 -3204 0 c-2126 0 -3207 3 -3211 10 -3 6 -19 10 -34 10 -16 0 -35 8 -42 17
-12 15 -12 16 4 10 47 -19 53 -19 33 -3 -11 9 -16 16 -10 16 5 0 22 -12 37
-26 16 -14 31 -23 34 -20 7 7 3 11 -88 80 -35 26 -74 52 -86 57 -12 4 -112 9
-221 10 l-200 2 -5 58 c-11 124 -59 184 -279 347 -90 66 -222 164 -295 219
-72 54 -159 118 -192 143 l-61 45 6 50 c4 28 15 84 26 125 11 41 21 99 23 128
1 29 6 56 10 60 4 4 5 -9 2 -28 -13 -73 12 -2 37 105 32 137 132 530 145 570
5 17 15 49 21 72 10 40 14 44 55 54 43 11 96 56 135 117 15 24 16 23 45 -40
45 -96 171 -332 201 -377 l26 -41 28 43 c26 40 128 211 287 482 83 141 146
255 141 256 -1 0 -59 2 -128 4 -69 3 -194 7 -279 10 l-154 6 -44 36 c-24 20
-71 54 -103 77 -33 23 -84 58 -114 80 -60 42 -127 57 -165 37 -18 -10 -28 -9
-55 8 -36 23 -80 27 -109 10z m74 -24 l30 -16 -36 -33 c-19 -18 -35 -41 -35
-50 0 -25 -14 -19 -33 13 -22 38 -21 50 5 78 25 27 30 28 69 8z m112 -408 c56
-45 108 -87 116 -93 12 -10 11 -16 -8 -48 -13 -20 -25 -36 -28 -36 -3 0 -16 9
-30 20 -55 43 -114 13 -115 -58 -1 -54 -11 -45 -37 35 -15 46 -21 88 -21 157
0 89 8 146 18 118 2 -7 49 -50 105 -95z m-94 -468 c-16 -63 -65 -247 -109
-409 -43 -162 -84 -322 -91 -355 -9 -45 -14 -55 -19 -40 -8 22 -6 68 11 215
24 215 83 419 174 599 31 62 58 111 60 109 3 -2 -9 -56 -26 -119z m4 -1077
c73 -54 209 -154 302 -222 94 -68 194 -141 223 -162 65 -48 117 -117 137 -182
17 -57 18 -66 6 -85 -7 -11 -20 -5 -60 32 -69 61 -353 247 -379 247 -5 0 -21
14 -37 30 -16 17 -34 29 -40 26 -6 -2 -28 12 -50 31 -25 21 -29 28 -12 18 41
-26 32 -12 -20 31 -26 21 -43 32 -38 25 4 -8 -14 8 -41 35 -78 78 -142 134
-153 134 -6 0 -11 15 -11 33 0 46 -24 77 -61 77 -16 0 -29 5 -29 10 0 17 56
11 78 -9 12 -10 22 -29 23 -42 0 -13 4 -33 9 -44 6 -14 9 1 9 48 1 37 4 67 7
67 3 0 65 -44 137 -98z m435 -527 c56 -42 120 -92 142 -110 36 -30 38 -34 21
-40 -19 -6 -90 49 -311 238 l-45 38 45 -25 c25 -14 91 -60 148 -101z m257
-195 c10 -11 16 -20 13 -20 -3 0 -13 9 -23 20 -10 11 -16 20 -13 20 3 0 13 -9
23 -20z m2320 -438 c-83 -43 -173 -94 -201 -114 -130 -96 -180 -255 -124 -401
35 -92 52 -116 569 -771 95 -121 245 -315 332 -430 180 -239 205 -269 218
-261 5 3 49 17 97 30 48 14 118 39 156 55 39 17 74 30 79 30 5 0 20 -22 34
-50 24 -47 28 -50 63 -50 92 0 269 49 321 89 l23 18 -60 184 c-49 147 -202
652 -202 664 0 2 43 2 96 2 l95 -2 3 -68 c3 -96 10 -100 141 -100 l105 0 0
-37 c0 -37 0 -37 -50 -44 -62 -8 -110 -46 -110 -87 0 -39 24 -49 113 -49 l74
0 12 -37 c6 -21 15 -82 18 -136 6 -94 5 -98 -15 -104 -21 -5 -22 -11 -24 -182
l-3 -176 -80 -5 c-64 -4 -79 -8 -77 -20 2 -8 24 -59 49 -112 44 -93 46 -101
40 -163 -4 -40 -22 -104 -46 -167 -61 -154 -131 -248 -186 -248 -23 0 -23 1
-27 168 -4 156 -17 232 -38 232 -4 0 -18 -26 -30 -58 -39 -97 -105 -188 -168
-231 -152 -102 -300 -171 -362 -170 -14 0 1 7 33 15 59 14 111 37 121 53 3 5
-22 -3 -57 -17 -42 -18 -86 -27 -137 -30 -75 -3 -75 -3 -49 15 57 40 132 111
172 163 66 85 85 122 32 63 -52 -59 -201 -182 -285 -235 -30 -19 -109 -54
-174 -77 -130 -45 -166 -64 -166 -86 0 -13 -71 -15 -545 -15 l-545 0 0 113 c0
153 26 954 55 1737 8 212 20 563 26 780 6 217 12 397 14 400 2 3 187 4 412 2
l408 -3 -150 -77z m-995 -69 c0 -21 4 -121 10 -223 5 -102 14 -300 20 -440 6
-140 22 -511 36 -825 23 -526 53 -1286 54 -1362 l0 -33 -282 0 -281 0 24 26
c23 24 24 34 29 182 4 86 7 423 8 747 1 440 -2 599 -11 625 -11 30 -55 71 -90
83 -8 2 -5 157 12 623 13 340 25 622 28 627 2 4 103 7 224 7 l219 0 0 -37z
m4810 -5 c0 -24 5 -122 10 -218 21 -389 58 -1278 85 -2025 8 -231 17 -468 20
-527 l6 -108 -403 0 -403 1 28 20 c87 65 73 201 -24 251 -28 14 -38 27 -43 53
-5 23 -19 44 -44 63 -34 28 -78 48 -327 152 -86 36 -363 143 -396 153 -13 4
-17 23 -21 83 -7 104 -23 115 -200 139 l-48 6 0 179 c0 156 -2 180 -17 188
-21 12 -24 143 -4 220 l13 52 78 0 c82 0 110 12 110 48 0 44 -66 92 -125 92
-23 0 -25 4 -25 40 l0 39 128 3 127 3 20 42 20 41 205 4 c223 3 235 6 308 69
30 27 39 29 115 29 166 0 287 57 343 164 45 83 54 159 61 493 l6 293 199 0
198 0 0 -42z m-1135 -215 c-3 -82 -8 -185 -11 -230 l-6 -83 -65 0 c-62 0 -65
1 -51 18 56 63 108 237 108 361 0 65 3 81 15 81 13 0 14 -21 10 -147z m-5585
-1531 c71 -58 176 -153 130 -118 -19 15 -72 55 -117 89 l-82 62 2 220 1 220 6
-214 5 -215 55 -44z m736 -227 c49 -37 85 -96 90 -147 4 -38 3 -40 -7 -18 -40
87 -53 107 -80 123 -42 24 -53 21 -26 -6 14 -14 25 -18 29 -12 5 6 8 3 8 -7 0
-10 6 -18 13 -18 16 0 37 -63 37 -110 0 -51 -50 -149 -80 -157 -14 -4 -31 -6
-37 -5 -7 2 -13 -2 -13 -8 0 -5 -19 -10 -42 -10 -29 0 -38 3 -29 9 11 7 9 10
-10 14 -15 3 -8 5 19 6 68 2 128 35 152 85 36 74 23 122 -52 205 -35 38 -42
41 -89 41 -72 0 -115 -28 -145 -97 -24 -54 -24 -78 1 -148 6 -16 5 -17 -4 -5
-26 36 -33 91 -16 132 8 22 13 48 10 58 -3 10 0 22 6 26 8 5 9 3 4 -6 -5 -8
-4 -11 3 -6 6 4 9 13 6 20 -5 13 56 59 92 69 44 13 125 -1 160 -28z m-485 8
c13 -17 13 -17 -6 -3 -11 8 -22 16 -24 17 -2 2 0 3 6 3 6 0 17 -8 24 -17z
m455 -97 c35 -35 42 -73 25 -136 -9 -32 -63 -60 -118 -60 -36 0 -46 5 -66 33
-42 57 -57 121 -29 132 8 3 11 12 7 24 -3 11 -1 22 4 26 7 4 8 -1 4 -12 -5
-15 -2 -14 18 5 18 17 35 22 72 22 42 0 54 -5 83 -34z m-259 -18 c-3 -8 -6 -5
-6 6 -1 11 2 17 5 13 3 -3 4 -12 1 -19z m-57 -8 c0 -5 -2 -10 -4 -10 -3 0 -8
5 -11 10 -3 6 -1 10 4 10 6 0 11 -4 11 -10z m420 -137 c-11 -17 -11 -17 -6 0
3 10 6 24 7 30 0 9 2 9 5 0 3 -7 0 -20 -6 -30z m4100 -90 c106 -143 164 -199
216 -208 69 -12 85 -26 69 -62 -5 -10 -7 -28 -6 -40 1 -13 -2 -23 -7 -23 -15
0 -32 -48 -32 -91 0 -46 11 -72 48 -111 l26 -28 -343 0 -343 0 40 45 c30 34
51 75 81 161 22 63 59 145 81 181 57 94 52 151 -22 255 l-18 27 37 3 c92 8 82
14 173 -109z m-4429 40 c13 -16 12 -17 -3 -4 -10 7 -18 15 -18 17 0 8 8 3 21
-13z m4840 -88 c101 -42 263 -107 359 -145 96 -39 181 -74 189 -79 11 -7 10
-13 -9 -32 -67 -71 -65 -184 6 -237 l29 -21 -260 -1 -259 0 32 29 c78 72 67
185 -23 235 -21 12 -48 35 -59 51 -12 16 -46 63 -77 105 -69 94 -121 170 -116
170 3 0 87 -34 188 -75z m-4762 39 c13 -12 -8 -10 -29 2 l-25 15 25 -7 c14 -3
27 -8 29 -10z m3865 -385 c-6 -10 -65 -39 -80 -39 -3 0 -4 5 -2 12 2 6 22 17
44 24 21 6 40 12 42 13 2 1 0 -4 -4 -10z m-4414 -105 c7 -19 10 -40 7 -47 -2
-6 -7 5 -11 25 -4 24 -19 47 -41 67 -45 39 -45 50 -1 16 19 -15 40 -42 46 -61z
m1250 63 c0 -2 -12 -14 -27 -28 l-28 -24 24 28 c23 25 31 32 31 24z m2328 -14
c-21 -2 -55 -2 -75 0 -21 2 -4 4 37 4 41 0 58 -2 38 -4z m622 -73 l0 -40 -127
1 c-71 0 -121 3 -113 7 15 6 219 68 233 71 4 0 7 -17 7 -39z"/>
<path d="M1120 1360 c0 -11 6 -19 13 -17 8 1 12 -11 11 -40 -1 -38 2 -43 21
-43 23 0 55 37 55 65 0 8 -9 15 -20 15 -11 0 -25 9 -32 20 -7 11 -21 20 -30
20 -11 0 -18 -8 -18 -20z"/>
<path d="M2952 6665 c0 -16 2 -22 5 -12 2 9 2 23 0 30 -3 6 -5 -1 -5 -18z"/>
<path d="M2781 6664 c0 -11 3 -14 6 -6 3 7 2 16 -1 19 -3 4 -6 -2 -5 -13z"/>
<path d="M2722 6654 c-7 -8 -8 -14 -3 -14 10 0 25 19 20 25 -2 1 -10 -3 -17
-11z"/>
<path d="M4645 6660 c-3 -6 1 -7 9 -4 18 7 21 14 7 14 -6 0 -13 -4 -16 -10z"/>
<path d="M6180 6630 c6 -11 13 -20 16 -20 2 0 0 9 -6 20 -6 11 -13 20 -16 20
-2 0 0 -9 6 -20z"/>
<path d="M4853 6593 c-24 -2 -43 -9 -43 -15 0 -13 78 -4 93 11 6 6 7 10 2 9
-6 -1 -29 -3 -52 -5z"/>
<path d="M8127 6413 c-20 -21 -27 -24 -27 -11 0 9 -6 18 -12 20 -7 2 -129 2
-270 0 l-256 -4 -7 -73 c-4 -41 -5 -151 -3 -246 l4 -173 29 -8 c17 -5 153 -7
302 -6 l273 3 0 263 c0 144 -1 262 -3 262 -1 0 -15 -12 -30 -27z m-243 -148
c18 -18 30 -54 22 -63 -4 -3 -20 5 -37 17 -17 13 -33 20 -36 18 -11 -12 10
-48 38 -62 36 -19 47 -59 28 -94 -12 -21 -22 -26 -53 -26 -30 0 -40 5 -54 28
-15 24 -15 29 -2 37 23 14 28 12 32 -12 5 -34 42 -31 46 4 2 20 -2 28 -20 33
-38 12 -58 36 -58 71 0 52 59 83 94 49z"/>
<path d="M7268 6423 l-228 -3 0 -255 0 -255 233 2 232 3 3 258 c1 141 -1 256
-5 255 -5 -2 -110 -4 -235 -5z m12 -160 c0 -5 2 -44 5 -87 5 -95 -1 -128 -24
-124 -24 5 -35 187 -12 206 17 14 31 16 31 5z"/>
<path d="M8535 6423 l-260 -3 0 -249 0 -249 55 -6 c42 -4 303 -3 483 3 16 1
17 20 17 256 0 237 -1 255 -17 253 -10 -2 -135 -4 -278 -5z m5 -187 c0 -44 0
-45 38 -48 29 -2 37 -7 37 -22 0 -16 -7 -20 -35 -20 -34 -1 -35 -2 -38 -43 -3
-35 -7 -43 -23 -43 -16 0 -19 7 -19 45 l0 45 -46 0 c-38 0 -45 3 -42 18 2 12
15 18 46 20 41 3 42 4 42 41 0 40 6 51 27 51 9 0 13 -14 13 -44z"/>
<path d="M6980 6187 l0 -237 -260 0 c-224 0 -260 -2 -260 -15 0 -13 37 -15
269 -15 l270 0 -6 248 c-3 136 -7 249 -9 251 -2 2 -4 -102 -4 -232z"/>
<path d="M4201 6403 c4 -24 -2 -53 -11 -53 -6 0 -8 11 -4 28 6 26 6 26 -9 7
-11 -13 -16 -40 -16 -80 1 -49 2 -55 9 -32 5 16 6 35 4 42 -4 9 4 12 28 9 19
-2 28 0 20 4 -8 6 -10 19 -6 40 l7 32 88 0 c53 0 89 -4 89 -10 0 -5 18 -10 40
-10 22 0 40 4 40 10 0 5 28 11 63 13 34 2 -29 4 -140 5 -112 1 -202 -1 -202
-5z"/>
<path d="M2670 6360 c0 -5 7 -7 15 -4 8 4 15 8 15 10 0 2 -7 4 -15 4 -8 0 -15
-4 -15 -10z"/>
<path d="M4231 6354 c0 -11 3 -14 6 -6 3 7 2 16 -1 19 -3 4 -6 -2 -5 -13z"/>
<path d="M2857 6353 c-4 -3 -7 -11 -7 -17 0 -6 5 -5 12 2 6 6 9 14 7 17 -3 3
-9 2 -12 -2z"/>
<path d="M4320 6330 c0 -5 18 -10 40 -10 22 0 40 5 40 10 0 6 -18 10 -40 10
-22 0 -40 -4 -40 -10z"/>
<path d="M2678 6313 c-20 -5 -24 -49 -7 -73 9 -12 10 -10 6 8 -3 13 -3 30 0
38 6 17 29 18 37 2 3 -7 5 -4 3 6 -2 21 -13 26 -39 19z"/>
<path d="M4250 6306 c0 -18 26 -39 39 -32 5 3 7 15 4 26 -6 22 -43 28 -43 6z"/>
<path d="M4200 6299 c0 -5 5 -7 10 -4 6 3 10 8 10 11 0 2 -4 4 -10 4 -5 0 -10
-5 -10 -11z"/>
<path d="M4671 6274 c0 -11 3 -14 6 -6 3 7 2 16 -1 19 -3 4 -6 -2 -5 -13z"/>
<path d="M4480 6261 c0 -12 6 -21 15 -21 8 0 15 4 15 9 0 5 -7 14 -15 21 -13
10 -15 9 -15 -9z"/>
<path d="M4190 6260 c0 -5 5 -10 10 -10 6 0 10 5 10 10 0 6 -4 10 -10 10 -5 0
-10 -4 -10 -10z"/>
<path d="M4182 6230 c4 -13 37 -15 214 -15 148 -1 164 0 54 2 -102 3 -150 7
-140 13 10 6 -4 9 -44 8 -38 -1 -52 -4 -40 -9 18 -7 18 -8 -1 -8 -12 -1 -27 5
-34 12 -11 10 -13 9 -9 -3z"/>
<path d="M5163 6173 l-42 -39 -6 33 c-9 47 -21 33 -29 -33 -4 -36 -32 -115
-78 -223 -142 -332 -178 -478 -178 -724 l0 -98 66 -29 c84 -38 97 -38 87 -2
-4 15 -8 113 -8 217 0 174 2 199 27 295 41 162 123 381 194 523 38 76 39 77
21 101 -11 16 -16 14 -54 -21z"/>
<path d="M4377 6030 c-218 -6 -217 -5 -217 -98 0 -52 12 -90 34 -104 6 -4 85
-7 176 -6 91 1 135 3 98 5 -38 2 -68 7 -68 12 0 9 -66 8 -76 -2 -4 -4 -33 -7
-64 -7 -63 0 -78 10 -84 56 -2 16 -1 23 1 15 7 -20 53 -64 53 -51 0 6 4 8 10
5 6 -3 7 1 4 9 -5 13 2 16 34 16 23 0 43 4 46 9 3 5 39 12 78 16 40 5 67 10
61 12 -7 3 -13 13 -13 24 0 10 -4 19 -10 19 -5 0 -10 9 -10 20 0 15 7 20 25
20 14 0 25 -5 25 -11 0 -15 31 -38 51 -39 18 0 29 20 29 51 0 21 34 27 46 8 8
-14 -26 -90 -37 -83 -5 3 -6 -1 -3 -9 2 -7 1 -33 -5 -56 -14 -63 -3 -43 31 56
17 48 34 93 39 99 14 17 -37 20 -254 14z m-143 -19 c3 -5 -5 -8 -19 -8 -14 0
-22 3 -19 8 3 5 11 9 19 9 8 0 16 -4 19 -9z m166 -32 c0 -17 -5 -20 -37 -17
-25 2 -37 8 -39 21 -2 14 5 17 37 17 33 0 39 -3 39 -21z m-213 -41 c-3 -8 -6
-5 -6 6 -1 11 2 17 5 13 3 -3 4 -12 1 -19z m46 -12 c4 -10 1 -13 -9 -9 -9 3
-14 -1 -14 -13 0 -9 -3 -15 -6 -11 -8 7 5 47 16 47 4 0 10 -7 13 -14z"/>
<path d="M4571 6005 c0 -5 3 -16 8 -23 7 -11 9 -10 14 3 4 9 3 14 -2 10 -5 -3
-12 1 -14 7 -3 7 -6 9 -6 3z"/>
<path d="M4480 5906 c0 -14 37 -29 52 -20 20 13 7 34 -22 34 -19 0 -30 -5 -30
-14z"/>
<path d="M8130 5863 c-8 -3 -18 -11 -22 -17 -5 -8 -8 -7 -8 2 0 9 -62 12 -274
12 l-275 0 2 -255 2 -255 303 0 302 0 1 133 c5 414 6 394 -31 380z m-272 -161
c0 -4 0 -26 1 -48 1 -39 3 -41 27 -36 22 4 25 2 22 -19 -2 -16 -11 -25 -25
-27 -24 -3 -41 -41 -28 -61 3 -7 -2 -11 -14 -11 -16 0 -20 8 -23 38 -3 34 -6
37 -33 37 -23 0 -31 5 -33 23 -3 19 1 22 32 22 36 0 36 0 36 43 0 24 3 46 6
50 7 7 34 -2 32 -11z"/>
<path d="M8530 5863 l-255 -3 0 -255 0 -255 278 0 277 0 0 260 0 260 -22 -2
c-13 -2 -138 -4 -278 -5z m80 -174 c0 -6 -21 -51 -46 -100 -33 -65 -51 -89
-65 -89 -26 0 -25 4 21 88 22 40 40 75 40 77 0 2 -19 5 -42 7 -23 2 -43 9 -46
16 -3 9 15 12 67 12 45 0 71 -4 71 -11z"/>
<path d="M4265 5850 c3 -5 17 -10 31 -10 13 0 24 5 24 10 0 6 -14 10 -31 10
-17 0 -28 -4 -24 -10z"/>
<path d="M7040 5622 c1 -131 0 -245 -2 -253 -3 -12 34 -14 235 -17 l237 -2 0
255 0 255 -235 0 -236 0 1 -238z m312 52 c3 -3 3 -14 1 -25 -5 -18 -13 -19
-97 -17 -86 3 -91 4 -94 26 -3 21 -1 22 91 22 51 0 96 -3 99 -6z m6 -126 c-3
-22 -7 -23 -98 -23 -91 0 -95 1 -98 23 -3 22 -1 22 98 22 99 0 101 0 98 -22z"/>
<path d="M4210 5623 c-31 -11 -50 -47 -50 -98 0 -27 4 -56 9 -63 5 -8 6 7 3
36 -3 36 0 57 12 73 13 19 16 20 16 6 0 -9 -4 -17 -8 -17 -14 0 -10 -62 6 -90
l14 -25 -7 30 c-8 35 -8 35 -6 58 0 9 6 17 11 17 6 0 8 -11 4 -25 -4 -15 -2
-25 5 -25 6 0 11 11 11 25 0 19 5 25 23 25 18 0 19 2 7 10 -11 7 -5 10 23 10
20 0 36 -3 36 -7 -5 -28 3 -43 22 -43 17 0 20 4 15 23 -3 12 -6 30 -6 40 0 11
-8 17 -25 17 -14 0 -25 3 -25 8 0 4 39 9 86 10 94 4 107 -2 98 -48 -4 -19 -1
-17 11 9 8 18 15 37 15 42 0 10 -274 11 -300 2z m20 -33 c6 -11 7 -20 3 -20
-5 0 -14 9 -21 20 -7 11 -8 20 -2 20 5 0 14 -9 20 -20z m53 13 c-7 -2 -21 -2
-30 0 -10 3 -4 5 12 5 17 0 24 -2 18 -5z"/>
<path d="M4237 5500 c-7 -28 7 -33 32 -11 27 24 27 31 -3 31 -15 0 -26 -7 -29
-20z"/>
<path d="M4440 5505 c0 -8 2 -15 4 -15 2 0 6 7 10 15 3 8 1 15 -4 15 -6 0 -10
-7 -10 -15z"/>
<path d="M4451 5469 c-6 -18 -9 -34 -7 -36 2 -2 9 10 15 28 6 18 9 34 7 36 -2
2 -9 -10 -15 -28z"/>
<path d="M4220 5446 c0 -13 -5 -16 -22 -11 -16 4 -19 3 -9 -3 7 -5 41 -9 75
-9 40 0 47 2 21 4 -22 2 -46 11 -52 20 -12 15 -13 15 -13 -1z"/>
<path d="M4408 5413 c7 -3 16 -2 19 1 4 3 -2 6 -13 5 -11 0 -14 -3 -6 -6z"/>
<path d="M4190 5302 c0 -16 -7 -49 -15 -72 -8 -23 -14 -59 -14 -79 1 -31 3
-29 9 15 12 83 15 84 88 56 34 -13 62 -30 62 -37 0 -19 21 -30 29 -16 5 8 80
-20 247 -91 l239 -104 12 -119 c7 -66 17 -142 23 -170 10 -49 63 -155 78 -155
4 0 20 19 35 42 29 46 32 74 20 212 l-6 77 -44 21 c-40 19 -83 60 -83 79 0 5
6 6 14 3 12 -5 56 39 56 55 0 4 -55 31 -122 61 -68 29 -181 79 -253 110 -71
32 -158 67 -193 79 -35 12 -73 28 -85 35 -12 8 -39 18 -59 21 -37 7 -38 6 -38
-23z"/>
<path d="M7843 5293 l-293 -3 0 -250 0 -250 305 0 305 0 2 240 c0 132 1 246 2
252 1 7 -6 13 -14 13 -8 0 -147 -1 -307 -2z m-47 -171 c6 -4 18 -20 26 -36
l16 -30 6 32 c4 18 15 34 27 37 33 11 38 -4 18 -51 -20 -43 -20 -47 -4 -80 9
-20 14 -43 10 -52 -5 -14 -11 -11 -34 17 l-27 33 -17 -26 c-17 -25 -57 -36
-57 -15 0 5 10 27 22 48 l22 38 -22 37 c-26 45 -19 70 14 48z"/>
<path d="M8465 5290 l-190 -5 -4 -247 -3 -248 281 0 281 0 0 255 0 255 -87 -2
c-49 -1 -173 -5 -278 -8z m40 -190 c9 -16 18 -30 20 -30 2 0 11 14 20 30 16
31 45 41 45 15 0 -8 -8 -31 -17 -50 -17 -35 -17 -38 0 -67 9 -16 17 -36 17
-44 0 -23 -26 -16 -44 11 -9 14 -20 25 -25 25 -4 0 -14 -11 -21 -25 -8 -16
-22 -25 -37 -25 -29 0 -29 7 2 52 14 20 25 40 25 43 0 3 -11 22 -25 42 -13 20
-22 40 -19 45 12 18 44 7 59 -22z"/>
<path d="M7298 5283 c12 -2 32 -2 45 0 12 2 2 4 -23 4 -25 0 -35 -2 -22 -4z"/>
<path d="M7490 5059 l0 -231 -62 2 c-35 1 -136 2 -225 1 -156 -1 -163 -2 -163
-21 0 -19 7 -20 235 -20 l235 0 0 250 c0 160 -4 250 -10 250 -6 0 -10 -84 -10
-231z"/>
<path d="M4200 5215 c0 -8 8 -11 20 -8 11 3 20 7 20 8 0 1 -9 5 -20 8 -12 3
-20 0 -20 -8z"/>
<path d="M4270 5160 c0 -5 5 -10 10 -10 6 0 10 5 10 10 0 6 -4 10 -10 10 -5 0
-10 -4 -10 -10z"/>
<path d="M5897 5003 c-32 -144 -71 -352 -66 -357 8 -9 209 -29 216 -23 9 10
-120 447 -131 447 -2 0 -11 -30 -19 -67z"/>
<path d="M4960 4955 l-23 -25 25 0 c13 0 45 -11 71 -23 50 -26 57 -22 57 28 0
18 -8 25 -44 34 -59 15 -59 15 -86 -14z"/>
<path d="M5166 4913 c-6 -14 -5 -15 5 -6 7 7 10 15 7 18 -3 3 -9 -2 -12 -12z"/>
<path d="M7040 4870 c0 -5 5 -10 11 -10 5 0 7 5 4 10 -3 6 -8 10 -11 10 -2 0
-4 -4 -4 -10z"/>
<path d="M7068 4843 c7 -3 16 -2 19 1 4 3 -2 6 -13 5 -11 0 -14 -3 -6 -6z"/>
<path d="M7556 4732 c-2 -2 -2 -99 0 -215 l4 -212 302 0 302 0 1 215 0 215
-303 0 c-166 1 -304 -1 -306 -3z m424 -212 c0 -19 -7 -20 -119 -20 -110 0
-119 1 -124 20 -5 19 0 20 119 20 117 0 124 -1 124 -20z"/>
<path d="M8274 4727 c-2 -7 -3 -105 -2 -217 l3 -205 278 -3 277 -2 0 220 0
220 -275 0 c-214 0 -277 -3 -281 -13z"/>
<path d="M7488 4523 c-1 -128 -4 -177 -8 -138 l-7 60 -1 -55 -2 -56 -215 4
c-192 4 -215 2 -215 -12 0 -14 17 -16 123 -16 67 0 173 -3 235 -7 l112 -6 0
211 c0 135 -4 212 -10 212 -6 0 -11 -74 -12 -197z"/>
<path d="M6818 4673 c12 -2 32 -2 45 0 12 2 2 4 -23 4 -25 0 -35 -2 -22 -4z"/>
<path d="M7363 4560 c0 -47 2 -66 4 -42 2 23 2 61 0 85 -2 23 -4 4 -4 -43z"/>
<path d="M6900 4610 c-13 -9 -13 -11 0 -20 8 -5 17 -10 20 -10 3 0 12 5 20 10
13 9 13 11 0 20 -8 5 -17 10 -20 10 -3 0 -12 -5 -20 -10z"/>
<path d="M5653 4560 c0 -30 2 -43 4 -27 2 15 2 39 0 55 -2 15 -4 2 -4 -28z"/>
<path d="M7043 4520 c0 -25 2 -35 4 -22 2 12 2 32 0 45 -2 12 -4 2 -4 -23z"/>
<path d="M7200 4495 c0 -11 11 -15 40 -15 29 0 40 4 40 15 0 11 -11 15 -40 15
-29 0 -40 -4 -40 -15z"/>
<path d="M7383 4440 c0 -22 3 -40 7 -40 4 0 7 18 8 40 1 22 -2 40 -7 40 -4 0
-8 -18 -8 -40z"/>
<path d="M7422 4440 c0 -14 2 -19 5 -12 2 6 2 18 0 25 -3 6 -5 1 -5 -13z"/>
<path d="M7040 4375 c0 -19 5 -25 23 -25 21 1 22 1 3 15 -11 8 -14 15 -8 15 7
0 12 5 12 10 0 6 -7 10 -15 10 -9 0 -15 -9 -15 -25z"/>
<path d="M7113 4368 c8 -12 24 -18 49 -18 52 0 48 20 -4 22 l-43 1 45 7 45 8
-51 -1 c-48 0 -51 -2 -41 -19z"/>
<path d="M7360 4364 c0 -10 14 -14 50 -14 29 0 50 5 50 11 0 5 -4 7 -10 4 -5
-3 -10 -2 -10 3 0 4 -18 9 -40 9 -28 0 -40 -4 -40 -13z"/>
<path d="M8771 4058 c10 -35 5 -52 -6 -19 -3 12 -11 19 -16 15 -6 -3 -8 -13
-5 -21 3 -8 1 -11 -4 -8 -6 3 -10 5 -10 3 0 -2 -36 -85 -81 -184 -200 -444
-264 -653 -300 -965 -14 -128 -6 -199 51 -434 51 -213 90 -349 135 -470 20
-55 52 -141 70 -190 18 -50 39 -120 46 -155 l12 -64 17 99 c9 55 37 170 62
255 61 205 146 564 160 670 14 110 14 464 -1 655 -20 258 -69 620 -101 745 -7
25 -12 55 -12 67 0 12 -6 24 -13 27 -10 4 -11 -2 -4 -26z"/>
<path d="M7660 3223 c0 -23 15 -39 23 -26 3 5 -1 17 -9 28 -14 18 -14 18 -14
-2z"/>
<path d="M7700 3174 c0 -6 5 -15 12 -22 6 -6 8 -15 4 -19 -4 -4 -11 -1 -16 7
-6 8 -10 10 -10 5 0 -6 4 -15 9 -20 5 -6 12 -21 16 -35 5 -19 4 -21 -4 -10 -5
8 -13 11 -17 7 -4 -4 -2 -13 4 -19 7 -7 12 -17 12 -22 0 -6 -10 0 -21 14 l-20
25 6 -60 c10 -99 55 -304 86 -398 71 -215 152 -331 345 -492 251 -211 327
-279 351 -319 44 -70 135 -206 138 -206 3 0 -11 39 -112 320 -47 131 -167 403
-211 480 -34 60 -131 208 -156 241 -12 14 -32 41 -46 59 -58 79 -108 135 -118
133 -6 -2 -16 7 -22 20 -11 21 -10 21 4 3 9 -11 16 -15 16 -10 0 6 -13 23 -30
39 -29 28 -43 24 -17 -5 10 -12 9 -12 -6 0 -10 7 -16 19 -13 27 5 12 -72 124
-95 138 -18 12 -9 -21 10 -35 11 -7 18 -17 15 -22 -9 -14 -47 41 -42 60 3 10
-11 41 -33 72 -22 29 -39 49 -39 44z m60 -99 c0 -5 -5 -3 -10 5 -5 8 -10 20
-10 25 0 6 5 3 10 -5 5 -8 10 -19 10 -25z m-16 -21 c3 -8 2 -12 -4 -9 -6 3
-10 10 -10 16 0 14 7 11 14 -7z m83 -83 c0 -11 -5 -18 -9 -15 -4 3 -5 11 -1
19 7 21 12 19 10 -4z m43 -42 c0 -6 -4 -7 -10 -4 -5 3 -10 11 -10 16 0 6 5 7
10 4 6 -3 10 -11 10 -16z"/>
<path d="M9940 3170 c-51 -32 -207 -126 -273 -166 -44 -26 -74 -50 -70 -56 3
-7 1 -8 -5 -4 -14 8 -175 -102 -277 -188 -101 -86 -257 -246 -296 -303 -18
-26 -36 -50 -39 -53 -12 -9 -98 -174 -125 -240 -15 -36 -36 -85 -47 -109 -11
-25 -26 -65 -34 -90 -20 -70 -66 -302 -61 -308 3 -2 8 6 12 19 11 36 136 290
141 285 2 -2 -7 -37 -21 -77 -29 -86 -33 -116 -8 -80 59 90 141 149 366 267
260 135 347 207 459 377 89 135 141 252 213 478 36 112 69 215 74 231 5 15 9
27 8 26 -1 0 -9 -4 -17 -9z m-18 -48 c-6 -2 -8 -10 -5 -18 6 -17 -9 -18 -25
-2 -10 10 -8 16 10 30 16 11 24 13 27 6 2 -7 -1 -14 -7 -16z m-42 -32 c0 -5
-7 -10 -15 -10 -8 0 -15 5 -15 10 0 6 7 10 15 10 8 0 15 -4 15 -10z m-43 -14
c0 -8 -6 -12 -15 -9 -11 5 -11 7 0 14 7 5 13 9 14 9 0 0 1 -6 1 -14z m52 -60
c-7 -31 -16 -56 -20 -56 -4 0 -5 -10 -1 -22 3 -13 1 -19 -5 -15 -12 7 -15 95
-4 102 5 2 6 -8 5 -23 l-4 -27 9 25 c5 14 12 38 16 54 3 15 8 26 11 23 3 -3 0
-31 -7 -61z m-69 34 c0 -5 -4 -12 -10 -15 -5 -3 -10 -18 -10 -32 0 -21 2 -23
15 -13 17 14 19 10 29 -47 8 -46 -12 -52 -43 -14 -20 24 -32 30 -46 26 -17 -6
-17 -5 -5 5 12 9 6 10 -27 5 -45 -7 -52 -1 -30 29 12 17 14 17 20 2 4 -9 11
-16 17 -16 7 0 8 6 0 19 -13 25 -13 31 1 31 5 0 8 -3 6 -7 -3 -5 1 -14 9 -21
11 -10 13 -7 10 19 -3 30 -2 31 26 25 26 -5 29 -4 18 9 -11 13 -10 14 4 9 9
-3 16 -10 16 -14z m-160 -80 c-24 -15 -37 -11 -16 5 11 8 22 12 25 9 3 -3 -1
-9 -9 -14z m30 -74 c0 -2 -8 -10 -17 -17 -16 -13 -17 -12 -4 4 13 16 21 21 21
13z m70 -16 c0 -5 -2 -10 -4 -10 -3 0 -8 5 -11 10 -3 6 -1 10 4 10 6 0 11 -4
11 -10z m-131 -3 c-2 -1 -13 -9 -24 -17 -19 -14 -19 -14 -6 3 7 9 18 17 24 17
6 0 8 -1 6 -3z m221 -13 c0 -12 -34 -64 -42 -64 -4 0 0 16 9 35 15 30 33 47
33 29z m-408 -41 c-6 -2 -9 -10 -6 -15 4 -7 2 -8 -5 -4 -6 4 -18 4 -24 -1 -7
-4 -4 0 6 10 11 9 24 17 31 16 7 0 6 -2 -2 -6z m-62 -43 c0 -5 -5 -10 -11 -10
-5 0 -7 5 -4 10 3 6 8 10 11 10 2 0 4 -4 4 -10z m210 6 c0 -3 -4 -8 -10 -11
-5 -3 -10 -1 -10 4 0 6 5 11 10 11 6 0 10 -2 10 -4z m185 -102 c-8 -20 -15
-39 -15 -42 0 -3 -3 -3 -6 0 -6 7 22 78 31 78 3 0 -2 -16 -10 -36z m-115 -218
c0 -3 -4 -8 -10 -11 -5 -3 -10 -1 -10 4 0 6 5 11 10 11 6 0 10 -2 10 -4z m-35
-27 c11 -17 -1 -21 -15 -4 -8 9 -8 15 -2 15 6 0 14 -5 17 -11z m-15 -38 c0
-15 -49 -68 -50 -53 0 6 4 12 10 12 5 0 6 7 3 17 -4 11 -3 14 5 9 7 -4 15 -1
18 8 7 18 14 21 14 7z m-70 -71 c5 8 10 10 10 4 0 -6 -7 -17 -15 -24 -8 -7
-15 -10 -15 -7 0 3 -3 14 -6 24 -5 15 -4 16 5 3 10 -13 12 -13 21 0z m-25 -40
c3 -5 1 -10 -4 -10 -6 0 -11 5 -11 10 0 6 2 10 4 10 3 0 8 -4 11 -10z"/>
<path d="M9698 2973 c7 -3 16 -2 19 1 4 3 -2 6 -13 5 -11 0 -14 -3 -6 -6z"/>
<path d="M815 2611 c-67 -41 -70 -48 -73 -217 l-3 -154 80 0 81 0 0 125 0 125
168 -2 167 -3 3 -122 3 -123 79 0 80 0 0 133 c0 118 -2 138 -22 177 -39 75
-58 80 -313 80 -197 0 -223 -2 -250 -19z"/>
<path d="M9825 2263 c-38 -28 -291 -150 -420 -203 -172 -69 -230 -99 -311
-161 -100 -75 -229 -196 -277 -259 -47 -60 -79 -110 -72 -110 2 0 30 16 63 34
74 44 126 65 332 133 246 82 383 162 513 303 58 63 203 267 195 275 -1 2 -12
-3 -23 -12z"/>
<path d="M1470 2250 c-10 -7 8 -9 60 -9 56 1 67 3 45 9 -44 11 -88 11 -105 0z"/>
<path d="M9853 578 c3 -10 37 -13 127 -13 90 0 124 3 128 13 3 9 -27 12 -128
12 -101 0 -131 -3 -127 -12z"/>
</g>
</svg>
