<svg width="30" height="30" viewBox="0 0 30 30" fill="none" xmlns="http://www.w3.org/2000/svg">
<path d="M29.9778 8.80332C29.8127 8.2109 28.9753 7.8199 28.2972 7.48223C28.0731 7.36967 27.8667 7.26896 27.7075 7.17417C26.4928 6.42773 25.2839 5.69115 24.081 4.96446C22.3119 3.88033 20.4603 2.84953 18.6854 1.85427L16.763 0.758295L16.48 0.592417C16.0349 0.257398 15.5064 0.0523877 14.9527 0C14.8197 0.00116573 14.6872 0.0170606 14.5576 0.0473944C13.47 0.375819 12.4338 0.856443 11.4795 1.47512C11.108 1.68839 10.7483 1.89574 10.4004 2.06754C7.71147 3.47749 4.82203 5.14218 1.55521 7.16825L1.33113 7.29858C0.741448 7.64811 -0.0664129 8.12796 0.00434865 8.88626C0.0928006 9.84005 1.30754 9.91114 1.83825 9.94668H2.33948V10.0592C2.33948 10.6517 2.28051 11.2974 2.92916 11.564C2.92916 12.8436 2.92916 14.1232 2.98223 15.4028C2.98223 16.9372 3.0353 18.5249 3.02941 20.0415H2.95865C2.45152 20.231 2.36897 20.5983 2.36897 21.0545C2.31 22.0083 2.33359 22.9976 2.36897 23.9514C2.36897 24.2358 2.36897 24.5201 2.36897 24.8045H2.25693C1.24858 25.077 1.28396 25.8827 1.31934 26.7358V26.8839C1.18058 26.9168 1.04455 26.9603 0.912456 27.0142C0.769325 27.0804 0.642363 27.1773 0.540489 27.2981C0.438616 27.4188 0.364304 27.5606 0.322776 27.7133C0.137162 28.2989 0.177148 28.9331 0.434817 29.4905C0.688379 29.9289 1.26037 29.9526 1.72621 29.9704H1.90902C2.25693 29.9704 2.59894 30 2.94685 30C3.45398 30 3.9611 30 4.47412 29.9645C4.98714 29.9289 5.36454 29.9645 5.8009 29.9645C6.66184 29.9645 7.52867 29.9645 8.3955 29.923C9.47461 29.923 10.5596 29.8815 11.6446 29.8815C12.9006 29.8815 14.0034 29.8815 14.9881 29.9704H23.45C24.9714 29.9704 26.4869 29.9704 28.0023 29.9704C28.2857 29.9906 28.5698 29.9419 28.8305 29.8285C29.0912 29.715 29.3209 29.5402 29.5001 29.3187C29.6469 29.0803 29.7338 28.8096 29.7533 28.5299C29.7728 28.2502 29.7244 27.97 29.6122 27.7133C29.5414 27.509 29.4178 27.3272 29.2541 27.1867C29.0904 27.0462 28.8924 26.9519 28.6805 26.9135V26.5877C28.6805 25.9479 28.6805 25.2844 28.0908 24.9467C27.9439 24.8653 27.7844 24.8093 27.6191 24.7808C27.6191 24.4372 27.6191 24.0936 27.6191 23.75C27.6191 22.8554 27.6191 21.9254 27.6191 21.019C27.6346 20.8045 27.587 20.5901 27.4821 20.4026C27.3773 20.2151 27.2198 20.0627 27.0294 19.9645C26.9763 17.9621 26.935 15.9656 26.8996 13.9633V11.481C27.0661 11.4351 27.2183 11.3474 27.3419 11.2263C27.5647 10.8945 27.6513 10.4892 27.5837 10.0948V9.90521C27.796 9.90521 28.0141 9.90521 28.2323 9.90521C28.5697 9.91423 28.9068 9.87838 29.2348 9.79858C29.5084 9.74161 29.7494 9.58021 29.907 9.34834C29.9982 9.18213 30.0235 8.98746 29.9778 8.80332ZM28.309 9.17062C28.0566 9.25617 27.7908 9.29432 27.5247 9.28318C27.2417 9.28318 26.935 9.28317 26.6697 9.23578C26.4043 9.18839 26.1861 9.19431 25.9856 9.19431C24.6117 9.19431 23.2436 9.15877 21.8579 9.12915C20.4721 9.09953 19.0274 9.06398 17.6122 9.06398H17.1581C14.7287 9.06398 12.2874 9.11137 9.92866 9.11137L1.86774 9.23578H1.76749C1.44317 9.23578 1.07167 9.19431 0.995011 9.01659C0.918353 8.83886 1.08936 8.51896 1.48445 8.05687C1.62183 7.93224 1.77937 7.83207 1.95029 7.76066L2.17437 7.6481L3.72523 6.74171C4.82793 6.0782 5.93063 5.42062 7.04513 4.77488C9.15028 3.56043 11.2378 2.44668 13.2427 1.47512L13.679 1.23815C14.0762 0.965545 14.5337 0.794701 15.0117 0.740521C15.0842 0.731769 15.1574 0.731769 15.2299 0.740521C15.5789 0.839372 15.9067 1.00205 16.197 1.22038C16.3326 1.30924 16.4623 1.3981 16.5861 1.46327C17.0166 1.70616 17.453 1.9372 17.8952 2.16825C18.4318 2.44668 18.992 2.76066 19.5228 3.05095C21.7223 4.32465 23.8451 5.63981 25.6554 6.74171L28.0141 8.21682L28.1144 8.27606C28.4151 8.45971 28.7041 8.65521 28.7041 8.81517C28.7041 8.97512 28.5625 9.05213 28.2795 9.17062H28.309ZM27.9847 26.8839H27.7842C27.4422 26.8839 27.0942 26.8839 26.764 26.9431C26.4338 27.0024 26.2156 26.9846 25.9915 26.9846H25.8854C25.0598 26.9846 24.1694 26.9372 23.1611 26.9372C22.1527 26.9372 20.997 26.9372 19.9119 26.9727H16.7748C15.507 26.9727 14.2451 26.9727 12.9773 26.9254C11.7095 26.878 10.4417 26.878 9.17977 26.878H6.7326C6.01319 26.878 5.29968 26.878 4.58027 26.878H3.9552C3.5955 26.878 3.20041 26.878 2.80533 26.878C2.51049 26.878 2.25103 26.878 2.01516 26.878C2.01516 26.096 2.14489 25.7346 2.95865 25.5687C3.25039 25.5155 3.54671 25.4917 3.84317 25.4976H6.49672C7.36945 25.4976 8.26576 25.4976 9.1149 25.5332L10.5242 25.5628C12.9596 25.6102 15.4717 25.6576 17.9483 25.6754H18.3021C19.2397 25.6754 20.1714 25.6754 21.1031 25.6339C21.9051 25.6339 22.7011 25.5924 23.4972 25.5865H25.7026C25.8677 25.5865 26.0623 25.5865 26.2923 25.5509C26.5223 25.5154 26.764 25.5036 26.9881 25.5036C27.1475 25.4981 27.3067 25.5181 27.4598 25.5628C28.0024 25.7287 28.0023 26.2796 28.0023 26.8128L27.9847 26.8839ZM18.939 29.3602L15.0058 29.3246C14.3041 29.2832 13.5375 29.2654 12.6471 29.2654C11.7567 29.2654 11.0491 29.2654 10.253 29.2654C9.45692 29.2654 8.65495 29.3009 7.85299 29.3009H6.98026C6.45545 29.3009 5.92474 29.3009 5.39402 29.3009C4.60975 29.3009 3.83137 29.3009 3.0353 29.3365H2.1154C1.52572 29.3365 1.11295 29.1943 1.0186 28.4716C0.94194 27.8791 0.936044 27.8199 1.54931 27.6836C2.05529 27.5935 2.56865 27.5518 3.08248 27.5592H4.18518C4.66872 27.5592 5.15815 27.5592 5.64169 27.5592H8.42498C9.52178 27.5592 10.6127 27.5592 11.7095 27.6126C12.8063 27.6659 13.8972 27.66 14.994 27.66H15.8844C18.4259 27.6244 21.1326 27.6066 24.4053 27.6007H27.9788C28.2923 27.5585 28.6099 27.6414 28.8633 27.8318C28.9304 27.9212 28.9777 28.0241 29.0021 28.1334C29.0265 28.2427 29.0274 28.3559 29.0048 28.4656C28.9399 29.1469 28.5272 29.2121 27.8254 29.2417C26.422 29.295 24.936 29.3187 23.1493 29.3187C21.7576 29.3602 20.3483 29.3424 18.939 29.3306V29.3602ZM3.01761 21.7417C3.01761 21.3507 2.97044 20.9419 3.31245 20.7583C3.43734 20.7146 3.56967 20.6965 3.70164 20.705H4.30901L5.53555 20.6635C5.71923 20.6566 5.90235 20.6388 6.08395 20.6102C6.38067 20.5625 6.67999 20.5328 6.98026 20.5213C7.12426 20.5134 7.26842 20.5336 7.40483 20.5806C7.77633 20.7464 7.74095 21.2855 7.71147 21.7239C7.71147 21.8306 7.71147 21.9313 7.71147 22.0201C7.71147 22.6896 7.71147 23.3649 7.71147 24.0403V24.7453H6.98026C6.60876 24.7453 6.20778 24.7453 5.8009 24.7038C5.39402 24.6623 4.79845 24.6623 4.29132 24.6623C3.89741 24.6598 3.50366 24.6796 3.11196 24.7216C3.11196 23.8507 3.11196 22.9858 3.11196 22.1149V22.0083C3.05299 21.9076 3.0471 21.8128 3.0412 21.7121L3.01761 21.7417ZM8.32473 10.1422V9.88152L11.9631 9.84597C11.9631 9.91706 11.9631 9.99408 11.9631 10.0711C11.9631 10.6635 11.8982 11.327 12.5527 11.5818C12.5527 12.8614 12.5685 14.139 12.5999 15.4147C12.5999 16.9491 12.6589 18.5367 12.653 20.0533H12.5763C12.0751 20.2429 11.9866 20.6102 11.9866 21.0663C11.9277 22.0261 11.9513 23.0154 11.9866 23.9692V24.7986C10.8073 24.7986 9.62793 24.7512 8.44857 24.7393C8.44857 24.4135 8.44857 24.0936 8.44857 23.7678C8.44857 22.8732 8.44857 21.9431 8.44857 21.0367C8.46681 20.8253 8.42359 20.6132 8.32415 20.426C8.22471 20.2388 8.07333 20.0847 7.88837 19.9822C7.8353 17.9799 7.79402 15.9716 7.75864 13.9692L7.6584 11.481C7.8249 11.4351 7.97707 11.3474 8.10066 11.2263C8.31894 10.8993 8.40536 10.5012 8.34242 10.1126L8.32473 10.1422ZM17.9483 10.1422C17.9483 10.0415 17.9483 9.94668 17.9483 9.85782C19.1277 9.85782 20.307 9.86769 21.4864 9.88744H21.6102C21.6102 9.95853 21.6102 10.0296 21.6102 10.1007C21.6102 10.6931 21.5512 11.3389 22.1999 11.6054C22.1999 12.8851 22.2294 14.1647 22.253 15.4443C22.253 16.9787 22.306 18.5663 22.3001 20.0829H22.2294C21.7223 20.2725 21.6397 20.6398 21.6397 21.096C21.5807 22.0557 21.6043 23.0391 21.6397 23.9988C21.6397 24.2832 21.6397 24.5912 21.6397 24.8756H21.1326C20.2009 24.8756 19.2692 24.9171 18.3375 24.9171H18.0427C18.0427 24.5379 18.0427 24.1588 18.0427 23.7796C18.0427 22.8851 18.0427 21.9609 18.0427 21.0604C18.0567 20.8462 18.0084 20.6324 17.9037 20.4452C17.799 20.258 17.6424 20.1054 17.453 20.0059C17.394 18.0154 17.3586 16.0249 17.3232 14.0403L17.282 11.481C17.4479 11.4337 17.5997 11.3462 17.7242 11.2263C17.942 10.8991 18.0283 10.5012 17.966 10.1126L17.9483 10.1422ZM12.6412 21.7417C12.6412 21.3507 12.5881 20.9419 12.936 20.7583C13.0589 20.7146 13.1893 20.6965 13.3193 20.705H13.9267L15.1532 20.6635C15.3369 20.6566 15.52 20.6388 15.7016 20.6102C15.9908 20.5677 16.2822 20.542 16.5744 20.5332C16.7203 20.525 16.8664 20.5451 17.0048 20.5924C17.3704 20.7583 17.335 21.2974 17.3115 21.7358C17.3115 21.8424 17.3115 21.9431 17.3115 22.032V24.9171C15.7665 24.9171 14.2215 24.8697 12.6766 24.84C12.6766 24.0107 12.6766 23.1813 12.6766 22.3519V22.0142C12.6766 21.9076 12.6707 21.8128 12.6648 21.7121L12.6412 21.7417ZM16.7218 19.9052C16.5272 19.9052 16.3149 19.9052 16.1321 19.9052C15.9493 19.9052 15.7252 19.9052 15.5424 19.9052H14.7699C14.5046 19.9052 14.2215 19.9052 13.9444 19.9052C13.6672 19.9052 13.5611 19.9052 13.3547 19.9052C13.3547 18.4005 13.3547 16.872 13.3016 15.3969C13.3016 14.1706 13.2604 12.9443 13.2545 11.718C13.4214 11.7272 13.5887 11.7272 13.7557 11.718C14.1449 11.718 14.5518 11.718 14.935 11.6588C15.1768 11.6588 15.4009 11.6232 15.6014 11.6173H15.8255C16.0436 11.6173 16.2972 11.6173 16.5567 11.6173L16.6038 13.9455C16.6392 15.9182 16.6746 17.8969 16.7277 19.8697L16.7218 19.9052ZM17.0048 10.8057C16.6959 10.9289 16.3635 10.9815 16.0318 10.9597H13.6024C13.1955 10.9597 12.9714 10.8945 12.8476 10.7642C12.7237 10.6339 12.6825 10.3199 12.6884 9.84597C13.8677 9.84597 15.1061 9.84597 16.3149 9.84597H17.2525V10C17.2525 10.2962 17.2525 10.6457 17.0048 10.8057ZM3.62498 11.7299C3.79391 11.7389 3.96319 11.7389 4.13211 11.7299C4.5213 11.7299 4.92818 11.7299 5.31147 11.6706C5.55324 11.6706 5.78321 11.6351 5.9837 11.6291H6.24906C6.46134 11.6291 6.7208 11.6291 6.98026 11.6291L7.02154 13.9988C7.05692 15.9735 7.10016 17.9483 7.15127 19.923C6.95668 19.923 6.75029 19.923 6.56159 19.923C6.37289 19.923 6.15471 19.923 5.97191 19.923H5.11687C4.84562 19.923 4.56847 19.923 4.29132 19.923C4.01417 19.923 3.90803 19.923 3.70164 19.923C3.70164 18.4182 3.67216 16.8839 3.64857 15.4028C3.64464 14.1785 3.63678 12.9542 3.62498 11.7299ZM22.8662 11.7299C23.0352 11.7389 23.2044 11.7389 23.3734 11.7299C23.7567 11.7299 24.1694 11.7299 24.5527 11.6706C24.7945 11.6706 25.0245 11.6351 25.225 11.6291H25.4903C25.7026 11.6291 25.9621 11.6291 26.2156 11.6291L26.2628 13.9988C26.2982 15.9735 26.3414 17.9483 26.3925 19.923C26.1979 19.923 25.9915 19.923 25.8028 19.923C25.6141 19.923 25.3901 19.923 25.2132 19.923H24.4407C24.1694 19.923 23.8923 19.923 23.6151 19.923C23.338 19.923 23.2318 19.923 23.0255 19.923C23.0255 18.4182 22.996 16.8839 22.9724 15.4028C22.9016 14.1765 22.9016 12.9562 22.8662 11.7299ZM7.63481 9.88744V9.98223C7.63481 10.3081 7.63481 10.6457 7.36945 10.8057C7.06051 10.9289 6.72816 10.9815 6.39648 10.9597H3.98469C3.12376 10.9597 3.06479 10.705 3.07068 9.95853L7.63481 9.88744ZM26.9527 21.7358C26.9527 21.8424 26.9527 21.9431 26.9527 22.032C26.9527 22.7014 26.9527 23.3768 26.9527 24.0521V24.7453H26.8112C26.4456 24.7453 26.0682 24.7453 25.7026 24.8045C25.337 24.8637 25.0716 24.8519 24.8063 24.8519H22.3001C22.3001 24.0047 22.3001 23.1576 22.3001 22.3104V22.0083C22.3001 21.9135 22.3001 21.8187 22.3001 21.718C22.3001 21.327 22.253 20.9182 22.595 20.7346C22.7179 20.6914 22.8483 20.6733 22.9783 20.6813H23.5915L24.8181 20.6398C25.0018 20.6329 25.1849 20.6151 25.3665 20.5865C25.6556 20.5437 25.9471 20.518 26.2392 20.5095C26.3832 20.5016 26.5274 20.5217 26.6638 20.5687C27.0294 20.7464 26.9822 21.2855 26.9527 21.7239V21.7358ZM26.8702 9.99407C26.8702 10.3199 26.8702 10.6576 26.6107 10.8175C26.3018 10.9407 25.9694 10.9934 25.6377 10.9716H23.2259C22.766 10.9716 22.536 10.8886 22.424 10.7227C22.3084 10.4523 22.2696 10.155 22.3119 9.86374H24.193C24.8888 9.86374 25.5847 9.86374 26.2746 9.86374H26.8643L26.8702 9.99407Z" fill="#333333"/>
<path d="M16.2736 2.31635C15.8379 2.13648 15.3707 2.04584 14.8997 2.04976C14.2274 2.01501 13.5617 2.19761 13.0003 2.57077C12.4389 2.94394 12.0113 3.48803 11.7803 4.12322C11.6495 4.53771 11.6043 4.97462 11.6473 5.40726C11.6903 5.8399 11.8206 6.2592 12.0304 6.63954C12.2401 7.01987 12.5247 7.35327 12.867 7.61937C13.2093 7.88547 13.602 8.07868 14.021 8.1872C14.3678 8.26269 14.7217 8.30042 15.0766 8.29976C16.6156 8.29976 17.7714 7.55332 18.1606 6.29739C18.4027 5.51703 18.3429 4.67364 17.9931 3.93565C17.6433 3.19767 17.0292 2.61941 16.2736 2.31635ZM14.2038 7.5C13.6094 7.33575 13.0959 6.95765 12.761 6.43766C12.4261 5.91768 12.2932 5.29213 12.3876 4.68009C12.5174 3.36493 13.7734 2.76659 14.8938 2.76659C15.3892 2.76129 15.8779 2.8815 16.3149 3.11611C16.8289 3.39725 17.2285 3.85065 17.444 4.39733C17.6595 4.94401 17.6773 5.54932 17.4943 6.10782C17.3164 6.58065 16.9898 6.98226 16.5641 7.2517C16.1384 7.52113 15.6368 7.64366 15.1355 7.60071C14.8222 7.60247 14.5096 7.56869 14.2038 7.5Z" fill="#333333"/>
<path d="M6.13112 5.85308C6.06653 5.85404 6.00339 5.87246 5.94832 5.9064C4.95766 6.49881 3.9729 7.16232 2.99992 7.81398C2.93484 7.85696 2.88569 7.92033 2.8601 7.99423C2.83451 8.06814 2.83391 8.14847 2.8584 8.22275C2.87762 8.29476 2.91854 8.35903 2.97555 8.40675C3.03256 8.45448 3.10286 8.48332 3.17683 8.48934C3.24491 8.48768 3.31082 8.46492 3.36552 8.42417C4.3267 7.76659 5.31736 7.12678 6.31392 6.51659C6.3813 6.48008 6.43365 6.4208 6.46171 6.34924C6.48977 6.27768 6.49173 6.19846 6.46724 6.12559C6.44997 6.04877 6.40738 5.98005 6.34637 5.93059C6.28536 5.88113 6.20952 5.85382 6.13112 5.85308Z" fill="#333333"/>
<path d="M7.22203 5.13033C7.17313 5.12821 7.12439 5.13723 7.07946 5.15673C7.03452 5.17622 6.99456 5.20568 6.96257 5.24289C6.90778 5.31175 6.87859 5.39764 6.88002 5.48578C6.88163 5.55368 6.90291 5.61964 6.94124 5.67559C6.97957 5.73155 7.03329 5.77506 7.09585 5.80083C7.1584 5.82659 7.22707 5.83349 7.29347 5.82068C7.35986 5.80787 7.4211 5.77589 7.4697 5.72868C7.52364 5.65935 7.55272 5.57377 7.55225 5.48578C7.55464 5.44046 7.5479 5.39512 7.53245 5.35247C7.517 5.30982 7.49315 5.27074 7.46232 5.23756C7.4315 5.20438 7.39433 5.17779 7.35305 5.15936C7.31176 5.14094 7.2672 5.13107 7.22203 5.13033Z" fill="#333333"/>
</svg>
