<svg width="30" height="30" viewBox="0 0 30 30" fill="none" xmlns="http://www.w3.org/2000/svg">
<path d="M29.9116 17.2381C29.8479 15.8195 29.7841 14.3312 29.7957 12.901C29.7957 11.9533 29.8537 10.9824 29.9001 10.0464C30.018 8.38609 30.0316 6.72002 29.9406 5.05805V4.68015C29.8421 3.22669 29.7087 1.23253 28.2009 0.610448C27.557 0.392087 26.8797 0.28974 26.2002 0.308134L25.6203 0.279054C24.4605 0.209288 23.3007 0.139535 22.1408 0.0930239C21.1492 0.0523269 19.8212 0 18.5106 0C17.2 0 16.1388 0.0406977 15.0891 0.127906H14.1265C12.8159 0.127906 11.4763 0.174419 10.1889 0.22093C9.23783 0.255813 8.28097 0.290692 7.32992 0.308134H7.14435C6.79641 0.308134 6.42526 0.308135 6.04832 0.273252C5.67138 0.238369 5.23645 0.244172 4.82471 0.244172C3.84563 0.194553 2.86999 0.394579 1.98895 0.825558C0.701543 1.55811 0.521769 3.0639 0.365193 4.38946L0.3304 4.71503C0.0599894 7.31612 -0.0446119 9.93186 0.0172431 12.5463C0.0172431 14.9707 0.133232 17.6044 0.359397 20.8369C0.446384 21.9997 0.486974 23.2264 0.527567 24.3891C0.527567 24.8949 0.562366 25.4066 0.585562 25.9124C0.614558 26.5577 0.834918 28.7147 2.54565 29.517C3.46918 29.8733 4.4569 30.0317 5.44521 29.9821C5.88014 29.9821 6.31508 29.9821 6.73261 29.953C7.15015 29.9239 7.4923 29.953 7.84024 29.953H8.1012C9.26102 29.9763 10.4034 29.9879 11.5285 29.9879H20.0184C20.7027 29.9879 21.3812 29.9879 22.0597 29.9879H24.0082C25.3434 30.0488 26.6791 29.8797 27.9574 29.4879C29.3491 28.9647 29.6449 27.5577 29.7435 26.3891C29.9116 24.4008 29.9928 22.6217 29.9812 20.9473C30.016 19.6799 29.9638 18.4416 29.9116 17.2381ZM29.21 9.44171L29.1578 10.4998C29.065 12.7556 29.1578 15.0405 29.21 17.2555C29.372 20.28 29.3313 23.312 29.0882 26.331C28.9374 27.7496 28.5083 28.7437 26.8671 28.9646C26.0958 29.0693 25.3188 29.1158 24.4605 29.1623C23.3007 29.2263 22.077 29.2495 20.4649 29.2495H11.888C10.502 29.2495 8.67531 29.2495 6.8138 29.1798H5.39302C3.92584 29.1798 2.42967 29.0519 1.68739 27.5112C1.16547 26.4124 1.18866 24.9473 1.20606 23.5287C1.20606 22.9473 1.20606 22.4066 1.20606 21.9066C1.16547 21.1741 1.11328 20.4357 1.06108 19.7032C0.974098 18.5404 0.881315 17.3137 0.84652 16.116C0.788529 14.2556 0.771131 12.2614 0.800126 10.0173C0.800126 9.64519 0.800126 9.26147 0.800126 8.8545C0.800126 6.80221 0.800126 4.47085 1.46122 2.62786C2.04114 1.08137 3.78087 0.883701 5.20165 0.883701C5.68877 0.883701 6.1701 0.883693 6.62823 0.930204C7.08636 0.976715 7.41691 0.970905 7.78805 0.970905H7.98522L10.2179 0.901142C11.5285 0.854631 12.8797 0.802316 14.2135 0.802316H15.1877C16.3069 0.715108 17.4784 0.668591 18.7658 0.668591C20.9056 0.668591 23.0745 0.790671 25.284 0.930204C25.4985 0.930204 25.7305 0.930204 25.974 0.930204C26.6129 0.896496 27.2528 0.975217 27.8646 1.16277C28.9664 1.61625 29.1172 3.15111 29.2274 4.26737L29.2563 4.53481C29.3674 6.16918 29.3519 7.80973 29.21 9.44171Z" fill="#333333"/>
<path d="M9.70756 12.5928C9.24943 12.0114 8.36216 11.9184 7.73586 11.9184C7.4807 11.9184 7.22554 11.9184 6.99357 11.9475H6.51225C6.1585 11.9475 5.81056 11.9766 5.46841 12.0056C5.12627 12.0347 4.8885 12.0521 4.56375 12.0579H4.2332C3.98466 12.0409 3.7366 12.0975 3.51991 12.2207C2.78922 12.68 2.76602 13.9184 2.75443 14.7439V15.0172C2.75443 15.8951 2.75442 16.7614 2.80662 17.6102C2.80662 17.6799 2.80662 17.7555 2.80662 17.8369C2.76759 18.1744 2.84539 18.5151 3.02698 18.802C3.23322 18.9907 3.47826 19.1317 3.74479 19.2151C4.01133 19.2985 4.29287 19.3222 4.56955 19.2846C4.94649 19.2846 5.32923 19.2497 5.67138 19.2206C5.92654 19.2206 6.1527 19.1741 6.33247 19.1741H9.05226C9.25923 19.1964 9.46683 19.1381 9.63217 19.0113C10.1773 18.5113 10.0903 17.2672 10.0265 16.3835C10.0265 16.1567 10.0265 15.959 10.0265 15.8021C10.0265 15.6451 10.0265 15.3311 10.0613 15.0521C10.0845 14.2265 10.1599 13.18 9.70756 12.5928ZM9.31322 16.6625C9.34801 17.4881 9.38281 18.2672 8.42595 18.4765C8.13779 18.5348 7.84424 18.562 7.55029 18.5578C7.27193 18.5578 6.97038 18.5578 6.71522 18.5288C6.46006 18.4997 6.1875 18.4997 5.94974 18.4997H5.88014C5.75836 18.4997 5.61339 18.4997 5.45102 18.4997C5.28864 18.4997 5.01028 18.5288 4.78411 18.5288C4.07662 18.5288 3.67649 18.3718 3.51991 18.0346C3.34766 17.321 3.31419 16.5807 3.42133 15.8544C3.42133 15.6218 3.45032 15.4125 3.45032 15.273C3.45032 15.1335 3.45032 15.0637 3.45032 14.9533C3.45032 14.0928 3.45032 13.0172 4.40137 12.7731C4.83426 12.6837 5.27597 12.6447 5.71777 12.6568H7.55609C8.34477 12.6568 9.09285 12.8079 9.29582 13.9184C9.35415 14.4454 9.36579 14.9765 9.33061 15.5056C9.33061 15.7672 9.33061 16.023 9.33061 16.273L9.31322 16.6625Z" fill="#333333"/>
<path d="M7.75906 15.2846C7.39372 15.3137 7.00518 15.337 6.59924 15.3428C6.6253 14.9285 6.6253 14.5129 6.59924 14.0986C6.59326 14.0066 6.55177 13.9205 6.48357 13.8587C6.41536 13.7968 6.32581 13.764 6.23389 13.7672C6.1877 13.7649 6.14156 13.7726 6.09856 13.7896C6.05555 13.8067 6.01668 13.8327 5.98453 13.866C5.95486 13.8989 5.93232 13.9376 5.91835 13.9796C5.90437 14.0216 5.89927 14.0661 5.90335 14.1102C5.93814 14.523 5.90335 14.9358 5.90335 15.3428C5.43942 15.3428 5.02188 15.3079 4.59274 15.2672C4.55242 15.2664 4.51236 15.2738 4.47502 15.2891C4.43768 15.3044 4.40385 15.3271 4.3756 15.356C4.34736 15.3849 4.3253 15.4192 4.31079 15.4569C4.29627 15.4946 4.28961 15.5349 4.2912 15.5753C4.28307 15.6707 4.31249 15.7655 4.37319 15.8394C4.43388 15.9133 4.52102 15.9604 4.61594 15.9707C5.01608 16.0056 5.43362 16.0288 5.89175 16.0404C5.88581 16.4513 5.91687 16.8619 5.98453 17.2672C5.99319 17.3406 6.02892 17.4082 6.08471 17.4566C6.1405 17.505 6.21232 17.5308 6.28608 17.5288C6.34253 17.5285 6.39824 17.5158 6.44931 17.4917C6.50039 17.4676 6.54561 17.4327 6.58184 17.3893C6.61569 17.3486 6.64003 17.3009 6.65307 17.2496C6.66612 17.1983 6.66753 17.1447 6.65722 17.0928C6.59696 16.7454 6.56978 16.393 6.57604 16.0404C7.01677 16.0404 7.41691 16.0114 7.78806 15.9823C7.88295 15.9734 7.97062 15.9277 8.03237 15.8549C8.09412 15.7822 8.12506 15.6881 8.1186 15.5928C8.11926 15.5475 8.10996 15.5026 8.09136 15.4614C8.07276 15.4201 8.04532 15.3835 8.01099 15.3541C7.97667 15.3247 7.9363 15.3032 7.89276 15.2912C7.84921 15.2792 7.80356 15.2769 7.75906 15.2846Z" fill="#333333"/>
<path d="M12.1606 19.0869C12.5607 19.2523 12.9927 19.3258 13.4248 19.302C13.8249 19.302 14.2483 19.2671 14.6252 19.2381C15.0021 19.209 15.2051 19.1916 15.4777 19.1858C15.7502 19.1799 15.8836 19.1857 16.1388 19.2264C16.3939 19.2671 16.852 19.2904 17.2 19.2904C17.5599 19.3185 17.9207 19.2482 18.2438 19.0869C18.8238 18.6858 18.7716 17.4823 18.7194 16.6858C18.7194 16.5114 18.7194 16.3544 18.7194 16.2265C18.7194 15.9532 18.7194 15.6742 18.7194 15.3951C18.7194 14.8137 18.7194 14.2323 18.7194 13.6509V13.5463C18.74 13.223 18.6632 12.9009 18.499 12.6219C18.0467 11.9998 17.026 11.9184 16.1794 11.9184H15.2515C15.0833 11.9184 14.8862 11.9184 14.6716 11.9184C14.457 11.9184 14.0917 11.9184 13.8075 11.9184C13.1513 11.8489 12.4938 12.0387 11.975 12.4475C11.3429 13.1335 11.3951 14.5347 11.4299 15.5521C11.4299 15.7091 11.4299 15.8544 11.4299 15.9823C11.4299 16.1102 11.4299 16.3777 11.4299 16.6044C11.3951 17.5114 11.3313 18.6625 12.1606 19.0869ZM12.3346 13.3719C12.6651 12.7091 13.5408 12.6219 14.2599 12.6219H16.1156C16.968 12.6219 17.7857 12.7498 17.9945 13.6742C18.0872 14.2509 18.1028 14.8375 18.0409 15.4184C18.0409 15.7032 18.0061 15.9997 18.0119 16.2323C18.0119 16.3486 18.0119 16.4765 18.0119 16.616C18.0467 17.3602 18.0873 18.2904 17.432 18.4706C17.1907 18.5273 16.9432 18.5527 16.6955 18.5462C16.4635 18.5462 16.22 18.5462 15.9822 18.5171C15.7444 18.4881 15.5357 18.4881 15.3385 18.4881H13.3146C12.1548 18.4881 12.1548 17.7555 12.1548 16.8602V16.4183C12.1548 16.2672 12.1548 16.087 12.1258 15.8951C12.1026 15.087 12.0388 13.9591 12.352 13.3719H12.3346Z" fill="#333333"/>
<path d="M13.5524 15.9765C13.7437 15.9765 13.9409 15.9765 14.1323 15.9765C14.4338 15.9765 14.7122 15.9765 15.0311 15.9765C15.3501 15.9765 15.611 15.9765 15.9358 15.9765C16.1446 15.9765 16.3533 15.9765 16.5679 15.9765C16.6149 15.9736 16.6609 15.9612 16.7031 15.9403C16.7453 15.9193 16.7829 15.8901 16.8137 15.8543C16.8445 15.8186 16.8678 15.777 16.8824 15.7321C16.8969 15.6872 16.9024 15.6398 16.8985 15.5928C16.8986 15.549 16.8897 15.5056 16.8722 15.4655C16.8547 15.4254 16.8289 15.3894 16.7967 15.3598C16.7645 15.3303 16.7265 15.3078 16.6851 15.2938C16.6437 15.2799 16.5998 15.2748 16.5563 15.2788C16.3475 15.2788 16.1446 15.2788 15.9358 15.2788C15.6342 15.2788 15.3559 15.2788 15.0369 15.2788C14.718 15.2788 14.457 15.2788 14.1323 15.2788C13.9351 15.2788 13.7418 15.2788 13.5524 15.2788C13.5054 15.2818 13.4594 15.2941 13.4172 15.315C13.375 15.336 13.3374 15.3652 13.3066 15.401C13.2758 15.4367 13.2524 15.4783 13.2379 15.5232C13.2233 15.5681 13.2179 15.6155 13.2218 15.6625C13.2218 15.7053 13.2304 15.7476 13.2472 15.7868C13.264 15.8261 13.2886 15.8615 13.3196 15.8909C13.3505 15.9203 13.3872 15.9431 13.4272 15.9578C13.4672 15.9725 13.5098 15.9789 13.5524 15.9765Z" fill="#333333"/>
<path d="M9.73075 20.9706C9.31322 20.3601 8.45495 20.2788 7.75906 20.2788C7.5329 20.2788 7.31253 20.2788 7.10956 20.2788C6.90659 20.2788 6.76161 20.2788 6.57604 20.2788H6.47745C5.97873 20.2788 5.46261 20.3136 4.96969 20.3485L4.38978 20.3834H4.2332C3.99137 20.372 3.75096 20.4262 3.53731 20.5404C2.76603 21.0229 2.76023 22.3834 2.76023 23.2845V23.895C2.72025 24.7291 2.7474 25.5652 2.84142 26.3949V26.5403C2.84448 26.7764 2.92842 27.0042 3.07918 27.1856C3.21884 27.3049 3.38164 27.3938 3.55731 27.4468C3.73297 27.4999 3.9177 27.5158 4.09982 27.4937H4.45937C5.21325 27.4937 5.96133 27.4937 6.71522 27.4937H6.77901C7.54449 27.4937 8.21719 27.4937 8.87249 27.4589H9.13925C9.28701 27.4686 9.43434 27.4343 9.56258 27.36C10.1425 26.9356 10.0729 25.6566 10.0149 24.8136C10.0149 24.6159 10.0149 24.4415 10.0149 24.3078C10.0149 24.0752 10.0149 23.7961 10.0555 23.4938C10.0903 22.6915 10.1657 21.6043 9.73075 20.9706ZM9.30742 25.2903C9.30742 25.924 9.33642 26.6507 8.72751 26.8252C8.44218 26.9017 8.14702 26.9351 7.85185 26.924C7.56189 26.924 7.27193 26.924 6.97038 26.8891C6.66883 26.8542 6.50065 26.86 6.28608 26.86C6.07151 26.86 5.85695 26.86 5.60179 26.9007C5.34663 26.9414 5.02188 26.9472 4.72613 26.9472C4.47433 26.9597 4.22245 26.9242 3.98384 26.8426C3.30535 26.5461 3.36334 25.424 3.40393 24.5984C3.40393 24.4066 3.40393 24.2322 3.40393 24.0868C3.40393 23.9415 3.40393 23.8252 3.40393 23.6798C3.40393 22.6682 3.34014 21.4066 4.37238 21.1159C4.78949 21.026 5.21592 20.9869 5.64238 20.9997H6.55284C7.66627 20.9997 9.05226 20.9997 9.26682 22.4299C9.33097 23.0187 9.34262 23.6122 9.30163 24.2031C9.30163 24.4764 9.30163 24.7438 9.30163 25.0054L9.30742 25.2903Z" fill="#333333"/>
<path d="M8.15339 22.5868C8.12684 22.5152 8.07954 22.4531 8.01755 22.4085C7.95555 22.364 7.88169 22.339 7.80545 22.3369C7.72008 22.3364 7.63751 22.3674 7.57348 22.4241C7.19074 22.7554 6.7906 23.1217 6.28608 23.5868C5.86274 23.2322 5.4916 22.895 5.15525 22.5578C5.12472 22.5252 5.08791 22.4991 5.04705 22.4811C5.00619 22.4631 4.96211 22.4536 4.91749 22.4531C4.84502 22.4555 4.77488 22.4794 4.71602 22.5219C4.65716 22.5643 4.61223 22.6234 4.58694 22.6915C4.56174 22.7522 4.55545 22.8191 4.56891 22.8834C4.58237 22.9478 4.61494 23.0065 4.66234 23.052C4.99288 23.3834 5.35822 23.7147 5.78156 24.0694C5.37562 24.4647 4.96969 24.8659 4.58115 25.2845C4.5328 25.3306 4.50007 25.3907 4.48759 25.4564C4.47511 25.5221 4.48348 25.5901 4.51155 25.6508C4.53925 25.7163 4.58511 25.7725 4.6437 25.8127C4.70229 25.8529 4.77115 25.8754 4.84211 25.8775C4.88598 25.8777 4.92938 25.8684 4.9694 25.8504C5.00941 25.8323 5.04509 25.8059 5.07407 25.7728C5.43941 25.3891 5.83375 24.988 6.32668 24.5113L6.39047 24.5636C6.79788 24.8495 7.16973 25.1833 7.4981 25.5577C7.52479 25.5942 7.55974 25.6237 7.60007 25.644C7.64041 25.6642 7.68497 25.6745 7.73006 25.674C7.79708 25.671 7.86192 25.6493 7.91726 25.6113C7.9726 25.5733 8.01623 25.5205 8.04322 25.4589C8.07457 25.3966 8.08688 25.3264 8.07863 25.2571C8.07038 25.1878 8.04192 25.1225 7.99682 25.0694C7.6493 24.6862 7.26029 24.343 6.837 24.0461H6.808C7.21394 23.6682 7.61988 23.2962 8.03741 22.9299C8.09183 22.8936 8.13274 22.8402 8.15372 22.7782C8.1747 22.7161 8.17458 22.6488 8.15339 22.5868Z" fill="#333333"/>
<path d="M18.4584 21.0171C18.0235 20.3601 17.0956 20.2846 16.4345 20.2846C16.1736 20.2846 15.9242 20.2846 15.6922 20.2846H14.7992C14.5672 20.2846 14.3063 20.2846 14.0395 20.2846C13.3784 20.2846 12.4447 20.3369 11.9576 20.7846C11.2791 21.4183 11.3777 22.6566 11.4357 23.6566C11.4357 23.895 11.4705 24.1159 11.4705 24.3078C11.4811 24.5208 11.4811 24.7342 11.4705 24.9473C11.4125 25.8891 11.3371 27.0635 12.178 27.4531C12.6139 27.6207 13.0803 27.694 13.5466 27.6682C13.8307 27.6682 14.1265 27.6682 14.399 27.6391C14.6716 27.61 14.8746 27.6391 15.0775 27.6391H15.1645L15.8082 27.6798C16.1562 27.6798 16.5563 27.7379 16.968 27.7379C17.4243 27.7728 17.8814 27.6824 18.2902 27.4763C18.8701 27.0868 18.818 25.8775 18.7658 25.0752C18.7658 24.9008 18.7658 24.7438 18.7658 24.6217C18.7658 24.3717 18.7658 24.0694 18.8064 23.7496C18.8064 22.8136 18.8933 21.6508 18.4584 21.0171ZM14.2135 26.924H13.8017C13.5111 26.9398 13.2197 26.9262 12.9319 26.8833C12.12 26.7089 12.149 25.8252 12.178 25.0519C12.178 24.8891 12.178 24.7264 12.178 24.581C12.178 24.1043 12.178 23.6217 12.178 23.145V23.052C12.1442 22.8021 12.1714 22.5478 12.2573 22.3109C12.3432 22.0739 12.4851 21.8614 12.6709 21.6915C13.129 21.1625 13.2218 21.1624 13.6741 21.1392H14.1729C14.5324 21.1392 14.8746 21.0811 15.2283 21.0811H16.104C17.1826 21.0811 17.8785 21.3252 18.0003 22.5345C18.0477 23.1244 18.0574 23.7167 18.0293 24.3078C18.0293 24.5752 18.0293 24.8426 18.0293 25.1043C18.0293 25.2031 18.0293 25.3077 18.0293 25.424C18.0557 25.709 18.046 25.9961 18.0003 26.2786C17.8147 26.9763 17.6059 26.9763 17.1362 26.9879H16.9564C16.6259 26.9879 16.2953 26.9879 15.9648 26.9879C15.6342 26.9879 15.1819 26.9879 14.805 26.9879H14.2251L14.2135 26.924Z" fill="#333333"/>
<path d="M15.3907 24.4124C15.6053 24.4124 15.8256 24.3833 16.046 24.3833C16.2902 24.3765 16.5342 24.4039 16.7709 24.4647H16.8695C16.9545 24.4609 17.0354 24.4265 17.0972 24.3678C17.1589 24.309 17.1975 24.2299 17.2058 24.145C17.2181 24.0636 17.1992 23.9806 17.1529 23.9127C17.1067 23.8447 17.0365 23.7969 16.9564 23.7787C16.5504 23.6791 16.1334 23.6322 15.7154 23.6392C15.0536 23.6539 14.3933 23.7083 13.7379 23.802L13.3436 23.8543C13.2482 23.866 13.161 23.9143 13.1005 23.9891C13.0399 24.064 13.0106 24.1594 13.0188 24.2554C13.0173 24.2943 13.0236 24.3331 13.0375 24.3694C13.0515 24.4057 13.0727 24.4388 13.0999 24.4665C13.127 24.4943 13.1596 24.5162 13.1955 24.5309C13.2315 24.5456 13.27 24.5528 13.3088 24.5519H13.3552C13.8829 24.4938 14.428 24.4531 15.0195 24.424L15.3907 24.4124Z" fill="#333333"/>
<path d="M15.0949 23.2903C15.1429 23.2912 15.1904 23.2818 15.2344 23.2628C15.2784 23.2437 15.3179 23.2154 15.3501 23.1799C15.4052 23.1126 15.4359 23.0285 15.4371 22.9415C15.4395 22.8955 15.4324 22.8496 15.4161 22.8065C15.3999 22.7635 15.3749 22.7243 15.3427 22.6915C15.3105 22.6587 15.2718 22.6329 15.2292 22.6159C15.1865 22.5989 15.1408 22.591 15.0949 22.5927C15.0468 22.5906 14.9989 22.5994 14.9547 22.6186C14.9105 22.6377 14.8712 22.6666 14.8398 22.7031C14.7859 22.7707 14.7572 22.855 14.7586 22.9415C14.7562 22.987 14.7632 23.0324 14.7791 23.0751C14.795 23.1177 14.8195 23.1566 14.851 23.1893C14.8826 23.222 14.9205 23.2479 14.9625 23.2653C15.0044 23.2827 15.0495 23.2912 15.0949 23.2903Z" fill="#333333"/>
<path d="M15.1297 24.7205C15.0816 24.7184 15.0337 24.7273 14.9895 24.7464C14.9453 24.7656 14.906 24.7945 14.8746 24.831C14.8207 24.8986 14.792 24.9829 14.7934 25.0694C14.791 25.1148 14.7979 25.1603 14.8138 25.2029C14.8298 25.2456 14.8542 25.2845 14.8858 25.3172C14.9174 25.3499 14.9553 25.3758 14.9973 25.3932C15.0392 25.4105 15.0843 25.4191 15.1297 25.4182C15.1776 25.4191 15.2252 25.4097 15.2692 25.3906C15.3132 25.3716 15.3527 25.3433 15.3849 25.3077C15.4379 25.2397 15.4665 25.1557 15.4661 25.0694C15.4685 25.0239 15.4615 24.9784 15.4456 24.9358C15.4297 24.8932 15.4052 24.8543 15.3736 24.8215C15.3421 24.7888 15.3041 24.7629 15.2622 24.7456C15.2202 24.7282 15.1751 24.7197 15.1297 24.7205Z" fill="#333333"/>
<path d="M27.2847 23.9299V17.4358C27.2847 16.3718 27.2847 15.3021 27.2847 14.2381C27.2847 14.1567 27.2847 14.0695 27.2847 13.9823C27.3539 13.5239 27.2572 13.0558 27.0121 12.6626C26.5424 12.0812 25.5391 12.0231 24.7214 12.0231H22.6512C21.5551 12.0231 20.5113 12.2149 20.2851 13.5986C20.1554 14.5618 20.1031 15.5339 20.1286 16.5055C20.1286 16.8021 20.1286 17.0869 20.1286 17.3834C20.1286 18.1741 20.088 18.9764 20.059 19.7846C19.9282 21.993 19.9572 24.2081 20.146 26.4124C20.2793 27.6507 21.4102 27.6682 22.4076 27.6856C22.6338 27.6856 22.8541 27.6856 23.0687 27.6856C23.2833 27.6856 23.5384 27.6856 23.7762 27.6856C24.3561 27.6856 24.936 27.6391 25.4811 27.5984H25.6551C25.7497 27.5924 25.8446 27.5924 25.9393 27.5984C26.2979 27.633 26.6576 27.5449 26.9599 27.3484C27.4992 26.8775 27.4122 25.5694 27.3542 24.6159C27.2962 24.3659 27.2847 24.1217 27.2847 23.9299ZM24.5997 27.017H24.3619C24.0951 27.017 23.7066 27.0519 23.2891 27.0519C21.7871 27.0519 20.9694 26.7903 20.8013 26.2786C20.6766 25.6625 20.655 25.0298 20.7375 24.4066C20.7375 24.1101 20.7722 23.8252 20.7722 23.581C20.7722 22.209 20.7722 20.8369 20.7722 19.4648C20.7722 18.0113 20.7722 16.5869 20.8476 15.1684C20.8476 15.0463 20.8476 14.9184 20.8476 14.7846C20.8315 14.469 20.8549 14.1526 20.9172 13.8428C21.1898 12.8486 22.0771 12.7149 22.9759 12.7149H24.6461C25.4637 12.7149 26.3568 12.7963 26.6352 13.8312C26.6705 14.0565 26.6705 14.286 26.6352 14.5114C26.6352 14.6277 26.6352 14.7381 26.6352 14.837L26.6061 20.5345C26.6061 22.0752 26.6061 23.6217 26.6061 25.1856C26.6061 25.2845 26.6061 25.4008 26.6061 25.5229C26.6351 26.0287 26.6757 26.6856 26.3104 26.8949C25.9515 27.0117 25.5733 27.0571 25.197 27.0286L24.5997 27.017Z" fill="#333333"/>
<path d="M22.2104 19.7497C22.599 19.7497 22.9875 19.7497 23.3703 19.7497H25.2202C25.3125 19.7497 25.401 19.7129 25.4662 19.6475C25.5315 19.5821 25.5681 19.4934 25.5681 19.4009C25.5681 19.3083 25.5315 19.2196 25.4662 19.1542C25.401 19.0888 25.3125 19.052 25.2202 19.052H23.3645C22.9759 19.052 22.5874 19.052 22.2046 19.052C22.1618 19.0512 22.1192 19.0591 22.0794 19.0752C22.0397 19.0913 22.0036 19.1152 21.9733 19.1456C21.9429 19.176 21.919 19.2122 21.903 19.2521C21.887 19.2919 21.8791 19.3346 21.8799 19.3776C21.8767 19.4239 21.8829 19.4704 21.8978 19.5142C21.9128 19.5581 21.9364 19.5986 21.9672 19.6332C21.998 19.6679 22.0354 19.696 22.0771 19.716C22.1189 19.736 22.1642 19.7475 22.2104 19.7497Z" fill="#333333"/>
<path d="M25.5507 20.488C25.5509 20.445 25.5421 20.4024 25.5249 20.363C25.5077 20.3236 25.4824 20.2882 25.4507 20.2592C25.419 20.2302 25.3816 20.2081 25.3409 20.1945C25.3002 20.1808 25.2571 20.1758 25.2144 20.1799C24.8606 20.209 24.4837 20.2264 24.0545 20.2264C23.6254 20.2264 23.0455 20.2264 22.5352 20.1857H22.193C22.1497 20.1849 22.1066 20.193 22.0664 20.2094C22.0263 20.2258 21.9899 20.2503 21.9595 20.2813C21.9291 20.3123 21.9053 20.3493 21.8896 20.3898C21.874 20.4303 21.8667 20.4736 21.8683 20.5171C21.8651 20.5636 21.8715 20.6102 21.8869 20.6542C21.9023 20.6981 21.9264 20.7385 21.9579 20.7727C21.9894 20.807 22.0275 20.8345 22.0699 20.8535C22.1123 20.8725 22.1582 20.8827 22.2046 20.8834H22.5294C23.0397 20.8834 23.55 20.9241 24.0545 20.9241C24.4779 20.9241 24.8606 20.9241 25.2144 20.8776C25.3103 20.8701 25.3994 20.825 25.4624 20.7521C25.5254 20.6792 25.5571 20.5843 25.5507 20.488Z" fill="#333333"/>
<path d="M26.4032 3.24995C25.9873 3.10679 25.5496 3.03791 25.11 3.04646H24.8896C23.2195 2.96506 21.5203 2.95344 19.8792 2.94181H19.0789C16.7593 2.94181 14.4203 2.93211 12.062 2.91273C9.74235 2.91273 7.42271 2.91273 5.06827 2.94761H4.29699C4.08329 2.94051 3.86986 2.968 3.66489 3.02902C2.86461 3.31971 2.85881 4.30807 2.85301 5.09875C2.85301 5.31386 2.85301 5.51153 2.85301 5.68014V5.7499C2.76022 6.76733 2.60945 8.46498 2.99219 9.44753C3.24155 10.0871 3.92585 10.1743 4.63334 10.1743H25.1622C25.3304 10.1743 25.4927 10.1743 25.6609 10.1743C27.4006 10.0638 27.4006 8.43009 27.3716 6.98244V6.76152C27.3716 6.58711 27.3716 6.38944 27.3716 6.18014C27.3948 5.08713 27.4644 3.70343 26.4032 3.24995ZM26.6235 6.86035C26.6235 8.14521 26.6526 9.36031 25.2086 9.49403C25.0386 9.50285 24.8682 9.50285 24.6983 9.49403H23.5906L5.4916 9.44171H4.44776C4.00703 9.44171 3.75188 9.34287 3.63009 9.12775C3.51581 8.72961 3.47648 8.31362 3.51411 7.90104C3.51411 7.72662 3.51411 7.56964 3.51411 7.45918C3.42801 6.4716 3.46894 5.47703 3.63589 4.49992C3.80986 3.63947 4.09402 3.59878 4.72613 3.59878H5.02767C7.23713 3.59878 9.4466 3.59878 11.6561 3.59878H16.3707C18.7542 3.59878 20.8998 3.59877 23.0919 3.66273H23.405C23.985 3.66273 24.5649 3.66274 25.1796 3.72669H25.3593C25.4879 3.71989 25.6168 3.73164 25.7421 3.76157C26.7337 4.09877 26.6873 5.29642 26.6467 6.26152C26.6467 6.43013 26.6467 6.59291 26.6467 6.74407L26.6235 6.86035Z" fill="#333333"/>
<path d="M5.5148 4.29643H5.43941C5.18456 4.33768 4.94243 4.43661 4.73142 4.5857C4.5204 4.73479 4.34605 4.93014 4.2216 5.15689C4.05398 5.64676 4.01994 6.17263 4.12301 6.68011L4.15201 6.93593C4.15944 7.02949 4.20297 7.11646 4.27336 7.17834C4.34375 7.24023 4.43545 7.27216 4.52895 7.26732C4.57417 7.26877 4.61921 7.26071 4.66115 7.24369C4.70309 7.22667 4.74102 7.20105 4.77251 7.16848C4.80115 7.13516 4.82263 7.09628 4.8356 7.05427C4.84857 7.01225 4.85276 6.96801 4.8479 6.9243V6.72662C4.80746 6.39882 4.79581 6.06811 4.81311 5.73827C4.8479 5.33711 5.12626 5.0813 5.64238 4.97084C5.72055 4.95796 5.79054 4.91477 5.8372 4.85058C5.88386 4.78639 5.90345 4.70637 5.89174 4.62782C5.88293 4.5348 5.83899 4.44868 5.76891 4.38707C5.69884 4.32547 5.60794 4.29304 5.5148 4.29643Z" fill="#333333"/>
<path d="M6.61084 4.20923C6.56544 4.20837 6.52035 4.21688 6.47838 4.23426C6.43642 4.25164 6.39847 4.27751 6.36691 4.31024C6.33536 4.34297 6.31086 4.38186 6.29496 4.4245C6.27906 4.46714 6.27209 4.51261 6.27449 4.55806C6.27316 4.64556 6.30414 4.73046 6.36147 4.79643C6.39204 4.8325 6.43035 4.86116 6.47353 4.88029C6.51672 4.89941 6.56366 4.90852 6.61084 4.9069C6.65649 4.90772 6.70182 4.8992 6.74408 4.88188C6.78635 4.86457 6.82465 4.83881 6.85666 4.80617C6.88867 4.77354 6.91372 4.73471 6.93028 4.69205C6.94684 4.6494 6.95457 4.60381 6.95298 4.55806C6.95546 4.47038 6.92432 4.38508 6.86599 4.31969C6.83511 4.28248 6.79591 4.25308 6.75158 4.23389C6.70725 4.2147 6.65904 4.20625 6.61084 4.20923Z" fill="#333333"/>
</svg>
