<svg width="30" height="30" viewBox="0 0 30 30" fill="none" xmlns="http://www.w3.org/2000/svg">
<path d="M6.23857 23.3107C6.23857 22.291 6.19595 14.0823 6.19595 14.0823C6.19595 13.9447 6.19594 13.756 6.25277 13.547C6.33802 12.8689 6.45879 11.9359 5.86208 11.6197C5.54647 11.4988 5.18816 11.4474 4.83203 11.4719C4.5834 11.4719 4.32767 11.4719 4.12166 11.4719H3.65283L3.6173 11.5229L3.57468 11.4719L3.52495 11.5229C3.52495 10.1667 3.47523 8.81555 3.43971 7.44404C3.43971 6.60279 3.39709 5.76153 3.38289 4.92027C3.38198 4.88033 3.36998 4.84091 3.34762 4.80433C3.32525 4.76775 3.29296 4.73472 3.25262 4.70719C3.21228 4.67966 3.16469 4.65818 3.11266 4.64399C3.06063 4.6298 3.00518 4.6232 2.94955 4.62456C2.83352 4.62276 2.72119 4.65391 2.63698 4.71123C2.60028 4.73901 2.57191 4.77189 2.55358 4.80784C2.53526 4.84379 2.52737 4.88205 2.53043 4.92027C2.53043 5.76153 2.56596 6.60279 2.58727 7.44404C2.62279 8.78496 2.6512 10.1208 2.67251 11.4617H2.13974C1.83428 11.4617 1.52882 11.4617 1.20915 11.4617H0.5414C0.473405 11.4606 0.40618 11.4722 0.346377 11.4955C0.286574 11.5187 0.236257 11.5528 0.200414 11.5943C0.14615 11.6437 0.116184 11.7047 0.115173 11.7676C-0.114474 16.2758 -0.000637027 20.7896 0.456159 25.2889C0.46319 25.3688 0.511499 25.4439 0.591652 25.4995C0.671804 25.5552 0.778015 25.5873 0.889475 25.5897C1.16652 25.5897 1.45066 25.5897 1.72771 25.5897H2.85011C2.90694 26.9612 2.98507 28.3327 3.06321 29.7042C3.06873 29.7849 3.11778 29.8609 3.19998 29.9161C3.28219 29.9713 3.39109 30.0014 3.50364 30C3.62053 29.9998 3.73271 29.9669 3.8162 29.9082C3.85236 29.8803 3.8799 29.8473 3.89704 29.8113C3.91418 29.7753 3.92054 29.737 3.91567 29.6991C3.83752 28.3429 3.75937 26.9816 3.70254 25.6203H5.07357C5.27849 25.6424 5.48786 25.6274 5.68264 25.5767C5.87742 25.5259 6.05142 25.441 6.18884 25.3297C6.47299 25.0187 6.37356 24.3559 6.29541 23.8256C6.267 23.637 6.23857 23.4483 6.23857 23.3107ZM1.05287 23.1424C1.05287 22.9589 1.05287 22.7957 1.05287 22.6938C0.818446 19.4205 0.782925 15.9535 0.939206 12.1041H1.15942C1.46488 12.1041 1.77033 12.1041 2.08289 12.1041H4.83914C5.35061 12.1041 5.45006 12.1551 5.46427 12.1653C5.48806 12.4503 5.4618 12.7364 5.38612 13.0167C5.38612 13.185 5.33641 13.3227 5.33641 13.3787V17.4984C5.33641 19.6907 5.3364 21.9596 5.39323 24.1927C5.38517 24.2878 5.38517 24.3832 5.39323 24.4782C5.42875 24.774 5.44295 24.8963 5.08066 25.0238C4.87998 25.0737 4.6675 25.0945 4.45553 25.085H3.12005C2.87853 25.085 2.57305 25.1105 2.2818 25.1105C1.9922 25.1276 1.70094 25.098 1.42936 25.0238C1.01735 24.8097 1.03866 23.7441 1.05287 23.1424Z" fill="#333333"/>
<path d="M13.5412 6.91889C13.2086 6.81366 12.8453 6.76816 12.4828 6.78633C12.1844 6.78633 11.8718 6.78633 11.5806 6.81692H11.3675C11.3675 5.47601 11.3106 4.14019 11.2822 2.79927L11.2183 0.295892C11.2183 0.256185 11.2072 0.216883 11.1856 0.180324C11.164 0.143765 11.1324 0.110697 11.0926 0.0831001C11.0529 0.0555028 11.0057 0.033942 10.9541 0.0196951C10.9025 0.00544834 10.8474 -0.00119344 10.7921 0.000175771C10.676 -0.00161793 10.5637 0.0295375 10.4795 0.0868577C10.4413 0.115159 10.4116 0.148732 10.392 0.185544C10.3725 0.222355 10.3636 0.261636 10.3658 0.300995L10.4298 2.80437C10.4298 4.14019 10.4937 5.4811 10.515 6.81692H10.3801C10.1456 6.81692 9.88989 6.81692 9.63416 6.81692C9.03744 6.81692 8.21342 6.873 7.90796 7.37266C7.87211 7.41591 7.85252 7.4651 7.85112 7.51542C7.8156 8.64729 7.78718 10.1412 7.85112 11.6401C7.90084 12.4814 8.20631 12.6038 9.39263 12.6598C9.7123 12.6598 10.0391 12.6598 10.3729 12.6598H10.5505C10.5837 13.7917 10.6074 14.927 10.6216 16.0657C10.6216 17.6411 10.6713 19.2726 10.7566 20.8736C10.7621 20.9543 10.8111 21.0303 10.8933 21.0854C10.9755 21.1406 11.0844 21.1707 11.197 21.1693C11.3139 21.1692 11.4261 21.1362 11.5095 21.0775C11.5461 21.0498 11.5739 21.0169 11.591 20.9808C11.6082 20.9447 11.6143 20.9064 11.609 20.8685C11.5237 19.2675 11.5024 17.636 11.474 16.0606C11.474 14.9185 11.4503 13.7798 11.403 12.6445C11.9642 12.6445 12.5183 12.5987 13.0368 12.5528C13.6975 12.5018 13.868 12.4304 13.9532 11.9307C14.0357 11.2526 14.0523 10.5711 14.0029 9.89134C14.0029 9.52934 14.0029 9.16224 14.0029 8.80535C14.0029 8.68298 14.0029 8.54023 14.0456 8.38727C14.1237 7.81114 14.209 7.15342 13.5412 6.91889ZM13.1363 11.7778C13.1406 11.8304 13.1406 11.8832 13.1363 11.9358C12.946 11.9572 12.7534 11.9657 12.5609 11.9613H12.0991L11.1828 11.997C10.7778 11.997 10.38 12.0378 9.98223 12.0378H9.7194C9.12979 12.0378 8.85985 12.0021 8.72488 11.6095C8.6549 11.3476 8.63579 11.0799 8.66806 10.8142C8.66806 10.6867 8.66806 10.5694 8.66806 10.4573C8.66806 9.55483 8.66806 8.6218 8.66806 7.62249C8.80303 7.48483 9.22215 7.41854 9.91121 7.41854C10.2096 7.41854 10.5079 7.41854 10.7352 7.41854H11.062C11.1828 7.41854 11.3604 7.41854 11.5522 7.41854C11.744 7.41854 12.092 7.38795 12.3478 7.38795C12.5694 7.37501 12.792 7.4031 12.9942 7.46953C13.3352 7.63269 13.2286 8.6014 13.1647 9.17754C13.1647 9.38148 13.1647 9.54973 13.1647 9.68739C13.1647 9.91173 13.1647 10.1412 13.1292 10.3808C13.077 10.839 13.0794 11.2995 13.1363 11.7574V11.7778Z" fill="#333333"/>
<path d="M29.9082 17.8807C29.9082 17.7584 29.9082 17.6156 29.9508 17.4678C30.0218 16.9579 30.1142 16.2798 29.4464 16.0249C29.1139 15.9196 28.7505 15.8742 28.388 15.8923C28.0896 15.8923 27.7771 15.8923 27.4858 15.9229H27.2656V13.5215C27.2656 11.0691 27.2088 8.61671 27.1519 6.16432C27.151 6.12437 27.139 6.08495 27.1167 6.04837C27.0943 6.01178 27.062 5.97876 27.0217 5.95124C26.9813 5.92371 26.9338 5.90222 26.8817 5.88803C26.8297 5.87384 26.7742 5.86724 26.7186 5.8686C26.6026 5.86681 26.4903 5.89795 26.406 5.95527C26.3346 6.01261 26.2964 6.08742 26.2995 6.16432C26.3563 8.61671 26.3847 11.0742 26.4131 13.5266V15.928H26.2853C26.0437 15.928 25.788 15.928 25.5749 15.928C24.9711 15.928 24.1542 15.9892 23.8416 16.4838C23.811 16.5282 23.794 16.5769 23.7919 16.6265C23.7563 17.7533 23.7279 19.2421 23.7919 20.7512C23.8487 21.5925 24.1471 21.7148 25.3334 21.7709C25.653 21.7709 25.9727 21.7709 26.2995 21.7709H26.4984C26.541 22.8416 26.6049 23.9123 26.6689 24.983L26.7044 25.6203C26.7062 25.6605 26.7191 25.7 26.7422 25.7366C26.7653 25.7732 26.7983 25.8062 26.8392 25.8337C26.8801 25.8612 26.9282 25.8826 26.9806 25.8967C27.033 25.9108 27.0888 25.9174 27.1448 25.916C27.2017 25.9164 27.2582 25.9085 27.3107 25.8927C27.3632 25.8769 27.4107 25.8536 27.4503 25.8243C27.4889 25.7975 27.5186 25.7647 27.537 25.7285C27.5555 25.6923 27.5623 25.6536 27.5568 25.6152L27.5213 25.0442C27.4574 23.948 27.3934 22.8518 27.3508 21.7556C27.9191 21.7556 28.4661 21.7097 28.9847 21.669C29.6382 21.6129 29.8158 21.5466 29.8939 21.0418C29.9757 20.3637 29.9947 19.6824 29.9508 19.0024C29.9224 18.6047 29.9082 18.2427 29.9082 17.8807ZM29.0344 20.8838C29.0422 20.9363 29.0422 20.9893 29.0344 21.0418C28.8443 21.0649 28.6517 21.0751 28.459 21.0724H27.9973C27.6918 21.0724 27.3863 21.0724 27.0809 21.1081C26.7754 21.1438 26.2782 21.1438 25.8733 21.1438H25.6246C25.035 21.1438 24.7651 21.1081 24.623 20.7155C24.5554 20.4533 24.5387 20.1857 24.5733 19.9202C24.5733 19.7978 24.5733 19.6754 24.5733 19.5684C24.5733 18.6659 24.5733 17.7278 24.5733 16.7285C24.7011 16.5959 25.1203 16.5245 25.8093 16.5245C26.1148 16.5245 26.406 16.5245 26.6333 16.55H27.4574C27.706 16.55 27.9902 16.5194 28.253 16.5194C28.474 16.506 28.6961 16.5323 28.8994 16.5959C29.2404 16.7591 29.1339 17.7278 29.0699 18.309C29.0699 18.5079 29.0273 18.6812 29.0273 18.7934C29.0273 19.0177 29.0273 19.2522 29.0273 19.4868C28.9735 19.9517 28.9759 20.4191 29.0344 20.8838Z" fill="#333333"/>
<path d="M21.952 19.4103L21.9165 13.8019C21.9165 13.6795 21.9165 13.5113 21.9591 13.3278C22.0372 12.6955 22.1367 11.9053 21.5755 11.6095C21.2625 11.4884 20.9064 11.437 20.5526 11.4617C20.3039 11.4617 20.0482 11.4617 19.8422 11.4617H19.3733V11.5127L19.3307 11.4617L19.281 11.5127C19.281 8.86144 19.1886 6.21529 19.1318 3.56915C19.1319 3.529 19.1206 3.48925 19.0986 3.45234C19.0765 3.41543 19.0443 3.38212 19.0037 3.35445C18.9632 3.32678 18.9152 3.30534 18.8627 3.29141C18.8102 3.27748 18.7544 3.27137 18.6985 3.27344C18.5848 3.27245 18.4751 3.30358 18.393 3.36012C18.3554 3.38765 18.3259 3.42036 18.3064 3.45628C18.2869 3.49221 18.2777 3.5306 18.2794 3.56915C18.3362 6.2 18.393 8.83085 18.4286 11.4668H17.8958C17.5832 11.4668 17.2778 11.4668 16.9652 11.4668H16.2903C16.2233 11.4655 16.157 11.4772 16.0983 11.5005C16.0396 11.5238 15.9906 11.5579 15.9564 11.5993C15.9033 11.6496 15.8712 11.7098 15.8641 11.7727C15.726 14.975 15.8423 18.1804 16.2122 21.3732C16.2158 21.4531 16.2621 21.5288 16.3415 21.5848C16.4208 21.6408 16.5271 21.6728 16.6384 21.6741H17.4695C17.846 21.6741 18.2226 21.6741 18.5919 21.6741C18.5919 22.5561 18.6417 23.4381 18.663 24.3151C18.6985 25.6662 18.7269 27.0581 18.805 28.4296C18.8059 28.47 18.8181 28.5099 18.8409 28.5468C18.8638 28.5837 18.8967 28.617 18.9378 28.6446C18.9789 28.6722 19.0273 28.6935 19.0802 28.7074C19.1331 28.7213 19.1893 28.7274 19.2455 28.7253C19.3019 28.7267 19.3582 28.7197 19.4108 28.7048C19.4633 28.6899 19.511 28.6674 19.5509 28.6386C19.6224 28.5813 19.6605 28.5065 19.6575 28.4296C19.5794 27.0581 19.5509 25.6611 19.5154 24.3151C19.5154 23.4432 19.4728 22.5765 19.4373 21.6893H20.8154C21.0203 21.7105 21.2292 21.6951 21.4238 21.6444C21.6184 21.5937 21.7925 21.5093 21.9307 21.3987C22.1523 20.9184 22.1892 20.4041 22.0372 19.91C21.9875 19.7315 21.9591 19.548 21.952 19.4103ZM21.0924 18.2937H21.0569L19.8919 18.982C18.9471 19.548 17.9597 20.1343 16.9368 20.6543C16.9304 20.5961 16.9185 20.5381 16.9013 20.481C16.8488 20.2089 16.8179 19.9348 16.8089 19.6601V19.3746L17.8887 18.7271C18.9471 18.0898 20.0198 17.4372 21.0853 16.754C21.0782 17.065 21.0924 18.2937 21.0924 18.2937ZM20.6946 12.099C20.9788 12.099 21.0569 12.1347 21.0782 12.1551C21.1822 12.5759 21.1989 13.0054 21.128 13.4297L21.0711 13.4552L20.9575 13.5317C19.5367 14.4392 18.116 15.3774 16.6029 16.2135C16.6029 15.6425 16.6029 15.0714 16.6029 14.4953C16.6579 14.4849 16.7089 14.4658 16.7521 14.4392C18.0236 13.6592 19.3378 12.8842 20.652 12.1398L20.6946 12.099ZM16.681 16.9375C18.2083 16.1268 19.6291 15.2193 21.064 14.2863V15.9229C19.8777 16.7387 18.599 17.5035 17.363 18.2376L16.7379 18.6149C16.6905 18.0643 16.655 17.5137 16.6313 16.963L16.681 16.9375ZM20.5526 19.3746L21.0996 19.0483V19.3593C21.0996 19.6244 21.0996 19.8692 21.0996 20.1496C21.0996 20.1955 21.0996 20.2771 21.0996 20.3688C21.0996 20.5881 21.1919 20.9959 21.0996 21.0877C21.0072 21.1795 20.9859 21.1438 20.5384 21.1438H18.4286C18.1228 21.1485 17.8174 21.1263 17.5193 21.0775C18.6275 20.5371 19.5936 19.9456 20.5526 19.3746ZM16.6526 12.1041H16.8657C17.1712 12.1041 17.4837 12.1041 17.7963 12.1041H19.3378C18.3362 12.6802 17.4411 13.2105 16.6029 13.7152C16.61 13.1901 16.6242 12.6497 16.6526 12.1041Z" fill="#333333"/>
</svg>
