<svg width="30" height="30" viewBox="0 0 30 30" fill="none" xmlns="http://www.w3.org/2000/svg">
<path d="M29.7664 18.2626C29.406 16.082 28.3736 13.9935 26.7504 12.1614C24.9066 10.1584 22.2676 8.69333 19.8959 7.52534C20.0473 7.48188 20.1858 7.41653 20.3035 7.33302C20.4211 7.24951 20.5155 7.14949 20.5813 7.03868C20.6423 6.93267 20.6737 6.8185 20.6737 6.70314C20.6737 6.58777 20.6423 6.4736 20.5813 6.36759C20.4519 6.15471 20.2392 5.97611 19.9713 5.85531C20.2592 5.58381 20.5265 5.29694 20.7938 5.01518C21.2877 4.46742 21.8451 3.95316 22.4595 3.47836C23.0695 3.0378 23.6179 2.55626 24.1526 2.09521C24.6872 1.63416 25.1602 1.21922 25.7154 0.804273C25.7693 0.76429 25.8064 0.713443 25.8222 0.657946C25.838 0.60245 25.8319 0.544709 25.8045 0.491785C25.7763 0.432934 25.7255 0.381612 25.6584 0.34425C25.5914 0.306888 25.511 0.285147 25.4275 0.281752C24.9751 0.281752 24.557 0.230525 24.1526 0.194665C23.6682 0.147927 23.1808 0.120567 22.6925 0.112701C21.8651 0.0991831 21.0503 0.266545 20.3483 0.59424C20.1255 0.706933 19.9126 0.83013 19.7108 0.96308C19.4134 1.21232 19.0082 1.37551 18.5661 1.42413C18.4024 1.42272 18.241 1.39475 18.0931 1.34216C17.7458 1.20966 17.4288 1.03675 17.1541 0.829887C16.8373 0.591186 16.4659 0.396863 16.0573 0.256138C15.6478 0.132439 15.2104 0.0681151 14.7687 0.0665965C14.4625 0.0673509 14.1579 0.100112 13.8639 0.163928C13.4012 0.290572 12.9632 0.462855 12.5615 0.676204C12.0964 0.955906 11.5362 1.13329 10.9438 1.18848C10.4618 1.17136 10.0033 1.0281 9.64833 0.783782C9.02747 0.310557 8.18992 0.0305302 7.30407 0C6.7258 0.0176691 6.1526 0.0882053 5.59728 0.210033C5.53678 0.22176 5.48093 0.244163 5.43441 0.275361C5.38789 0.30656 5.35208 0.345642 5.32995 0.389329C5.30263 0.43167 5.28844 0.478075 5.28844 0.525084C5.28844 0.572093 5.30263 0.618495 5.32995 0.660837C5.91705 1.35661 6.57473 2.01768 7.29721 2.63822C8.42831 3.53433 9.3339 4.57555 9.97049 5.71188C9.77254 5.77213 9.58591 5.85134 9.41527 5.94752C9.2421 6.02698 9.09935 6.13855 9.00087 6.27139C8.90239 6.40423 8.85151 6.55383 8.8532 6.7057C8.89277 6.85904 8.98137 7.00295 9.11147 7.12516C9.24157 7.24736 9.4093 7.34424 9.60034 7.40751C7.34519 8.304 5.64526 9.76399 4.00017 11.1779L3.52035 11.5877C1.96192 13.0481 0.920056 14.778 0.49064 16.6182C0.0588033 18.1141 -0.475857 20.9931 0.785381 23.4674C1.9545 25.5243 4.01013 27.23 6.62546 28.3135C8.91728 29.3472 11.5305 29.9158 14.2066 29.963C14.7755 29.963 15.3445 29.9938 15.9065 29.9938C18.04 30.0479 20.163 29.7488 22.1236 29.1178C25.0088 28.0942 27.3814 26.4089 28.8959 24.3075C29.9721 22.7297 30.26 20.7574 29.7664 18.2626ZM1.01844 18.1448C1.20352 16.8078 1.77244 14.3028 3.5272 12.5098C6.07024 9.91255 8.48305 8.31424 10.9027 7.61242C10.9575 7.61242 10.9987 7.57144 10.9918 7.5612C11.4919 7.51372 11.9957 7.49147 12.4998 7.4946C13.0619 7.4946 13.624 7.4946 14.1929 7.5407L15.5638 7.58169C15.9065 7.58169 16.3041 7.61242 16.7222 7.63804C17.2432 7.6739 17.7847 7.70976 18.3056 7.70976C18.447 7.71859 18.5892 7.71859 18.7306 7.70976C22.6377 9.60006 26.8533 12.1256 28.4229 16.5107C29.032 18.099 29.264 19.7547 29.1084 21.4029C28.8411 23.6672 27.0863 25.8187 24.1663 27.4734C22.0057 28.716 19.3525 29.3848 16.6263 29.3739H15.9956C13.5828 29.3739 11.0398 29.3073 8.75723 28.4877C6.43454 27.7118 4.40816 26.5143 2.86231 25.0042C0.703126 22.7758 0.737407 20.1683 1.01844 18.1448ZM9.42212 1.37802C9.84576 1.65359 10.3672 1.83153 10.9233 1.8903H11.1083C11.595 1.87335 12.0674 1.76213 12.4792 1.56757C12.7699 1.44452 13.0452 1.30222 13.3018 1.14238C13.6891 0.8418 14.2117 0.659267 14.7687 0.630099C14.9628 0.632785 15.1559 0.651687 15.3445 0.68645C15.9418 0.822234 16.4808 1.07311 16.9073 1.41388L17.1335 1.56757C17.5156 1.86474 18.0301 2.04698 18.5798 2.07984C19.0678 2.05829 19.5295 1.90756 19.8822 1.65465C19.9987 1.58293 20.1084 1.51634 20.2112 1.44462C20.6275 1.1351 21.1277 0.895793 21.6781 0.742801C21.9679 0.682024 22.2683 0.654389 22.5692 0.660837C23.1361 0.671534 23.7016 0.709176 24.2622 0.773536L24.5296 0.799152C24.1937 1.07066 23.8441 1.34729 23.5562 1.62904C23.0147 2.09009 22.4595 2.57163 21.8563 3.01218C21.2355 3.48409 20.6755 3.99864 20.1838 4.54901C19.8616 4.89736 19.4983 5.25595 19.1556 5.57357C18.8343 5.52096 18.5093 5.48162 18.1822 5.45574L17.8601 5.41988C17.072 5.33824 16.2771 5.29886 15.4815 5.30206C14.7138 5.30206 13.9324 5.3328 13.1921 5.36353H12.4518C11.8855 5.35814 11.3194 5.38554 10.7588 5.4455C10.1145 4.25425 9.18543 3.16064 8.01694 2.21816C7.41592 1.68811 6.85085 1.13586 6.32386 0.563503C6.65909 0.472432 7.00986 0.417243 7.36576 0.399575H7.48228C8.05242 0.479917 8.55997 0.719968 8.90118 1.07066C9.06625 1.18099 9.24022 1.28363 9.42212 1.37802ZM13.624 5.98851H14.4465C14.8304 5.98851 15.2142 5.98851 15.5981 5.98851C16.026 5.98555 16.4539 5.99923 16.8799 6.02949C17.394 6.06535 17.9423 6.1217 18.5524 6.20366H18.6346C18.8814 6.2344 19.5532 6.31637 19.6217 6.53152C19.6628 6.65959 19.4915 6.83889 19.1213 7.0438C18.9452 7.10901 18.7479 7.13565 18.5524 7.12064C18.1509 7.11263 17.7503 7.08697 17.3528 7.0438C17.1485 7.02013 16.9425 7.00474 16.7359 6.99769H15.9614C15.5227 6.99769 15.0771 6.99769 14.6316 6.99769H14.4876C13.8639 6.99769 13.2127 6.95159 12.5821 6.95159C11.9912 6.95023 11.4008 6.97417 10.8136 7.02331H10.745C10.61 7.01976 10.4779 6.99295 10.359 6.94496C10.2401 6.89698 10.1376 6.82912 10.0596 6.74668C10.0084 6.69412 9.97588 6.63271 9.96509 6.5682C9.9543 6.5037 9.96559 6.4382 9.9979 6.37784C10.0802 6.22416 11.1426 6.15756 11.5402 6.13707H11.7595C12.3833 6.01412 13.0139 5.99875 13.6514 5.98851H13.624Z" fill="#333333"/>
<path d="M13.2058 22.6324V24.8761C13.2034 24.9149 13.2118 24.9537 13.2307 24.9899C13.2496 25.0261 13.2785 25.0589 13.3155 25.0862C13.3968 25.1438 13.5051 25.1751 13.6171 25.1733C13.6705 25.1746 13.7236 25.168 13.7735 25.1536C13.8233 25.1393 13.8687 25.1177 13.9071 25.0899C13.9455 25.0622 13.976 25.029 13.9969 24.9923C14.0177 24.9555 14.0284 24.916 14.0284 24.8761V22.7092C14.186 22.7092 14.3574 22.7092 14.5288 22.7092H14.7481C15.1409 22.7022 15.5325 22.6748 15.9202 22.6272V22.6938C15.9545 23.3957 15.9888 24.0975 16.0368 24.7993C16.0415 24.8606 16.0699 24.9196 16.1186 24.9691C16.1673 25.0186 16.2341 25.0564 16.311 25.0781C16.3879 25.0998 16.4715 25.1044 16.5518 25.0912C16.6321 25.0781 16.7056 25.0479 16.7633 25.0042C16.7986 24.9764 16.8254 24.9433 16.842 24.907C16.8586 24.8708 16.8645 24.8323 16.8593 24.7942C16.8113 24.0309 16.7702 23.2573 16.7291 22.5043C18.1 22.243 19.6491 21.6385 19.5943 20.2452C19.5394 18.8518 17.8532 18.2985 16.5577 18.0475C16.5577 16.7668 16.5166 15.4349 16.5166 13.98C16.9622 14.0078 17.3945 14.1073 17.7838 14.2718C18.1731 14.4363 18.5101 14.6618 18.7717 14.9328C18.8062 14.9765 18.8554 15.0127 18.9142 15.0378C18.9731 15.063 19.0398 15.0762 19.1076 15.0763C19.1867 15.0756 19.2642 15.0597 19.3327 15.0301C19.4011 15.0005 19.4582 14.9582 19.4983 14.9072C19.5349 14.8644 19.5544 14.8146 19.5544 14.7638C19.5544 14.713 19.5349 14.6632 19.4983 14.6204C19.1446 14.2792 18.6988 13.9974 18.1898 13.7935C17.6808 13.5897 17.12 13.4682 16.544 13.437V12.3612C16.5469 12.3224 16.5386 12.2835 16.5197 12.2473C16.5008 12.2111 16.4717 12.1783 16.4343 12.1512C16.3538 12.0922 16.2455 12.0591 16.1327 12.059C16.0794 12.0576 16.0262 12.0643 15.9764 12.0786C15.9265 12.0929 15.8811 12.1146 15.8427 12.1423C15.8043 12.17 15.7738 12.2032 15.753 12.24C15.7321 12.2767 15.7214 12.3162 15.7215 12.3561V13.3807H15.461C15.0013 13.3816 14.5426 13.4124 14.0901 13.4729V12.4483C14.0919 12.3703 14.0525 12.2948 13.9804 12.2383C13.8991 12.1807 13.7908 12.1494 13.6788 12.1512C13.6252 12.1491 13.5716 12.1552 13.5213 12.1693C13.4711 12.1833 13.4252 12.205 13.3866 12.2328C13.348 12.2607 13.3175 12.2942 13.297 12.3313C13.2766 12.3684 13.2665 12.4082 13.2675 12.4483V13.6419C11.1083 14.1235 10.087 15.1787 10.5257 16.4133C10.9301 17.5301 12.1777 17.9245 13.2675 18.1448V22.0023C12.6796 21.8917 12.1413 21.6665 11.7078 21.3497C11.2743 21.0329 10.961 20.6359 10.7999 20.199C10.7744 20.1369 10.7224 20.0828 10.6519 20.0448C10.5813 20.0069 10.4961 19.9873 10.4092 19.989C10.3404 19.9876 10.2722 19.9985 10.2102 20.0208C10.1482 20.043 10.0942 20.0761 10.0527 20.1171C10.0191 20.1533 9.99785 20.1951 9.99068 20.2388C9.98352 20.2825 9.9907 20.3269 10.0116 20.3681C10.2022 20.9329 10.6037 21.4457 11.1692 21.8466C11.7347 22.2474 12.441 22.5199 13.2058 22.6324ZM11.3962 15.6705C11.5354 15.3882 11.7526 15.131 12.0337 14.9156C12.3148 14.7003 12.6535 14.5316 13.0276 14.4206L13.2264 14.3489V17.5198C12.6394 17.4116 12.1194 17.1568 11.7527 16.7975C11.584 16.6417 11.4644 16.4595 11.4027 16.2644C11.341 16.0693 11.3388 15.8663 11.3962 15.6705ZM14.9126 17.8016L14.5767 17.7606L14.0421 17.6787V14.1337C14.5802 14.0215 15.1354 13.9612 15.694 13.9544C15.694 15.3632 15.694 16.6592 15.7352 17.9194L14.9126 17.8016ZM15.5981 22.0689C15.2485 22.0945 14.9126 22.1098 14.6179 22.1098C14.4191 22.1098 14.2203 22.1098 14.0352 22.1098V18.278C14.3368 18.3241 14.6453 18.3651 14.94 18.401L15.7557 18.5137C15.7557 19.6868 15.8311 20.865 15.886 22.0381L15.5981 22.0689ZM16.7085 21.9049C16.6605 20.824 16.6125 19.7482 16.5851 18.6673C17.4762 18.8671 18.4838 19.2206 18.6415 20.1529C18.8197 21.2031 17.7093 21.6847 16.7017 21.9049H16.7085Z" fill="#333333"/>
<path d="M3.09537 18.401C3.62528 16.4295 4.72734 14.5689 6.32386 12.9503C6.36647 12.9124 6.39311 12.8659 6.40042 12.8167C6.40774 12.7675 6.39541 12.7177 6.36499 12.6737C6.32572 12.6196 6.26714 12.5746 6.19575 12.5439C6.12435 12.5131 6.04294 12.4978 5.96057 12.4995C5.89402 12.4993 5.82833 12.5108 5.7688 12.5331C5.70927 12.5553 5.65756 12.5877 5.61785 12.6276C3.97685 14.3039 2.84255 16.2266 2.29338 18.2626C2.28178 18.3073 2.28311 18.3532 2.2973 18.3974C2.31149 18.4416 2.33821 18.483 2.37564 18.5188C2.41947 18.5578 2.47393 18.5895 2.53539 18.6115C2.59685 18.6336 2.66391 18.6457 2.73208 18.6469C2.82278 18.6472 2.91035 18.6221 2.97757 18.5766C3.0448 18.5311 3.08682 18.4684 3.09537 18.401Z" fill="#333333"/>
<path d="M7.13271 11.936C7.18694 11.9375 7.24097 11.9305 7.29139 11.9155C7.34182 11.9006 7.38751 11.8779 7.42556 11.849C7.4636 11.82 7.49317 11.7855 7.51238 11.7476C7.53159 11.7097 7.54002 11.6692 7.53712 11.6287C7.54005 11.5514 7.50325 11.4762 7.4343 11.4186C7.3965 11.387 7.34994 11.3619 7.29786 11.3451C7.24577 11.3283 7.18942 11.3202 7.13271 11.3213C7.07707 11.3206 7.0219 11.3289 6.97101 11.3457C6.92011 11.3625 6.87471 11.3874 6.83796 11.4186C6.76901 11.4762 6.73222 11.5514 6.73514 11.6287C6.73231 11.6687 6.74054 11.7088 6.75933 11.7464C6.77813 11.7839 6.80709 11.8182 6.84439 11.847C6.88169 11.8759 6.92654 11.8987 6.97614 11.914C7.02575 11.9293 7.07905 11.9368 7.13271 11.936Z" fill="#333333"/>
</svg>
