<svg width="30" height="30" viewBox="0 0 30 30" fill="none" xmlns="http://www.w3.org/2000/svg">
<path d="M28.0783 16.2115H27.771C26.9516 16.1397 26.0656 16.1039 24.9798 16.1039H22.7315C21.3692 16.1039 20.012 16.1346 18.6343 16.1346H14.7573C14.6762 16.1466 14.5935 16.1409 14.5148 16.1179C14.4361 16.0949 14.3634 16.0552 14.3015 16.0014C14.211 15.6131 14.2022 15.2102 14.2759 14.8183C14.2759 14.639 14.3066 14.4802 14.3066 14.3829C14.2707 9.30693 14.1837 4.7227 14.0249 0.368958C14.0239 0.324576 14.0134 0.280923 13.9942 0.240907C13.9741 0.184821 13.9362 0.136889 13.8862 0.104493C13.8362 0.0720973 13.777 0.0570399 13.7176 0.0616402C9.80992 0.251156 6.72165 1.79289 3.98677 4.91222L3.70509 5.2349C2.74225 6.33614 1.74355 7.46812 1.2314 8.82034C0.777524 9.99978 0.434606 11.219 0.207098 12.4621C-0.817203 18.6086 2.00475 24.5245 7.63841 27.9512C9.79912 29.2702 12.2772 29.9783 14.8085 30C15.1926 30 15.5767 30 15.9557 29.9437C19.6637 29.6056 23.09 28.3558 25.3588 26.5221C27.8274 24.5245 28.9439 21.2106 29.4048 18.7776C29.4048 18.6905 29.4611 18.5625 29.497 18.4139C29.6609 17.7993 29.9067 16.8773 29.6148 16.5137C29.4458 16.2678 28.6212 16.2319 28.0783 16.2115ZM29.0514 17.6047C28.7527 19.7566 28.0433 21.831 26.9619 23.7153C25.5534 26.0919 22.9671 27.8129 19.2796 28.7656C17.8142 29.181 16.3008 29.4031 14.7778 29.4263C13.9426 29.4329 13.1098 29.3348 12.299 29.1344C10.0701 28.59 7.97769 27.5908 6.15317 26.1994C2.05597 23.0699 0.0637057 18.0042 0.857539 12.6465C1.05679 11.5478 1.34978 10.4683 1.73331 9.41961C2.20449 8.03154 3.11613 6.96616 4.07897 5.83418L4.18139 5.71638C5.26891 4.33164 6.58536 3.14324 8.07374 2.20265C9.72862 1.29841 11.5718 0.79327 13.4564 0.7275C13.6306 5.70613 13.7228 10.8589 13.7381 16.4624C13.7381 16.5028 13.7461 16.5428 13.7615 16.58C13.777 16.6173 13.7996 16.6512 13.8281 16.6797C13.8567 16.7083 13.8905 16.7309 13.9278 16.7464C13.9651 16.7618 14.0051 16.7698 14.0454 16.7698C14.9314 16.7698 15.8175 16.7698 16.7035 16.7698H21.6355C22.1476 16.7698 22.6239 16.7698 23.1156 16.7698C23.7558 16.7698 24.396 16.7442 25.0413 16.7442H25.6303C26.547 16.7442 27.305 16.8005 28.0117 16.8722C28.2176 16.8932 28.4245 16.9034 28.6315 16.9029C28.8722 16.9029 29.0156 16.9029 29.0719 16.9798C29.1282 17.0566 29.1026 17.2256 29.0463 17.6047H29.0514Z" fill="#333333"/>
<path d="M28.5905 7.72935C27.9127 6.15948 26.8946 4.75986 25.6098 3.63171C22.8134 0.932392 19.1567 0.169201 16.5601 0.000173143C16.5091 -0.00172148 16.4587 0.01197 16.4157 0.0394232C16.3727 0.0668764 16.3391 0.106789 16.3194 0.153836C16.2895 0.20145 16.2736 0.256434 16.2733 0.312618C16.2733 2.50485 16.2937 4.6988 16.3347 6.89445C16.3757 9.0901 16.3945 11.3097 16.391 13.5531C16.3924 13.6351 16.4259 13.7133 16.4843 13.7707C16.5428 13.8282 16.6215 13.8605 16.7035 13.8604C17.318 13.8297 17.9787 13.8143 18.7213 13.8143C19.6278 13.8143 20.5395 13.8143 21.446 13.8604L23.1566 13.8912H25.6302C26.9852 13.869 28.3402 13.9358 29.6865 14.0909H29.7172C29.7554 14.0894 29.7929 14.08 29.8273 14.0632C29.8617 14.0465 29.8922 14.0228 29.9169 13.9936C29.9461 13.9664 29.9687 13.9329 29.9829 13.8956C29.9971 13.8583 30.0026 13.8182 29.9989 13.7785C29.8091 11.707 29.3352 9.67156 28.5905 7.72935ZM17.4666 0.681406C17.2665 0.881582 17.0767 1.09187 16.8981 1.31142V0.619944C17.0825 0.640433 17.2771 0.655796 17.4666 0.681406ZM16.9954 2.17192C17.3491 1.66253 17.7636 1.19812 18.2297 0.788973C18.6599 0.85556 19.0901 0.947754 19.4998 1.05019C18.6496 1.96704 17.7841 2.92998 16.9391 3.92878V2.259C16.9627 2.23344 16.9818 2.20398 16.9954 2.17192ZM21.364 1.65972C19.8276 3.19633 18.3475 4.80977 16.9442 6.48981V4.861C17.9685 3.63683 19.085 2.41778 20.1912 1.23459C20.5702 1.35752 20.9748 1.50094 21.364 1.65972ZM24.6828 3.67268C24.2615 4.18188 23.7896 4.64696 23.2744 5.06076C23.0285 5.27588 22.7622 5.49101 22.5471 5.71126C21.8711 6.35664 21.1745 7.0686 20.4217 7.883L19.8583 8.50277C19.4742 8.93303 19.0798 9.37864 18.6548 9.78329C18.3782 10.0496 18.076 10.2955 17.7892 10.5465C17.5024 10.7975 17.2463 11.0023 16.9903 11.2482V9.86524C17.6509 9.19938 18.2809 8.48741 18.8955 7.81642C19.4076 7.22739 19.9607 6.62298 20.519 6.04419C20.8724 5.68053 21.2565 5.32711 21.6304 4.98905C22.3847 4.36537 23.0559 3.64756 23.6277 2.85316C24.0079 3.10355 24.3723 3.37725 24.7186 3.67268H24.6828ZM21.0158 4.69709C20.5856 5.08637 20.14 5.48589 19.7456 5.91102C19.3513 6.33615 18.8852 6.84836 18.4601 7.31958C18.0351 7.79081 17.4768 8.42082 16.9647 8.95352V7.42202C16.9868 7.41123 17.006 7.39545 17.021 7.37593C18.5864 5.47553 20.2461 3.65491 21.994 1.92094C22.376 2.09796 22.7487 2.29457 23.1105 2.50998C22.5096 3.33098 21.8056 4.07122 21.0158 4.71246V4.69709ZM17.6048 13.3124H17.5127C17.4008 13.3244 17.2878 13.3067 17.1849 13.2612C16.9339 13.0665 16.9595 12.7489 16.98 12.4109C16.99 12.3241 16.99 12.2365 16.98 12.1497C17.3667 11.7396 17.7808 11.3563 18.2194 11.0023C18.5062 10.7616 18.8033 10.4901 19.085 10.2443C19.5561 9.79353 20.0017 9.29669 20.4319 8.81522C20.6726 8.54375 20.9185 8.26716 21.1694 8.00082C21.6816 7.45788 22.2603 6.93543 22.8237 6.43347C23.6643 5.71749 24.4422 4.93095 25.1488 4.08245C25.4345 4.3465 25.7063 4.62517 25.9631 4.91734L26.0707 5.04539C23.3051 7.98545 20.4524 10.7514 17.6048 13.3124ZM23.725 10.1521C22.6912 11.2485 21.5987 12.2881 20.4524 13.2663H18.5677C21.2514 10.8794 23.9094 8.28253 26.4702 5.54735C26.7865 5.9482 27.074 6.37097 27.3306 6.8125C26.0555 7.83471 24.8509 8.94188 23.725 10.1265V10.1521ZM24.1092 10.6233C25.2041 9.44513 26.3798 8.34465 27.6276 7.32983C27.8204 7.7213 27.9914 8.12314 28.1398 8.53351C26.5726 10.193 24.9286 11.8014 23.2846 13.3073L21.3487 13.2765C22.3269 12.416 23.2334 11.494 24.1092 10.5977V10.6233ZM28.3805 9.18401C28.4778 9.48109 28.57 9.78328 28.6571 10.1009C28.6827 10.1828 28.7288 10.3365 28.7902 10.526L28.8261 10.6489L28.4983 11.0023C27.7649 11.828 26.9834 12.6096 26.1578 13.3431L24.1757 13.3175C25.62 11.9653 27.054 10.5772 28.3805 9.1584V9.18401ZM29.3587 13.2816C29.1308 13.4416 28.8509 13.5093 28.5751 13.4712C28.2268 13.4712 27.8325 13.4251 27.4842 13.3892L27.0387 13.3431C27.7403 12.6977 28.401 11.9909 29.036 11.2943C29.4611 12.7387 29.4458 13.169 29.3587 13.2765V13.2816Z" fill="#333333"/>
<path d="M5.22617 7.6013C5.1499 7.6013 5.07655 7.63064 5.02132 7.68324C3.38237 9.34834 2.46279 11.5905 2.46057 13.927C2.45758 13.967 2.46318 14.0072 2.47698 14.0449C2.49078 14.0826 2.51247 14.1168 2.54059 14.1455C2.56871 14.1741 2.60263 14.1964 2.64006 14.2108C2.67748 14.2252 2.71755 14.2315 2.75761 14.2292C2.79813 14.2313 2.83867 14.2252 2.87678 14.2112C2.91489 14.1973 2.9498 14.1758 2.97944 14.1481C3.00907 14.1204 3.03281 14.087 3.04925 14.0499C3.0657 14.0128 3.0745 13.9727 3.07514 13.9321C3.14172 12.2521 3.58729 9.87548 5.47712 8.12374C5.52069 8.08602 5.55112 8.03541 5.56401 7.97924C5.5769 7.92307 5.57159 7.86424 5.54883 7.8113C5.52475 7.74626 5.48036 7.69072 5.42225 7.6529C5.36413 7.61507 5.29538 7.59698 5.22617 7.6013Z" fill="#333333"/>
<path d="M6.11731 6.69981C6.07484 6.69797 6.03251 6.70578 5.99348 6.72263C5.95445 6.73948 5.91975 6.76495 5.89197 6.79713C5.84438 6.85666 5.81904 6.93093 5.82027 7.00713C5.81816 7.04718 5.82431 7.08723 5.83836 7.1248C5.8524 7.16236 5.87402 7.19664 5.90189 7.22547C5.92976 7.25431 5.96328 7.27709 6.00034 7.2924C6.0374 7.30771 6.07722 7.31521 6.11731 7.31445C6.15964 7.31523 6.20164 7.30695 6.24051 7.29016C6.27937 7.27338 6.3142 7.24848 6.34266 7.21714C6.38951 7.1572 6.41478 7.08321 6.41437 7.00713C6.41649 6.96709 6.41033 6.92703 6.39629 6.88946C6.38224 6.8519 6.36061 6.81763 6.33274 6.7888C6.30487 6.75996 6.27135 6.73718 6.23429 6.72187C6.19722 6.70656 6.15741 6.69905 6.11731 6.69981Z" fill="#333333"/>
</svg>
