<svg width="30" height="30" viewBox="0 0 30 30" fill="none" xmlns="http://www.w3.org/2000/svg">
<path d="M30 23.6884V23.3359C30 22.0509 30 21.4596 28.7646 21.4596H24.8165C24.6367 21.4336 24.4549 21.4585 24.2825 21.5329C24.1101 21.6073 23.9509 21.7294 23.8149 21.8917C23.5388 22.6398 23.4425 23.4871 23.5394 24.3139C23.5394 24.5186 23.5394 24.6891 23.5394 24.837C23.5394 25.8036 23.5394 26.7702 23.5394 27.714C23.5394 28.3395 23.5394 28.9649 23.5394 29.5903C23.5394 29.6989 23.5711 29.803 23.6274 29.8798C23.6838 29.9566 23.7602 29.9997 23.8399 29.9997H29.5576C29.6115 30.0022 29.6648 29.983 29.7108 29.9446C29.7568 29.9062 29.7935 29.8502 29.8164 29.7837V29.7041C29.8212 29.6664 29.8212 29.628 29.8164 29.5903C30 27.5776 30 25.4965 30 23.6884ZM24.2573 22.9265C24.2417 22.8558 24.2382 22.7812 24.2469 22.7083C24.2555 22.6355 24.2762 22.5662 24.3073 22.5058C24.3569 22.4396 24.4156 22.3874 24.4801 22.3522C24.5446 22.3171 24.6135 22.2997 24.683 22.3011H28.6645C29.1987 22.3011 29.3155 22.3693 29.3489 23.2108C29.3489 23.6202 29.3489 24.0637 29.3489 24.5072C29.3489 25.1668 29.3489 25.8263 29.3489 26.4859C29.3489 27.3501 29.3489 28.2371 29.3489 29.1127H24.2072V27.6344L24.1571 26.1561C24.1571 25.9173 24.1571 25.6444 24.1571 25.3487C24.0678 24.5427 24.0904 23.7211 24.2239 22.9265H24.2573Z" fill="#333333"/>
<path d="M22.1621 17.1724C22.2629 16.2595 22.2317 15.3285 22.0703 14.4319C21.9535 13.9997 21.9451 13.977 21.6613 13.8405H21.5778C21.3078 13.7263 21.0259 13.6725 20.7431 13.6813C20.4343 13.6813 20.1088 13.6813 19.7916 13.7609C19.4744 13.8405 19.2407 13.8292 18.9569 13.8292L18.2808 13.7723C17.997 13.7723 17.6965 13.7041 17.4461 13.7041C16.7783 13.7041 15.9853 13.8633 15.8434 15.1483C15.757 16.1329 15.7291 17.1255 15.76 18.1163C15.76 18.4688 15.76 18.8213 15.76 19.1739C15.76 21.2776 15.76 23.3928 15.76 25.4965C15.76 26.8611 15.76 28.2144 15.76 29.579C15.7621 29.6866 15.7944 29.7891 15.8503 29.8653C15.9062 29.9414 15.9814 29.9855 16.0605 29.9884H21.7782C21.8333 29.9915 21.8877 29.9713 21.934 29.9306C21.9804 29.8898 22.0163 29.8306 22.0369 29.7609V29.6927C22.0416 29.6551 22.0416 29.6166 22.0369 29.579C22.1342 27.3374 22.1481 25.0905 22.0787 22.8469C22.0787 21.3231 22.0202 19.7538 22.0787 18.2186C22.1121 17.8661 22.1371 17.525 22.1621 17.1724ZM21.5612 17.7638C21.5612 18.1959 21.4944 18.5712 21.4944 18.9009C21.4944 20.1973 21.4944 21.5164 21.5361 22.8014C21.5361 24.8938 21.6112 27.0545 21.5361 29.1582H18.4728C18.3058 29.1582 18.1055 29.1582 17.8968 29.1582C17.6528 29.1942 17.4077 29.2132 17.1623 29.2151C16.9674 29.2251 16.7728 29.1905 16.5863 29.1127H16.4194C16.4219 29.0635 16.4219 29.0141 16.4194 28.9649C16.3635 28.5247 16.3635 28.0746 16.4194 27.6344C16.4194 27.407 16.4194 27.2023 16.4194 27.0317V24.4162C16.4194 22.5399 16.4194 20.6522 16.4194 18.7304C16.4194 18.5371 16.4194 18.2755 16.4194 17.9798C16.3777 16.8427 16.3192 15.1483 16.7616 14.7389C17.0736 14.5113 17.4274 14.4125 17.78 14.4546C18.1138 14.4546 18.4728 14.4546 18.7899 14.5342L19.4911 14.6024C19.6664 14.6024 19.8667 14.6024 20.067 14.6024C20.2674 14.6024 20.5094 14.6024 20.7181 14.6024C20.8892 14.5973 21.0602 14.6202 21.2273 14.6707C21.2883 14.6799 21.3499 14.6799 21.4109 14.6707C21.4436 14.6839 21.4784 14.6839 21.5111 14.6707C21.5111 14.6707 21.5612 14.8071 21.6112 14.9322C21.7496 15.8694 21.7325 16.8368 21.5612 17.7638Z" fill="#333333"/>
<path d="M14.2909 18.8441C14.2909 18.2528 14.2909 17.7069 13.8068 17.3658C13.6322 17.2544 13.4401 17.2036 13.2475 17.2179C13.0973 17.2179 12.9387 17.2179 12.7968 17.2179H12.4462C11.9788 17.2179 11.5114 17.2179 11.0606 17.1497H10.2593C10.0089 17.1497 9.71675 17.0701 9.42461 17.0701C9.18398 17.0258 8.93907 17.0617 8.71084 17.1746C8.48261 17.2875 8.27786 17.474 8.11412 17.7183C7.90607 18.3246 7.8335 19.0008 7.90545 19.6628C7.90545 19.8448 7.90545 20.0267 7.90545 20.1746C7.90545 22.2442 7.90545 24.3594 7.90545 26.3949C7.90545 27.4411 7.90545 28.4873 7.90545 29.5335C7.90756 29.6412 7.93989 29.7436 7.9958 29.8198C8.0517 29.8959 8.12691 29.94 8.20594 29.9429H13.9236C13.9858 29.9416 14.046 29.9133 14.0955 29.8622C14.1451 29.811 14.1813 29.7397 14.1991 29.6586C14.2077 29.6177 14.2077 29.5744 14.1991 29.5335C14.3331 26.0827 14.3331 22.6247 14.1991 19.1739C14.2909 19.0601 14.2909 18.9464 14.2909 18.8441ZM8.57321 18.5029C8.75684 18.0822 9.24097 17.8775 10.059 17.8775C10.5697 17.8912 11.0795 17.9405 11.5865 18.0253C11.9371 18.0253 12.2375 18.1163 12.4212 18.1163H13.0556C13.1276 18.1034 13.2005 18.1034 13.2726 18.1163L13.5397 18.1959H13.6232C13.6023 18.2564 13.5915 18.3224 13.5915 18.3892C13.5915 18.456 13.6023 18.522 13.6232 18.5825C13.6709 18.9206 13.6709 19.2679 13.6232 19.606C13.6232 19.7766 13.6232 19.9358 13.6232 20.0722C13.6816 22.7218 13.7484 26.031 13.6232 29.1696H10.7434C10.1508 29.1696 9.63328 29.1696 9.1575 29.2265H8.72346C8.51478 29.2265 8.50643 29.2265 8.49809 28.5441V26.4518C8.49809 24.9393 8.49809 23.4155 8.49809 21.9031C8.49809 21.687 8.49809 21.4027 8.49809 21.0729C8.37629 20.2199 8.40201 19.34 8.57321 18.5029Z" fill="#333333"/>
<path d="M6.47811 18.7645C6.47811 17.525 6.47811 16.2513 6.47811 15.0232C6.47811 13.0218 6.53654 10.9521 6.47811 8.93933V8.7119C6.51082 8.31102 6.43676 7.90747 6.26943 7.57473C6.02551 7.34581 5.72903 7.24484 5.43473 7.29043C5.15093 7.29043 4.85879 7.29043 4.60003 7.37003C4.4419 7.39022 4.28303 7.39781 4.12425 7.39278H1.36973C1.14585 7.36791 0.920699 7.41062 0.710319 7.51787C0.359744 7.77942 0.309662 8.14331 0.242886 8.65504C0.0070606 10.9411 -0.0572651 13.2539 0.0509047 15.5577C0.0509047 16.3764 0.0509047 17.1952 0.0509047 17.9912C0.0509047 20.1518 0.0509047 22.3125 0.0509047 24.4731V29.5903C0.0530799 29.7 0.086576 29.8041 0.144261 29.8805C0.201945 29.957 0.279261 29.9998 0.359744 29.9997H6.16092C6.21814 30.0027 6.27461 29.9813 6.32248 29.9385C6.37035 29.8957 6.40725 29.8336 6.42803 29.7609H6.37794H6.44472C6.45043 29.7273 6.45043 29.6923 6.44472 29.6586C6.5643 27.069 6.5838 24.4727 6.50315 21.8803C6.50315 20.7545 6.48645 19.7652 6.47811 18.7645ZM5.87712 29.1127H1.39477C1.16654 29.1261 0.939945 29.1718 0.718666 29.2492C0.718666 29.181 0.718666 29.09 0.718666 29.0218C0.721615 28.9536 0.721615 28.8852 0.718666 28.8171C0.630629 27.8362 0.613854 26.8458 0.668584 25.8604C0.668584 25.3714 0.668584 24.8825 0.668584 24.4162V23.4951C0.693625 19.9017 0.676931 16.1831 0.701972 12.51V12.0552C0.692864 11.1024 0.720726 10.1496 0.785442 9.20088C0.860565 8.31389 1.06089 8.27977 1.62014 8.20017C1.80356 8.18291 1.98763 8.18291 2.17105 8.20017H5.00903C5.16763 8.20017 5.29283 8.20017 5.40134 8.20017H5.58498C5.70183 8.20017 5.77696 8.20017 5.86043 8.66641C5.95319 9.50698 5.95319 10.3617 5.86043 11.2023C5.86043 11.6003 5.86043 11.9756 5.86043 12.3395C5.86043 13.9997 5.86043 15.751 5.86043 17.3316V17.8206C5.86043 18.9578 5.86043 20.095 5.86043 21.1753C5.96059 23.7567 6.00233 26.4745 5.87712 29.1127Z" fill="#333333"/>
<path d="M17.7215 6.28972C17.9252 6.1339 18.1492 6.03349 18.381 5.99406C19.1014 6.13368 19.7752 6.56106 20.3175 7.2222C22.2289 9.34871 24.1404 11.5889 26.1604 14.0452H25.9267C25.5844 14.0452 25.2339 13.9429 24.8749 13.9315C24.8028 13.9478 24.7372 13.9985 24.6899 14.0745C24.6427 14.1505 24.6167 14.2469 24.6167 14.3466C24.6167 14.4462 24.6427 14.5426 24.6899 14.6186C24.7372 14.6946 24.8028 14.7453 24.8749 14.7616C25.2088 14.7616 25.551 14.8299 25.8849 14.8754C26.2609 14.9509 26.6401 14.9927 27.0201 15.0005H27.0869C27.1292 14.9994 27.171 14.9867 27.2097 14.9633C27.2484 14.9398 27.2833 14.9061 27.3123 14.864C27.3422 14.8092 27.3635 14.7466 27.375 14.6801C27.3865 14.6136 27.3879 14.5446 27.379 14.4774C27.3175 13.9846 27.231 13.4983 27.1203 13.0218C27.0104 12.5535 26.9267 12.0745 26.8699 11.5889C26.8617 11.5035 26.8309 11.4251 26.7832 11.3686C26.7355 11.312 26.6743 11.2812 26.6111 11.2819C26.5604 11.2836 26.5104 11.2997 26.4644 11.329C26.4185 11.3584 26.3775 11.4004 26.344 11.4525C26.3142 11.5007 26.2927 11.5574 26.2812 11.6184C26.2696 11.6794 26.2683 11.7432 26.2772 11.805C26.3417 12.3006 26.4281 12.7905 26.536 13.272L26.5861 13.488C24.683 11.2137 22.8883 9.05305 21.1021 7.04025C20.9685 6.89242 20.8183 6.6991 20.668 6.50578C20.2099 5.77888 19.6022 5.25598 18.9235 5.00472H18.7649C17.953 5.1378 17.1693 5.4937 16.4611 6.05092C16.1857 6.23286 15.9269 6.40344 15.7016 6.52853C14.6248 7.11986 13.548 7.6657 12.513 8.33663L12.1958 8.54132C11.9418 8.7501 11.6565 8.87836 11.3611 8.91659C11.1878 8.90948 11.0198 8.83446 10.877 8.70052C10.5434 8.36904 10.2382 7.98759 9.96716 7.56335C9.80022 7.31318 9.64162 7.07437 9.47468 6.85831C7.88875 4.7318 6.05241 2.59392 3.7069 0.0921413C3.66476 0.0487038 3.61566 0.0195111 3.56363 0.00696329C3.5116 -0.00558451 3.45812 -0.00112873 3.4076 0.0199636C3.35708 0.041056 3.31096 0.0781826 3.27302 0.128292C3.23508 0.178401 3.20642 0.240061 3.18938 0.308204C3.1744 0.378832 3.176 0.454075 3.19396 0.523402C3.21192 0.592729 3.24534 0.652672 3.28954 0.694842C5.99171 3.50743 8.54139 6.58198 10.9187 9.89455C10.9449 9.93449 10.9771 9.96631 11.0131 9.98789C11.0491 10.0095 11.0881 10.0203 11.1274 10.0196C11.18 10.0292 11.2334 10.0292 11.286 10.0196C12.7467 9.12128 14.1073 8.33663 15.4595 7.59747C16.1273 7.2222 16.8034 6.85831 17.4795 6.4603L17.7215 6.28972Z" fill="#333333"/>
<path d="M2.12931 8.92795H2.01245C1.5784 8.92795 1.31965 9.2691 1.24452 9.94003C1.14463 11.0046 1.14463 12.0822 1.24452 13.1469C1.25474 13.2574 1.29438 13.359 1.35592 13.4323C1.41747 13.5057 1.49663 13.5457 1.5784 13.5449C1.61897 13.5457 1.65922 13.535 1.69658 13.5135C1.73395 13.4919 1.76761 13.46 1.79543 13.4198C1.82017 13.3814 1.83827 13.3359 1.84838 13.2867C1.8585 13.2375 1.86037 13.1858 1.85386 13.1355V13.0673C1.71196 11.2705 1.75369 10.1902 1.97071 9.86043C1.98993 9.8322 2.01316 9.80958 2.03898 9.79394C2.06481 9.7783 2.0927 9.76997 2.12096 9.76946V9.7126L2.17104 9.78083C2.20852 9.78592 2.24636 9.7798 2.28192 9.76291C2.31748 9.74601 2.3499 9.71875 2.37693 9.68301C2.40395 9.64728 2.42492 9.60394 2.43838 9.55602C2.45184 9.50809 2.45746 9.45675 2.45484 9.40557C2.4583 9.34452 2.45244 9.28316 2.43764 9.22535C2.42283 9.16754 2.3994 9.11454 2.36882 9.06967C2.33824 9.02481 2.30117 8.98905 2.25995 8.96466C2.21873 8.94027 2.17425 8.92777 2.12931 8.92795Z" fill="#333333"/>
<path d="M2.96401 8.96208C2.92205 8.95964 2.8802 8.96954 2.84131 8.99113C2.80242 9.01272 2.7674 9.04547 2.73864 9.08717C2.68931 9.16653 2.66263 9.26747 2.66352 9.37146C2.66118 9.42658 2.66729 9.48176 2.68146 9.53349C2.69562 9.58522 2.71753 9.63237 2.74579 9.67194C2.77405 9.71151 2.80805 9.74264 2.84562 9.76335C2.88318 9.78405 2.9235 9.79388 2.96401 9.79221C3.00548 9.79399 3.04668 9.78259 3.08435 9.7589C3.12202 9.73521 3.15512 9.6999 3.18103 9.65575C3.24331 9.5842 3.28231 9.48201 3.28955 9.37146C3.29253 9.31366 3.28593 9.25568 3.27025 9.20181C3.25456 9.14795 3.23019 9.09957 3.19894 9.06027C3.16768 9.02096 3.13035 8.99173 3.08968 8.97474C3.04902 8.95774 3.00607 8.95342 2.96401 8.96208Z" fill="#333333"/>
</svg>
