<svg width="30" height="30" viewBox="0 0 30 30" fill="none" xmlns="http://www.w3.org/2000/svg">
<path d="M5.22975 21.595H1.2217C0.0787131 21.595 0.0685523 22.0935 0.0380728 23.4248V23.6365C-0.0238122 25.6092 -0.0102469 27.5849 0.0787131 29.5558C0.0825453 29.5939 0.0911341 29.6308 0.104114 29.665H0.149832L0.119353 29.747C0.142183 29.8151 0.179375 29.8728 0.226322 29.9128C0.273269 29.9529 0.327916 29.9735 0.383511 29.9723H6.09335C6.17338 29.9689 6.24943 29.9246 6.30605 29.8485C6.36267 29.7724 6.39559 29.6702 6.39814 29.5626C6.39814 28.9482 6.39814 28.3337 6.42354 27.7192C6.42354 26.8658 6.4591 26.0192 6.45402 25.1658C6.45402 25.0019 6.45402 24.7971 6.45402 24.5786C6.4845 23.7389 6.52005 22.5919 6.18986 22.0184C6.0636 21.8557 5.91179 21.7333 5.74562 21.66C5.57945 21.5867 5.40316 21.5645 5.22975 21.595ZM3.16731 22.4553H3.62958C3.73626 22.4553 3.87341 22.4553 4.03089 22.4553C4.18837 22.4553 4.50333 22.4075 4.75225 22.4075C5.26024 22.4075 5.61075 22.5236 5.76823 22.7694C5.85635 23.2908 5.88546 23.8271 5.85459 24.3602C5.85459 24.4967 5.85459 24.6059 5.85459 24.681C5.85459 25.2341 5.85459 25.7939 5.85459 26.3469C5.85459 26.8999 5.85459 27.3028 5.82919 27.7739C5.80379 28.2449 5.82919 28.7433 5.82919 29.2213H0.673063C0.647663 28.4976 0.673063 27.7602 0.673063 27.0502C0.673063 26.3401 0.673063 25.6847 0.673063 24.961C0.673063 24.4899 0.673063 24.0324 0.673063 23.5613C0.698463 22.6328 0.789905 22.5031 1.3995 22.5031H2.04465L3.16731 22.4553Z" fill="#333333"/>
<path d="M12.6109 13.9415C12.3264 13.9415 12.0267 13.9757 11.7422 14.0098C11.4577 14.044 11.2647 14.0644 11.0259 14.0713C10.7872 14.0781 10.6348 14.0713 10.3808 14.0098C10.1268 13.9484 9.69501 13.9279 9.36481 13.9279C8.54695 13.9279 8.07959 14.1873 7.93736 14.7267C7.77917 15.6052 7.75155 16.517 7.85608 17.4099C7.85608 17.7581 7.89672 18.0926 7.9018 18.3998C7.9018 19.9155 7.9018 21.4585 7.87132 22.9537C7.79942 25.1674 7.81129 27.3846 7.90688 29.5968C7.90565 29.6309 7.90565 29.6651 7.90688 29.6992V29.7674C7.92777 29.838 7.96435 29.8981 8.01163 29.9397C8.05891 29.9812 8.11458 30.0022 8.17104 29.9996H13.8809C13.9609 29.9962 14.037 29.9519 14.0936 29.8758C14.1502 29.7997 14.1831 29.6975 14.1857 29.5899C14.1857 28.2245 14.1857 26.9136 14.2111 25.5754C14.2111 23.5272 14.2466 21.4175 14.2415 19.342C14.2415 18.9938 14.2415 18.6593 14.2415 18.2906C14.2774 17.3177 14.2519 16.3424 14.1653 15.3753C14.0536 14.1054 13.2814 13.9415 12.6109 13.9415ZM8.49107 15.15C8.54187 15.0203 8.56219 14.9452 8.58251 14.8906H8.70951C8.7687 14.8963 8.82812 14.8963 8.88731 14.8906C9.02704 14.8654 9.16796 14.854 9.30893 14.8564C9.49181 14.8564 9.67469 14.8564 9.86265 14.8564C10.0506 14.8564 10.2233 14.8564 10.4418 14.8564C10.6348 14.8564 10.8837 14.8564 11.158 14.7881C11.4323 14.7199 11.9048 14.6926 12.2705 14.6926C12.6431 14.6489 13.017 14.7509 13.3475 14.9861C13.7894 15.4026 13.7285 17.0344 13.6827 18.1677C13.6827 18.4613 13.6827 18.7207 13.6827 18.9187C13.6827 20.7826 13.6827 22.6396 13.6827 24.4967V27.0638C13.6827 27.2413 13.6827 27.4461 13.6827 27.6646C13.7276 28.1008 13.7173 28.544 13.6523 28.9755V29.0847C13.5929 29.0902 13.5345 29.1087 13.4796 29.1393C13.2954 29.2151 13.1029 29.2475 12.9106 29.2349C12.6718 29.2349 12.4026 29.2349 12.174 29.1803C11.9454 29.1257 11.7625 29.1325 11.6 29.1325H8.55203C8.45043 27.0501 8.49107 24.92 8.55203 22.865C8.55203 21.6019 8.59775 20.2979 8.58759 19.0211C8.58759 18.748 8.55711 18.3725 8.52663 17.9424C8.35391 16.9729 8.25232 15.7372 8.49107 15.15Z" fill="#333333"/>
<path d="M22.0697 19.8336C22.1344 19.1958 22.0677 18.5464 21.8767 17.9561C21.6633 17.5123 21.2214 17.2733 20.5356 17.2733C20.246 17.2733 19.9565 17.3075 19.7025 17.3416L19.3265 17.3826H18.9252C18.4731 17.4167 18.0007 17.4508 17.5333 17.4508C17.4267 17.4508 17.3047 17.4508 17.1777 17.4508C17.031 17.4291 16.8834 17.4177 16.7358 17.4167C16.5624 17.4091 16.3896 17.4486 16.2278 17.5328C15.7198 17.8332 15.7198 18.4067 15.7198 19.0075C15.7198 19.1167 15.7198 19.2259 15.7198 19.3352C15.5867 22.7465 15.5867 26.1649 15.7198 29.5763C15.7288 29.6372 15.7425 29.6966 15.7604 29.7538C15.7833 29.8219 15.8205 29.8796 15.8674 29.9196C15.9144 29.9597 15.969 29.9803 16.0246 29.9791H21.7141C21.7941 29.9757 21.8702 29.9314 21.9268 29.8553C21.9834 29.7792 22.0164 29.677 22.0189 29.5695C22.0189 28.5454 22.0189 27.5212 22.0494 26.4835C22.0748 24.4762 22.1002 22.387 22.0494 20.3388C22.0595 20.2227 22.0646 20.0452 22.0697 19.8336ZM16.2786 20.4139C16.2786 20.2637 16.2786 20.093 16.2786 19.9155C16.2461 19.5347 16.2616 19.1493 16.3243 18.7754C16.3528 18.6825 16.3633 18.5815 16.3548 18.4818L16.5123 18.3452C16.6254 18.2769 16.7492 18.2464 16.8729 18.2565C17.0101 18.2565 17.1574 18.2565 17.2844 18.2565C17.4114 18.2565 17.4774 18.2565 17.5486 18.2565C17.7416 18.2565 18.0566 18.2155 18.3766 18.1677C18.8942 18.0834 19.4148 18.0355 19.9361 18.0243C20.7692 18.0243 21.2518 18.2223 21.4144 18.632C21.5763 19.428 21.6092 20.2615 21.5109 21.0762C21.5109 21.3971 21.4754 21.6906 21.4754 21.9023C21.4754 23.3292 21.4754 24.7562 21.45 26.1762V28.1698C21.45 28.2313 21.45 28.3132 21.45 28.4088C21.4865 28.5968 21.4865 28.7943 21.45 28.9823C21.4144 29.0642 21.389 29.1325 21.3737 29.1325C21.308 29.0948 21.237 29.0762 21.1655 29.0779H21.0334C20.4821 29.1655 19.9273 29.2065 19.3723 29.2008C18.8084 29.2008 18.2394 29.1666 17.6756 29.1393C17.2235 29.1393 16.7815 29.0915 16.3396 29.0847C16.1618 26.2445 16.2227 23.1654 16.2786 20.4412V20.4139Z" fill="#333333"/>
<path d="M29.8166 10.0294C29.6947 7.89247 29.4864 7.76275 27.9015 7.73544H25.8085C25.3361 7.73544 24.8637 7.73544 24.3963 7.73544H24.2947C23.9798 7.73544 23.7512 7.73544 23.5734 8.19288C23.294 8.87562 23.3752 10.009 23.4514 11.0194C23.4514 11.3676 23.4972 11.7022 23.5022 11.9753C23.5022 13.5456 23.5022 15.1432 23.5022 16.6862V17.4099C23.5022 18.5978 23.4718 19.7858 23.4514 20.9738C23.4006 23.8071 23.3448 26.7361 23.5073 29.5831C23.5061 29.6172 23.5061 29.6514 23.5073 29.6855H23.5581L23.5276 29.7674C23.5479 29.8386 23.5843 29.8993 23.6318 29.941C23.6792 29.9827 23.7352 30.0032 23.7918 29.9996H29.5372C29.6172 29.9962 29.6933 29.9519 29.7499 29.8758C29.8065 29.7997 29.8394 29.6975 29.842 29.5899C29.842 27.6237 29.8826 25.6027 29.9182 23.6501C30.0544 19.1105 30.0205 14.5645 29.8166 10.0294ZM24.0661 22.4075C24.0661 21.5336 24.0966 20.6529 24.1017 19.779C24.1017 17.881 24.1017 15.942 24.1017 14.0781C24.1017 12.815 24.1017 11.5588 24.1017 10.3026C24.1017 9.91339 24.1017 9.5174 24.1322 9.12824V8.97803C24.1322 8.5957 24.1322 8.5957 24.3252 8.58204H24.5131C24.9537 8.52359 25.3963 8.49624 25.839 8.50011C26.3013 8.50011 26.7686 8.50012 27.2309 8.54108L28.13 8.57521C29.1156 8.57521 29.1816 8.99852 29.2426 10.2479C29.2426 10.76 29.273 11.2652 29.2781 11.7978C29.3238 14.993 29.3086 18.2496 29.2781 21.3971L29.2375 28.4293C29.2375 28.4907 29.2375 28.5795 29.2375 28.6682C29.2612 28.8489 29.2612 29.0338 29.2375 29.2144C29.227 29.2635 29.227 29.3155 29.2375 29.3646C28.9439 29.2718 28.6446 29.2147 28.3434 29.1939H24.122C23.995 26.9409 24.0306 24.6128 24.0661 22.4075Z" fill="#333333"/>
<path d="M18.8693 10.3572C18.9075 10.3596 18.9456 10.3505 18.9808 10.3304C19.016 10.3103 19.0474 10.2797 19.0725 10.2411C21.3158 7.14178 23.7214 4.26236 26.2708 1.62492V1.73416C26.1939 2.18312 26.1446 2.63982 26.1235 3.09964C26.1213 3.20261 26.1486 3.30278 26.1997 3.37956C26.2599 3.45632 26.3402 3.49804 26.4232 3.49563C26.4631 3.49842 26.5031 3.49023 26.5406 3.47158C26.5782 3.45293 26.6125 3.4242 26.6415 3.38714C26.6704 3.35009 26.6935 3.3055 26.7093 3.25607C26.725 3.20664 26.7331 3.15342 26.7331 3.09964C26.7515 2.6552 26.8008 2.21405 26.8804 1.78195C26.9584 1.33328 27.0077 0.876453 27.0277 0.416472C27.0277 0.307189 26.9958 0.202278 26.9387 0.124367C26.8817 0.0464573 26.8042 0.00179151 26.7229 0C25.9793 0.0478136 25.2442 0.233922 24.5385 0.553018C24.468 0.583047 24.4082 0.647086 24.3707 0.732797C24.3332 0.818508 24.3206 0.919839 24.3353 1.01729C24.3416 1.10968 24.3731 1.19568 24.4238 1.25872C24.4744 1.32175 24.5406 1.35735 24.6097 1.35866C24.6416 1.36521 24.6742 1.36521 24.7062 1.35866C25.109 1.18012 25.5218 1.04542 25.9406 0.955842C23.8375 3.18157 22.1611 5.10007 20.6778 6.97078C20.4949 7.20291 20.3171 7.45552 20.1393 7.7013C19.8654 8.10271 19.5718 8.47906 19.2605 8.82783C19.0845 9.05721 18.8546 9.19721 18.6103 9.22382C18.3443 9.19238 18.0863 9.08533 17.8534 8.90976L17.6654 8.80051C16.5427 8.11778 15.3998 7.49648 14.2669 6.88202C14.0231 6.7523 13.7589 6.58844 13.4846 6.41093C12.7761 5.87582 11.9957 5.5347 11.1885 5.4073C10.523 5.4073 9.94392 6.09004 9.43085 6.77278C9.29877 6.93663 9.17178 7.09366 9.04986 7.23021C7.05853 9.42863 5.0164 11.7977 2.98951 14.2693C2.94625 14.318 2.91522 14.3835 2.90068 14.4568C2.88613 14.5301 2.88877 14.6077 2.90823 14.6789C2.93389 14.7603 2.97608 14.8304 3.02998 14.8811C3.08388 14.9318 3.14732 14.9611 3.21302 14.9657C3.28811 14.9619 3.35992 14.9233 3.41623 14.8564C5.49899 12.3166 7.60208 9.87925 9.65437 7.61938C10.1626 6.97837 10.8228 6.5988 11.5187 6.54747C11.7846 6.54904 12.048 6.61615 12.2959 6.74547L14.3279 7.81737C15.7249 8.58204 17.1574 9.40133 18.7017 10.323C18.7551 10.3507 18.8123 10.3624 18.8693 10.3572Z" fill="#333333"/>
<path d="M24.9957 13.6889C25.0357 13.6898 25.0754 13.6792 25.1122 13.6581C25.1489 13.6369 25.182 13.6055 25.2091 13.566C25.2346 13.5289 25.2534 13.4843 25.264 13.4357C25.2746 13.3871 25.2767 13.3359 25.2701 13.2861V13.2178C25.1329 11.4495 25.1735 10.3913 25.392 10.0636C25.4103 10.0348 25.4328 10.0114 25.4582 9.99499C25.4835 9.97853 25.5111 9.96935 25.5393 9.968V9.90656L25.5901 9.97483C25.6248 9.97483 25.6591 9.96565 25.6912 9.9478C25.7232 9.92996 25.7523 9.90382 25.7769 9.87085C25.8014 9.83788 25.8209 9.79874 25.8341 9.75567C25.8474 9.7126 25.8542 9.66642 25.8542 9.6198C25.8613 9.50673 25.8348 9.3945 25.7806 9.30754C25.7264 9.22058 25.6488 9.16595 25.5647 9.15554H25.4428C25.011 9.15554 24.7519 9.49008 24.6706 10.1455C24.5715 11.1973 24.5715 12.2617 24.6706 13.3134C24.6827 13.4178 24.7221 13.5129 24.7817 13.5817C24.8413 13.6506 24.9172 13.6886 24.9957 13.6889Z" fill="#333333"/>
<path d="M26.3927 9.98848C26.4347 9.98951 26.4764 9.97848 26.5149 9.9561C26.5535 9.93373 26.588 9.90054 26.6162 9.85876C26.6627 9.77887 26.6878 9.68024 26.6874 9.57883C26.6895 9.52545 26.6833 9.47207 26.6694 9.42199C26.6555 9.37192 26.634 9.32625 26.6064 9.28781C26.5787 9.24938 26.5455 9.219 26.5087 9.1986C26.472 9.17819 26.4325 9.16818 26.3927 9.1692C26.3506 9.16675 26.3086 9.17715 26.2699 9.19962C26.2312 9.22208 26.1968 9.25603 26.1692 9.29892C26.1202 9.37734 26.0932 9.47641 26.093 9.57883C26.0909 9.63281 26.0971 9.68679 26.1113 9.73734C26.1256 9.78789 26.1475 9.8339 26.1757 9.87244C26.2039 9.91098 26.2377 9.9412 26.2751 9.96118C26.3125 9.98116 26.3525 9.99046 26.3927 9.98848Z" fill="#333333"/>
</svg>
