<svg width="30" height="30" viewBox="0 0 30 30" fill="none" xmlns="http://www.w3.org/2000/svg">
<path d="M11.5791 19.9786H11.5316C11.5316 18.9811 11.5316 17.9837 11.5316 16.9862C11.9982 17.0575 12.4212 17.2966 12.7186 17.657C12.7488 17.706 12.7915 17.7464 12.8426 17.774C12.8936 17.8016 12.9512 17.8156 13.0094 17.8145C13.0797 17.8154 13.149 17.7974 13.2097 17.7625C13.2703 17.7275 13.3201 17.6769 13.3537 17.6162C13.385 17.5694 13.4018 17.5147 13.4018 17.4587C13.4018 17.4027 13.385 17.3479 13.3537 17.3012C12.9185 16.7485 12.2783 16.3877 11.5732 16.2979V15.5571C11.5744 15.4665 11.5404 15.3789 11.4782 15.3121C11.4079 15.2465 11.314 15.2109 11.2171 15.2129C11.1707 15.2105 11.1243 15.2175 11.0807 15.2335C11.0372 15.2495 10.9975 15.2741 10.9641 15.3059C10.9307 15.3376 10.9043 15.3758 10.8865 15.418C10.8688 15.4602 10.8601 15.5056 10.861 15.5512V16.2279H10.6889C10.4583 16.2277 10.2282 16.2453 10.0004 16.2804V15.6096C10.002 15.5207 9.96784 15.4348 9.90545 15.3704C9.8351 15.3048 9.74125 15.2692 9.64431 15.2712C9.59791 15.2688 9.5515 15.2758 9.50797 15.2918C9.46444 15.3078 9.42474 15.3325 9.39133 15.3642C9.35791 15.396 9.33152 15.4341 9.31378 15.4763C9.29604 15.5186 9.28733 15.5639 9.28821 15.6096V16.4495C8.8842 16.5544 8.51628 16.764 8.2229 17.0565C7.92953 17.3489 7.72147 17.7135 7.62049 18.112C7.42464 19.0803 8.21399 19.862 9.0983 20.1886L9.27634 20.2469V23.0644C8.97014 22.9646 8.69332 22.7929 8.46992 22.5642C8.24652 22.3355 8.08329 22.0567 7.99439 21.7519C7.97123 21.6807 7.9251 21.6188 7.863 21.5757C7.8009 21.5325 7.72619 21.5104 7.65017 21.5127C7.59162 21.5121 7.53373 21.5249 7.48116 21.5502C7.42858 21.5756 7.3828 21.6127 7.34748 21.6586C7.3184 21.6998 7.29996 21.7474 7.29376 21.7972C7.28755 21.847 7.29377 21.8975 7.31188 21.9444C7.42661 22.4067 7.67188 22.8277 8.01944 23.159C8.36699 23.4903 8.80269 23.7183 9.27634 23.8168V25.5143C9.2742 25.5585 9.28155 25.6026 9.29791 25.6438C9.31427 25.685 9.33928 25.7224 9.3713 25.7535C9.44166 25.819 9.5355 25.8547 9.63244 25.8526C9.67863 25.8542 9.72468 25.8466 9.76782 25.8303C9.81096 25.814 9.85032 25.7893 9.88356 25.7577C9.91679 25.7262 9.94321 25.6883 9.96125 25.6465C9.97928 25.6047 9.98856 25.5597 9.98854 25.5143V23.8927H10.1963C10.4363 23.8939 10.6761 23.8803 10.9144 23.8518V24.0735C10.9144 24.5343 10.95 24.9893 10.9737 25.4443C10.9778 25.5141 11.0025 25.5813 11.0446 25.6376C11.0867 25.694 11.1446 25.7371 11.2112 25.7618C11.2778 25.7865 11.3502 25.7917 11.4197 25.7767C11.4892 25.7618 11.5528 25.7274 11.6028 25.6776C11.6334 25.646 11.6566 25.6082 11.6709 25.5669C11.6853 25.5257 11.6904 25.4819 11.6859 25.4385L11.6147 23.811V23.7177C12.0139 23.6479 12.3846 23.4675 12.6832 23.1978C12.9817 22.9281 13.1958 22.5803 13.3002 22.1952C13.5673 21.0752 12.6237 20.2761 11.5791 19.9786ZM12.7661 21.9677C12.7245 22.4694 12.0064 22.796 11.6266 22.936C11.6266 22.1894 11.5791 21.4369 11.5613 20.6903C12.3863 21.1453 12.778 21.5711 12.7483 21.9677H12.7661ZM10.766 19.8211C10.5524 19.792 10.3387 19.7628 10.125 19.7161H10.0241V17.0095C10.2777 16.9558 10.5363 16.9285 10.7957 16.9279C10.7957 17.9078 10.7957 18.882 10.7957 19.8444L10.766 19.8211ZM10.0182 20.3694H10.2497C10.4515 20.3694 10.6533 20.4103 10.8432 20.4453C10.8432 21.3319 10.8669 22.2186 10.9144 23.1052C10.7759 23.1366 10.6349 23.1561 10.493 23.1635H10.0063L10.0182 20.3694ZM9.31195 17.2195V19.4828C8.75407 19.2884 8.42171 19.0317 8.31488 18.7128C8.28089 18.5394 8.28955 18.3605 8.34013 18.1911C8.39072 18.0216 8.48177 17.8665 8.6057 17.7387C8.78811 17.5125 9.02462 17.3341 9.29415 17.2195H9.31195Z" fill="#333333"/>
<path d="M8.39204 27.6084C9.25163 27.8228 10.1344 27.9344 11.0212 27.9409C12.2113 27.9717 13.3908 27.7143 14.4558 27.1915C15.5208 26.6686 16.4386 25.8963 17.1283 24.9426C19.1106 22.3236 19.0156 18.5262 16.8909 15.4637C16.1418 14.4269 15.1502 13.5821 13.9996 13.0004C12.8491 12.4188 11.5732 12.1173 10.2793 12.1213C9.69415 12.1205 9.11075 12.1851 8.54041 12.3138C4.97944 13.1188 2.17221 16.7937 2.32058 20.4803C2.73603 23.8168 5.34741 26.8734 8.39204 27.6084ZM11.4545 27.3226C10.0954 27.3226 7.57301 27.0776 5.90529 25.6193C4.39044 24.2779 3.38043 22.4734 3.03871 20.4978C2.8844 16.7179 6.00619 13.1363 9.68586 12.8446C9.89358 12.8446 10.1013 12.8155 10.2793 12.8155C13.87 12.8155 16.9087 15.3996 17.6624 19.1036C17.8558 20.1537 17.8153 21.2324 17.5438 22.2656C17.2723 23.2987 16.7762 24.2618 16.0897 25.0885C15.5356 25.783 14.8285 26.3449 14.0215 26.7319C13.2145 27.1189 12.3287 27.3208 11.4307 27.3226H11.4545Z" fill="#333333"/>
<path d="M29.9478 24.5576C29.9478 24.266 29.9122 23.9743 29.9062 23.7118C29.9062 22.1252 29.9062 20.7253 29.9062 19.4303C29.9062 18.4503 29.9062 17.4528 29.8588 16.5137C29.8588 15.8254 29.8113 15.1429 29.7994 14.4838C29.8225 14.4364 29.8346 14.3846 29.8346 14.3321C29.8346 14.2796 29.8225 14.2278 29.7994 14.1804V13.9413C29.7994 13.7488 29.7994 13.5563 29.7994 13.358C29.8884 11.2639 29.9003 8.99474 29.7994 6.21815C29.7994 5.87983 29.7994 5.47151 29.7994 5.05152C29.8766 3.56406 29.9656 1.72078 28.9388 0.799142C28.1317 0.0816615 26.826 0 25.912 0C25.3779 0 24.8318 0.0349994 24.3511 0.0641652C23.9772 0.0641652 23.6271 0.10499 23.3184 0.110823H22.3748C21.3006 0.110823 20.2263 0.110827 19.1521 0.0699952C18.0779 0.029163 17.0037 0.0291587 15.9294 0.0291587H14.3389C13.9828 0.0291587 13.5851 0.0291587 13.1519 0.0291587C11.7987 0.0291587 9.9648 0.186659 9.63244 1.59245C9.49531 2.39204 9.4634 3.20563 9.53748 4.01322C9.53748 4.37487 9.57309 4.72486 9.57309 5.05152V5.59984C9.57309 7.01147 9.57309 8.47559 9.63244 9.91055C6.00619 10.2255 2.67668 12.2438 1.12766 15.0262C0.183171 16.8129 -0.180981 18.8413 0.0843396 20.8378C0.34966 22.8342 1.23168 24.7027 2.6114 26.1909C3.66495 27.3813 4.96495 28.3369 6.42446 28.9938C7.88398 29.6507 9.46938 29.9937 11.0746 30C11.7335 30.0002 12.391 29.9416 13.0391 29.825C14.6625 29.5184 16.1764 28.8006 17.431 27.7426C17.4664 27.7481 17.5024 27.7481 17.5378 27.7426C18.6595 27.7426 19.7812 27.7892 20.897 27.8184C22.4341 27.8592 24.0306 27.9001 25.5975 27.9001C25.8467 27.9001 26.1435 27.9001 26.458 27.9467C26.7726 27.9934 27.2236 28.0051 27.6094 28.0051C28.4522 28.0051 29.5976 27.8767 29.8766 26.7626C30.0122 26.0352 30.0362 25.292 29.9478 24.5576ZM27.1465 27.3051C26.8853 27.3051 26.6183 27.3051 26.3571 27.2584C26.096 27.2117 25.8408 27.2176 25.5975 27.2176C24.0247 27.2176 22.4282 27.1767 20.8495 27.1359L18.1194 27.0717C18.7755 26.3987 19.3239 25.6317 19.7456 24.7968H20.5528C21.6804 24.7968 22.8258 24.8493 23.9297 24.896C25.0336 24.9426 26.185 25.001 27.3127 25.001C27.9892 25.001 28.6065 25.001 29.194 24.9426V25.246C29.194 26.4768 28.7489 27.0834 27.6272 27.2642C27.4685 27.2915 27.3076 27.3052 27.1465 27.3051ZM20.0898 24.1027C20.4051 23.3219 20.6049 22.5008 20.6833 21.6644C22.7902 21.6644 24.9327 21.5944 27.01 21.5361L29.1881 21.4777C29.1881 22.376 29.1881 23.2685 29.2296 24.1668V24.231C28.6361 24.2718 28.0427 24.2893 27.3483 24.2893C26.2266 24.2893 25.0811 24.2368 23.9772 24.1902C22.8733 24.1435 21.7279 24.091 20.6002 24.091L20.0898 24.1027ZM20.4637 18.4211C21.1047 18.4561 21.7813 18.4678 22.541 18.4678C23.6211 18.4678 24.725 18.4678 25.7933 18.4095C26.8616 18.3512 27.9596 18.3453 29.0338 18.3453H29.194C29.194 19.1561 29.194 19.9669 29.194 20.7778L27.0159 20.8361C24.9565 20.8944 22.8199 20.9586 20.7249 20.9644V20.9002C20.7249 20.8361 20.7249 20.7719 20.7249 20.7019C20.6989 19.9361 20.6116 19.1735 20.4637 18.4211ZM29.2 17.6453H29.0397C27.9596 17.6453 26.8557 17.6745 25.7874 17.7095C24.7191 17.7445 23.6092 17.7737 22.5291 17.7737C21.716 17.7737 20.9919 17.7737 20.3094 17.7153C20.0601 16.7208 19.6811 15.762 19.1818 14.8629C19.6447 14.8629 20.1136 14.8629 20.5824 14.8629C22.8555 14.8629 25.1701 14.7871 27.4017 14.7113L29.2178 14.6471L29.2 17.6453ZM29.2 13.9588L27.2889 14.0229C25.0752 14.0988 22.7843 14.1804 20.5349 14.1804H18.7129C17.9679 13.0776 17.0028 12.135 15.876 11.4097H22.3926C23.3066 11.4097 24.2443 11.3805 25.1523 11.3455C26.0604 11.3105 27.0456 11.2814 27.9892 11.2814C28.3869 11.2814 28.7905 11.2814 29.1762 11.2814C29.2118 12.1874 29.2257 13.0741 29.2178 13.9413L29.2 13.9588ZM29.2 10.6105C28.8023 10.6105 28.4047 10.6105 28.013 10.6105C27.0693 10.6105 26.1079 10.6455 25.1761 10.6747C24.2443 10.7039 23.3362 10.7389 22.4223 10.7389H18.3034C17.1164 10.7389 15.9294 10.7389 14.7424 10.7389C14.7068 10.7389 14.6772 10.7389 14.6831 10.7389C14.0599 10.4433 13.4102 10.2051 12.7424 10.0272C12.0457 9.88289 11.3356 9.81056 10.6236 9.81139H10.3743C10.3743 9.22807 10.3268 8.60392 10.315 7.92144C11.3239 7.82811 12.3981 7.78728 13.6919 7.78728C14.7543 7.78728 15.8404 7.81645 16.8909 7.84561C17.9414 7.87478 19.0097 7.89811 20.0601 7.89811H20.6536C21.6745 7.89811 22.7249 7.95644 23.7398 8.01477C24.7547 8.0731 25.8171 8.1256 26.8497 8.1256C27.627 8.12968 28.4038 8.08878 29.1762 8.00311V8.1956C29.1762 9.00641 29.1762 9.81139 29.1762 10.6222L29.2 10.6105ZM26.7607 7.42563C25.7043 7.42563 24.6241 7.36146 23.5796 7.30312C22.535 7.24479 21.4608 7.18063 20.4162 7.18063H19.2293C18.2559 7.18063 17.2529 7.18064 16.2618 7.12814C15.2706 7.07564 14.2854 7.0698 13.2943 7.0698C12.1073 7.0698 11.1696 7.11063 10.2615 7.19229C10.2615 6.63814 10.2615 6.084 10.2615 5.52401C10.2615 5.23819 10.2615 4.94069 10.2259 4.5732C10.855 4.5732 11.5435 4.5732 12.321 4.5732H14.6059C15.3656 4.5732 16.1253 4.5732 16.8909 4.5732C18.1847 4.5732 19.2649 4.53821 20.2204 4.47404C20.7783 4.43904 21.3658 4.41571 22.0009 4.41571C22.8318 4.41571 23.6745 4.44488 24.4876 4.47404C25.3007 4.50321 26.1494 4.53237 26.9744 4.53237C27.7993 4.53237 28.4106 4.53237 29.0397 4.45654C29.0397 5.08653 29.0931 7.27397 29.0931 7.27397C28.3233 7.36941 27.5485 7.42005 26.7726 7.42563H26.7607ZM27.0575 3.84989C26.2325 3.84989 25.3897 3.84989 24.5766 3.79156C23.7636 3.73323 22.9149 3.73323 22.084 3.73323C21.4133 3.73323 20.8139 3.73323 20.256 3.79156C19.2827 3.86156 18.2262 3.89072 16.9324 3.89072C16.1668 3.89072 15.3953 3.89072 14.6297 3.89072H12.3269C11.5494 3.89072 10.861 3.89072 10.2259 3.92572C10.1719 3.2978 10.2079 2.66553 10.3328 2.04744C10.6414 0.880806 11.4723 0.880805 12.4397 0.834139H12.9501C13.6326 0.793307 14.3626 0.769972 15.1816 0.758305H15.7217C16.8434 0.758305 17.9532 0.79331 18.9859 0.828309C19.4132 0.828309 19.8406 0.828309 20.2738 0.828309C20.9919 0.828309 21.7101 0.828311 22.4341 0.793312C23.1582 0.758313 23.8763 0.758305 24.5944 0.758305C25.5203 0.758305 26.2918 0.758311 27.0159 0.845808C28.8617 0.997471 29.0575 2.27494 29.0931 3.80906C28.4937 3.82656 27.8231 3.84989 27.0693 3.84989H27.0575ZM12.5524 10.6805C15.0757 11.3541 17.2368 12.9594 18.5848 15.1614C19.9328 17.3634 20.3636 19.9919 19.7871 22.4985C19.3362 24.4522 18.2167 26.1946 16.6159 27.4347C15.015 28.6747 13.0297 29.3373 10.9915 29.3117C10.0349 29.3079 9.08373 29.1704 8.16651 28.9034C4.01204 27.7076 -0.0118523 23.4435 0.777496 18.637C0.932333 17.3669 1.36863 16.1456 2.05566 15.0592C2.74269 13.9727 3.66373 13.0476 4.75391 12.3488C5.85929 11.5326 7.13115 10.9609 8.48233 10.673C9.8335 10.385 11.232 10.3876 12.5821 10.6805H12.5524Z" fill="#333333"/>
<path d="M6.13082 15.8662C6.04642 15.8666 5.9647 15.8954 5.89936 15.9479C4.82467 16.8158 4.12478 18.0519 3.94083 19.407C3.93278 19.459 3.93659 19.5122 3.95199 19.5626C3.96738 19.6131 3.99398 19.6595 4.02985 19.6986C4.06743 19.7416 4.11382 19.7763 4.16598 19.8004C4.21814 19.8245 4.2749 19.8375 4.33253 19.8386C4.40713 19.8418 4.48002 19.8161 4.53551 19.767C4.59101 19.7179 4.62468 19.6494 4.62928 19.5761C4.79324 18.3498 5.43073 17.2325 6.40976 16.4554C6.46139 16.4171 6.49948 16.3638 6.51865 16.3031C6.53782 16.2424 6.5371 16.1773 6.51659 16.117C6.48694 16.0409 6.43381 15.9758 6.36463 15.9308C6.29546 15.8859 6.21371 15.8633 6.13082 15.8662Z" fill="#333333"/>
<path d="M7.03293 15.1896C6.98372 15.1875 6.93466 15.1964 6.88943 15.2156C6.84421 15.2348 6.80399 15.2638 6.7718 15.3004C6.71665 15.3682 6.68727 15.4528 6.6887 15.5396C6.68625 15.5852 6.69338 15.6308 6.70966 15.6736C6.72593 15.7163 6.751 15.7554 6.7833 15.7882C6.81559 15.821 6.85443 15.847 6.89738 15.8644C6.94033 15.8819 6.98647 15.8904 7.03293 15.8896C7.08198 15.8904 7.13066 15.881 7.17569 15.8619C7.22073 15.8428 7.26109 15.8144 7.29407 15.7787C7.34836 15.7105 7.37763 15.6262 7.37716 15.5396C7.37961 15.494 7.37248 15.4483 7.35621 15.4056C7.33993 15.3628 7.31487 15.3238 7.28257 15.2909C7.25027 15.2581 7.21144 15.2321 7.16849 15.2147C7.12554 15.1973 7.07939 15.1887 7.03293 15.1896Z" fill="#333333"/>
<path d="M12.2972 1.35912C11.8241 1.40043 11.3759 1.58602 11.0153 1.88994C10.857 2.06767 10.74 2.27713 10.6723 2.50377C10.6047 2.73041 10.5881 2.96881 10.6236 3.20241C10.6282 3.29422 10.6694 3.38056 10.7382 3.44277C10.8071 3.50498 10.8981 3.53808 10.9915 3.5349C11.0885 3.53695 11.1823 3.50132 11.2527 3.43574C11.2826 3.40367 11.3054 3.36586 11.3197 3.3247C11.334 3.28354 11.3395 3.23992 11.3358 3.19658C11.3358 2.86992 11.3358 2.5316 11.585 2.33327C11.8509 2.16499 12.1544 2.06288 12.4693 2.03577C12.5081 2.03286 12.5459 2.02234 12.5805 2.00481C12.6151 1.98729 12.6457 1.96313 12.6706 1.93376C12.6955 1.90439 12.7142 1.87041 12.7255 1.83382C12.7368 1.79724 12.7405 1.7588 12.7364 1.72078C12.7319 1.66862 12.717 1.61784 12.6925 1.57138C12.6679 1.52491 12.6343 1.48368 12.5935 1.45006C12.5526 1.41644 12.5054 1.3911 12.4546 1.37549C12.4038 1.35988 12.3503 1.35432 12.2972 1.35912Z" fill="#333333"/>
<path d="M13.4664 1.00913C13.4174 1.00825 13.3687 1.01768 13.3237 1.0368C13.2786 1.05591 13.2383 1.08427 13.2053 1.11997C13.148 1.18697 13.1165 1.27161 13.1163 1.35912C13.1138 1.40523 13.121 1.45135 13.1377 1.49454C13.1543 1.53773 13.1799 1.57704 13.2129 1.60997C13.2458 1.64289 13.2854 1.66871 13.329 1.68578C13.3727 1.70285 13.4195 1.7108 13.4664 1.70911C13.5155 1.70999 13.5641 1.70056 13.6092 1.68145C13.6542 1.66233 13.6946 1.63398 13.7276 1.59828C13.7818 1.53002 13.8111 1.44576 13.8106 1.35912C13.8131 1.31351 13.806 1.2679 13.7897 1.22512C13.7734 1.18234 13.7483 1.14331 13.7161 1.11048C13.6838 1.07764 13.6449 1.05169 13.602 1.03425C13.559 1.01682 13.5129 1.00827 13.4664 1.00913Z" fill="#333333"/>
</svg>
