<svg width="30" height="30" viewBox="0 0 30 30" fill="none" xmlns="http://www.w3.org/2000/svg">
<path d="M29.965 5.63195C29.9243 4.20059 29.8835 2.58228 28.9221 1.44304C28.5906 1.04247 28.1784 0.716728 27.7125 0.487164C27.2465 0.2576 26.7375 0.129405 26.2187 0.111004C26.073 0.111004 25.9215 0.111004 25.7584 0.111004C23.958 0.0408972 22.146 0 20.3573 0C17.8578 0 15.3292 0.0759522 12.853 0.222009C10.9361 0.333012 8.66963 0.479065 6.39734 0.730282H6.2575C5.21458 0.841285 4.03183 0.969818 3.34431 1.82863C2.52862 2.84518 2.62184 4.35248 2.69759 5.62025C2.83042 7.43755 3.05405 9.24703 3.36763 11.0419C3.53659 12.0467 3.7172 13.0516 3.89782 14.0565C4.54303 17.1923 4.95975 20.3711 5.14466 23.5677L3.85121 23.5969C3.64728 23.5969 3.39675 23.5969 3.11709 23.556C2.83742 23.5151 2.38297 23.4976 2.01008 23.4976C1.05455 23.4976 0.495219 23.6962 0.262164 24.1344C-0.221425 25.0107 0.0407579 26.927 0.431125 27.8092C1.28178 29.7546 3.44919 30 5.24371 30C5.75061 30 6.25168 30 6.72362 29.9649C7.19555 29.9299 7.516 29.9299 7.88889 29.9299H9.14156C12.8588 29.9299 16.7159 29.9299 20.4739 29.5385C20.5041 29.5383 20.5338 29.5314 20.561 29.5182C20.5883 29.5051 20.6122 29.4861 20.6312 29.4625H20.7302C20.966 29.4617 21.2014 29.4461 21.4352 29.4158C23.2647 29.1879 24.4416 28.4635 24.9311 27.2541C25.5894 25.6066 25.2573 23.6436 24.966 21.9143L24.8786 21.3943C24.7077 20.3661 24.5232 19.3223 24.3251 18.2629C23.6434 14.5414 22.9384 10.668 23.1598 6.94645H25.9973C27.2477 6.95854 28.4975 6.88437 29.7378 6.72445C29.8128 6.70504 29.8792 6.66123 29.9266 6.59991C29.9741 6.53858 29.9999 6.4632 30 6.38558C29.9825 6.18695 29.9709 5.91237 29.965 5.63195ZM28.6075 6.21617C28.224 6.29323 27.8331 6.32654 27.4422 6.31548H26.3061C25.6943 6.31548 25.0825 6.31548 24.4708 6.31548H23.2123C23.2705 5.73125 23.3404 5.19378 23.4278 4.72055C23.8998 2.13243 24.832 0.817913 26.1954 0.817913C26.3917 0.817875 26.5873 0.841427 26.778 0.888035C28.2754 1.23857 29.1086 2.50048 29.2426 4.74391C29.2426 4.88997 29.2426 5.03019 29.2834 5.15288C29.3358 5.72542 29.3766 6.02921 28.6075 6.23953V6.21617ZM0.804013 26.1909C0.734097 25.0224 1.10698 24.5083 2.19652 24.3505C2.8915 24.2553 3.59263 24.2123 4.29402 24.222H7.09068L16.7799 24.0234C16.8338 25.4777 17.3008 26.8864 18.1258 28.0837C18.3381 28.4162 18.6108 28.7055 18.9299 28.9367C16.7042 29.1061 14.2979 29.1879 11.1691 29.2055H5.80305C5.49425 29.2055 5.17963 29.2055 4.85918 29.2055C3.85689 29.2804 2.85592 29.0438 1.9926 28.5278C1.63254 28.2577 1.33842 27.9091 1.1325 27.5083C0.926587 27.1075 0.814259 26.665 0.804013 26.2142V26.1909ZM17.4733 23.6962C17.4842 23.6293 17.4716 23.5606 17.4376 23.502C17.4036 23.4433 17.3503 23.3984 17.2868 23.3749C17.2375 23.3522 17.1838 23.3402 17.1295 23.3398L5.84966 23.5735C5.66254 20.3279 5.23998 17.1003 4.58534 13.9163V13.7468C4.26489 11.9942 3.93278 10.1655 3.69972 8.35444C3.66477 8.09154 3.61815 7.77021 3.57154 7.47225C3.33266 5.95911 3.03552 4.07791 3.57154 2.89777C4.26488 1.43137 6.22837 1.34372 7.80149 1.27361C8.11612 1.27361 8.41909 1.27361 8.69876 1.22103C10.6564 1.05745 12.4626 0.934768 14.2222 0.847135C16.1623 0.753658 18.1666 0.706926 20.1767 0.706926C21.5576 0.706926 22.9792 0.706918 24.4008 0.771182C23.2938 1.72347 22.9093 3.37683 22.6529 5.02435C22.3425 7.40088 22.3582 9.80885 22.6995 12.1811C22.9151 13.9338 23.2006 15.6865 23.4803 17.3982C23.5735 17.9825 23.6726 18.5667 23.7658 19.1509C23.8415 19.6475 23.9347 20.1441 24.0221 20.6465C24.3372 22.1123 24.5109 23.6051 24.5407 25.1042C24.5407 26.8919 23.958 27.9085 22.717 28.3875C22.0597 28.6504 21.3618 28.7967 20.6545 28.8199C20.3223 28.8264 19.992 28.7689 19.6815 28.6504C18.2482 28.113 17.3101 25.2269 17.4733 23.7196V23.6962Z" fill="#333333"/>
<path d="M18.7434 5.37489C18.7428 5.3329 18.7335 5.2915 18.7162 5.25329C18.6988 5.21509 18.6737 5.18091 18.6425 5.15291C18.6113 5.12492 18.5747 5.10371 18.5349 5.09064C18.4951 5.07756 18.453 5.07288 18.4113 5.07693C14.5368 5.45667 10.5982 5.66115 6.71197 5.66115C6.6661 5.66033 6.62056 5.66889 6.57809 5.68629C6.53563 5.70369 6.49714 5.72957 6.46498 5.76237C6.43282 5.79516 6.40766 5.83418 6.39102 5.87704C6.37439 5.91991 6.36662 5.96572 6.36821 6.01169C6.3658 6.05737 6.37281 6.10306 6.38878 6.14591C6.40476 6.18875 6.42936 6.22784 6.46107 6.26073C6.49278 6.29362 6.5309 6.31959 6.57306 6.33705C6.61523 6.35452 6.66053 6.3631 6.70614 6.36223C10.5982 6.36223 14.5368 6.16943 18.4172 5.778C18.5136 5.76769 18.6021 5.71948 18.6633 5.64395C18.7244 5.56841 18.7532 5.47168 18.7434 5.37489Z" fill="#333333"/>
<path d="M18.5395 9.8851C18.5419 9.83942 18.5349 9.79373 18.5189 9.75088C18.503 9.70804 18.4784 9.66895 18.4467 9.63606C18.4149 9.60317 18.3768 9.57718 18.3347 9.55972C18.2925 9.54226 18.2472 9.5337 18.2016 9.53456C14.5497 9.50694 10.9018 9.7805 7.2946 10.3525C7.21669 10.3613 7.14542 10.4006 7.09631 10.4619C7.0472 10.5232 7.02423 10.6015 7.03241 10.6796C7.03959 10.7748 7.08167 10.8639 7.15055 10.9297C7.21942 10.9955 7.31019 11.0334 7.4053 11.036H7.46939C11.0192 10.4781 14.6086 10.2124 18.2016 10.2415C18.2477 10.2424 18.2935 10.2337 18.3361 10.2159C18.3787 10.1981 18.4171 10.1715 18.4489 10.138C18.4807 10.1045 18.5052 10.0647 18.5208 10.0211C18.5364 9.97758 18.5428 9.93125 18.5395 9.8851Z" fill="#333333"/>
<path d="M7.9122 15.3768H7.98794C9.72545 15.1258 11.4766 14.9814 13.2317 14.9445H13.8959C14.3795 14.9445 14.8631 15.0088 15.335 15.0555C15.9153 15.1241 16.4987 15.1631 17.0829 15.1723C17.7065 15.1811 18.3277 15.0924 18.9241 14.9095C19.0038 14.8838 19.0714 14.83 19.1143 14.7579C19.1572 14.6858 19.1725 14.6005 19.1571 14.518C19.15 14.4384 19.1141 14.3641 19.0562 14.3092C18.9982 14.2543 18.9222 14.2226 18.8425 14.2201C18.8058 14.2144 18.7685 14.2144 18.7318 14.2201C18.1647 14.3892 17.5755 14.472 16.9839 14.4654C16.4012 14.4654 15.7603 14.4012 15.1602 14.3428C14.5601 14.2843 13.9949 14.2201 13.4123 14.2142H13.2608C11.5058 14.2521 9.75469 14.3964 8.01708 14.6465C7.91963 14.6597 7.8311 14.7103 7.77021 14.7877C7.70932 14.8651 7.68085 14.9633 7.6908 15.0613C7.68317 15.1319 7.70143 15.2029 7.74218 15.2609C7.78293 15.319 7.84336 15.3602 7.9122 15.3768Z" fill="#333333"/>
<path d="M18.994 18.7946C17.7821 18.8471 16.5469 18.8705 15.3583 18.8939C12.8986 18.8958 10.4407 19.0226 7.99377 19.2736C7.89742 19.2868 7.80982 19.3365 7.74908 19.4127C7.68834 19.4888 7.65912 19.5854 7.66749 19.6826C7.66749 19.7616 7.6988 19.8374 7.75453 19.8933C7.81025 19.9491 7.88583 19.9805 7.96464 19.9805H7.98794C10.429 19.7294 12.8812 19.6026 15.335 19.6008C16.5003 19.6008 17.7646 19.554 18.9765 19.5015C19.0229 19.5 19.0686 19.4892 19.1108 19.4698C19.1531 19.4504 19.191 19.4228 19.2225 19.3885C19.2539 19.3543 19.2783 19.3141 19.2941 19.2703C19.3098 19.2264 19.3168 19.1799 19.3144 19.1334C19.316 19.0899 19.3089 19.0466 19.2936 19.006C19.2782 18.9653 19.255 18.9281 19.2251 18.8966C19.1953 18.865 19.1595 18.8397 19.1198 18.8222C19.0801 18.8047 19.0373 18.7953 18.994 18.7946Z" fill="#333333"/>
</svg>
